<svg width="634" height="430" viewBox="0 0 634 430" fill="none" xmlns="http://www.w3.org/2000/svg">
<path d="M23.5403 428.345L0.101505 173.277C-0.493692 166.782 1.54259 160.311 5.84329 155.028L122.801 11.3368C125.925 7.49778 130.119 4.44419 134.972 2.47551C139.824 0.506834 145.17 -0.310038 150.485 0.10545L550.871 31.4423C557.207 31.9397 563.215 34.1646 568.07 37.812C572.93 41.4595 576.396 46.3512 577.995 51.8162L633.009 239.764C634.362 244.394 634.331 249.258 632.906 253.872L579.077 429L23.5403 428.345Z" fill="#E4E4E4"/>
<path d="M40 230H32.3919H11L11.3047 233H40V230Z" fill="white"/>
<path d="M100.676 71.0014H105.117V80.7503V116.635H107.821V118.325H105.117V154.41H107.821V156.099H105.117V192.184H107.821V193.868H105.117V203.236V229.413V229.626H68.5603H46V233H112V68H82.5776L80.1206 71.0014H81.164H100.676Z" fill="white"/>
<path d="M36 155H40V151L36 155Z" fill="#E8E8E8"/>
<path d="M34.9126 156L25 166.759V181.826H37.4185V192H40V156H34.9126Z" fill="#E8E8E8"/>
<path d="M17 156V158.952L18.0102 160L21 156H17Z" fill="#E8E8E8"/>
<path d="M40 194H37V198H40V194Z" fill="#E8E8E8"/>
<path d="M55 194H46V198H55V194Z" fill="#E8E8E8"/>
<path d="M17.0216 155H23.0968L40 136.261V120L15 151.681H17.0216V155Z" fill="#E8E8E8"/>
<path d="M54 103L43 117H54V103Z" fill="#E8E8E8"/>
<path d="M58.3758 117L78 95.0503V74L71.9702 80.8194L57 99.9652V117H58.3758Z" fill="#E8E8E8"/>
<path d="M46 118V130L57 118H46Z" fill="#E8E8E8"/>
<path d="M54.4081 167.171H64.2474V162.256H73.2967V187.873L78.2522 182.89V177.06H84.0491L105 156H46V192H54.4081V167.171Z" fill="#E8E8E8"/>
<path d="M81 106.646V117H105V81L81 106.646Z" fill="#E8E8E8"/>
<path d="M105 118H69.8647L46 144.166V155H105V118Z" fill="#E8E8E8"/>
<path d="M81 71V92L101 71H81Z" fill="#E8E8E8"/>
<path d="M72 117H78V109L72 117Z" fill="#E8E8E8"/>
<path d="M99 199.099V204H105V194H103.435L99 199.099Z" fill="#E8E8E8"/>
<path d="M78 177V183L84 177H78Z" fill="#E8E8E8"/>
<path opacity="0.1" d="M78 177V183L84 177H78Z" fill="black"/>
<path d="M17 155V151H14.9348L13 153.89V155H17Z" fill="#E8E8E8"/>
<path opacity="0.1" d="M17 155V151H14.9348L13 153.89V155H17Z" fill="black"/>
<path d="M40 222.37V198.245H37.341V194H7L10.3187 230H32.4316L40 222.37Z" fill="#E8E8E8"/>
<path opacity="0.1" d="M40 222.37V198.245H37.341V194H7L10.3187 230H32.4316L40 222.37Z" fill="black"/>
<path d="M16.8187 158.665V156H12.7559V158.339L6.39939 163.439C5.28965 166.532 4.83358 169.77 5.05394 173L18 159.611L16.8187 158.665Z" fill="#E8E8E8"/>
<path opacity="0.1" d="M16.8187 158.665V156H12.7559V158.339L6.39939 163.439C5.28965 166.532 4.83358 169.77 5.05394 173L18 159.611L16.8187 158.665Z" fill="black"/>
<path d="M54.5975 194V198.252H46V216L68 194H54.5975Z" fill="#E8E8E8"/>
<path opacity="0.1" d="M54.5975 194V198.252H46V216L68 194H54.5975Z" fill="black"/>
<path d="M73 163H64.3764V167.792H55V192H69.0891L73 187.976V163Z" fill="#E8E8E8"/>
<path opacity="0.1" d="M73 163H64.3764V167.792H55V192H69.0891L73 187.976V163Z" fill="black"/>
<path d="M37 181.923H24.642V167L7 186.06L7.54239 192H37V181.923Z" fill="#E8E8E8"/>
<path opacity="0.1" d="M37 181.923H24.642V167L7 186.06L7.54239 192H37V181.923Z" fill="black"/>
<path d="M98.7531 199L69 230H105V203.625H98.7531V199Z" fill="#E8E8E8"/>
<path opacity="0.1" d="M98.7531 199L69 230H105V203.625H98.7531V199Z" fill="black"/>
<path d="M78 73L72 81L78 73.9238V73Z" fill="#E8E8E8"/>
<path opacity="0.3" d="M78 73L72 81L78 73.9238V73Z" fill="white"/>
<path d="M78 95L58 117H71.2827L78 109.627V95Z" fill="#E8E8E8"/>
<path opacity="0.3" d="M78 95L58 117H71.2827L78 109.627V95Z" fill="white"/>
<path d="M56.4678 118L46 129.362V144L70 118H56.4678Z" fill="#E8E8E8"/>
<path opacity="0.3" d="M56.4678 118L46 129.362V144L70 118H56.4678Z" fill="white"/>
<path d="M21.4317 156L18 159.696L24.7756 165.356V167L35 156H21.4317Z" fill="#E8E8E8"/>
<path opacity="0.3" d="M21.4317 156L18 159.696L24.7756 165.356V167L35 156H21.4317Z" fill="white"/>
<path d="M40 136L23 155H36.3957L40 150.981V136Z" fill="#E8E8E8"/>
<path opacity="0.3" d="M40 136L23 155H36.3957L40 150.981V136Z" fill="white"/>
<path d="M105 71H100.55L81 91.6841V106L105 80.6625V71Z" fill="#E8E8E8"/>
<path opacity="0.3" d="M105 71H100.55L81 91.6841V106L105 80.6625V71Z" fill="white"/>
<path d="M25 165.457L18.0556 160L5 173.214C5 173.42 5.0267 173.621 5.04273 173.822L6.21795 186L25 167.034V165.457Z" fill="#E8E8E8"/>
<path opacity="0.1" d="M25 165.457L18.0556 160L5 173.214C5 173.42 5.0267 173.621 5.04273 173.822L6.21795 186L25 167.034V165.457Z" fill="black"/>
<path opacity="0.3" d="M25 165.457L18.0556 160L5 173.214C5 173.42 5.0267 173.621 5.04273 173.822L6.21795 186L25 167.034V165.457Z" fill="white"/>
<path d="M78 194H73V204H78V194Z" fill="#E8E8E8"/>
<path opacity="0.3" d="M78 194H73V204H78V194Z" fill="white"/>
<path d="M99 194V199L103 194H99Z" fill="#E8E8E8"/>
<path opacity="0.3" d="M99 194V199L103 194H99Z" fill="white"/>
<path d="M73 187.923V192H78V183L73 187.923Z" fill="#E8E8E8"/>
<path opacity="0.3" d="M73 187.923V192H78V183L73 187.923Z" fill="white"/>
<path d="M98.6908 177.06V192H105V156L84 177.06H98.6908Z" fill="#E8E8E8"/>
<path opacity="0.3" d="M98.6908 177.06V192H105V156L84 177.06H98.6908Z" fill="white"/>
<path d="M83.9518 177L78 182.854V192H99V177H83.9518Z" fill="#E8E8E8"/>
<path opacity="0.1" d="M83.9518 177L78 182.854V192H99V177H83.9518Z" fill="black"/>
<path opacity="0.3" d="M83.9518 177L78 182.854V192H99V177H83.9518Z" fill="white"/>
<path d="M40 222L32 230H40V222Z" fill="#E8E8E8"/>
<path opacity="0.1" d="M40 222L32 230H40V222Z" fill="black"/>
<path opacity="0.3" d="M40 222L32 230H40V222Z" fill="white"/>
<path d="M69 192H73V188L69 192Z" fill="#E8E8E8"/>
<path opacity="0.1" d="M69 192H73V188L69 192Z" fill="black"/>
<path opacity="0.3" d="M69 192H73V188L69 192Z" fill="white"/>
<path d="M99 198.838V194H78.4324V203.487H73.4492V194H67.6354L46 215.964V230H68.8528L99 198.838Z" fill="#E8E8E8"/>
<path opacity="0.1" d="M99 198.838V194H78.4324V203.487H73.4492V194H67.6354L46 215.964V230H68.8528L99 198.838Z" fill="black"/>
<path opacity="0.3" d="M99 198.838V194H78.4324V203.487H73.4492V194H67.6354L46 215.964V230H68.8528L99 198.838Z" fill="white"/>
<path d="M45.913 118H56.3873H69.928H105.285H108V117H105.285H81.2283V117.497H78.3684V117H71.518H57.9722H56.5422V117.497H53.6771V117H42.6969L42 117.5H45.913V118Z" fill="white"/>
<path d="M108 156V155H105.288H46V156H105.288H108Z" fill="white"/>
<path d="M17.0283 156H40V155H12.3829L11.413 155.689C11.27 155.79 11.1378 155.896 11 156H17.0283Z" fill="white"/>
<path d="M40 194V192H37.353H7L7.15509 194H37.353H40Z" fill="white"/>
<path d="M67.6204 194H73.4301H78.4099H98.9632H103.639H105.288H108V192H105.288H98.9632H78.4099H73.4301H69.3061H54.4492H46V194H54.4492H67.6204Z" fill="white"/>
<path d="M40 150.93V154.763V156.445V192.367V194.044V198.217V221.93V229.429V229.641V233H46V229.641V229.429V215.633V198.217V194.044V192.367V156.445V154.763V144.245V129.943V118.841V118H42.2843L40 120.916V136.642V150.93Z" fill="white"/>
<path d="M54 118H57V117.145V100L54 103.547V117.145V118Z" fill="white"/>
<path d="M78 95.1865V109.789V117.15V118H81V117.15V106.713V92.1052V71H79.9007L78 73.2318V74.1226V95.1865Z" fill="white"/>
<path d="M117.149 65.2694C117.416 65.0503 117.63 64.7788 117.777 64.4743C117.924 64.1692 118 63.8376 118 63.5024C118 63.1673 117.924 62.8356 117.777 62.5306C117.63 62.2261 117.416 61.9546 117.149 61.7355C116.575 61.2567 115.836 60.9951 115.072 61.0001H87.7951L84 65.9999H115.072C115.836 66.0063 116.574 65.7467 117.149 65.2694Z" fill="white"/>
<path d="M121.213 238.403C121.458 238.226 121.654 238.009 121.79 237.765C121.925 237.522 121.997 237.257 122 236.989C122.001 236.726 121.931 236.466 121.794 236.228C121.655 235.979 121.455 235.758 121.208 235.576C120.949 235.391 120.65 235.247 120.328 235.152C119.998 235.052 119.65 235 119.299 235H112.368V235.059H11L11.3911 239H119.299C120.003 238.997 120.683 238.785 121.213 238.403Z" fill="white"/>
<path d="M112 234.923V233H111.928H46.1923H39.9259H11L11.1536 235H112V234.923Z" fill="#E8E8E8"/>
<path d="M112 66H84.5199L83 68H112V66Z" fill="#F5F5F5"/>
<path d="M293 360H226V429H293V360Z" fill="#B8B8B8"/>
<path d="M312 360H279V429H312V360Z" fill="#DADDDF"/>
<path d="M251 360H240V371H251V360Z" fill="#B2B6BB"/>
<path d="M296 360H288V371H296V360Z" fill="#B2B6BB"/>
<path d="M597.23 430H16.7697C16.566 430 16.37 429.947 16.2258 429.853C16.0811 429.76 16 429.633 16 429.5C16 429.367 16.0811 429.24 16.2258 429.147C16.37 429.053 16.566 429 16.7697 429H597.23C597.436 429 597.631 429.053 597.774 429.147C597.918 429.24 598 429.367 598 429.5C598 429.633 597.918 429.76 597.774 429.853C597.631 429.947 597.436 430 597.23 430Z" fill="#B2B6BB"/>
<path d="M488 265H406V347H488V265Z" fill="white"/>
<path d="M477 273H417V339H477V273Z" fill="#DDDDDD"/>
<path d="M491 265H488V346H491V265Z" fill="#DADDDF"/>
<path d="M461 296H433V328H461V296Z" fill="#B1B5BA"/>
<path d="M446.974 291.999C450.549 292.041 454.031 291.012 456.873 289.076C459.504 287.202 461 284.656 461 282H433C433 284.651 434.47 287.197 437.091 289.072C439.917 291.009 443.394 292.041 446.964 291.999" fill="#4EAB3F"/>
<g style="mix-blend-mode:multiply">
<path d="M372.609 324.736H371.804V328.205H372.609V324.736Z" fill="#C5D6E0"/>
</g>
<g style="mix-blend-mode:multiply">
<path d="M356.409 318.771L353.649 321.225L354.218 321.73L356.979 319.276L356.409 318.771Z" fill="#C5D6E0"/>
</g>
<g style="mix-blend-mode:multiply">
<path d="M388.005 318.776L387.436 319.281L390.198 321.735L390.767 321.229L388.005 318.776Z" fill="#C5D6E0"/>
</g>
<g style="mix-blend-mode:multiply">
<path d="M363.481 323.106L362 326.312L362.744 326.583L364.225 323.378L363.481 323.106Z" fill="#C5D6E0"/>
</g>
<g style="mix-blend-mode:multiply">
<path d="M392.679 312.353L392.374 313.014L395.989 314.33L396.294 313.668L392.679 312.353Z" fill="#C5D6E0"/>
</g>
<g style="mix-blend-mode:multiply">
<path d="M348.522 314.434L348.209 313.774L351.808 312.44L352.121 313.095L348.522 314.434Z" fill="#C5D6E0"/>
</g>
<g style="mix-blend-mode:multiply">
<path d="M381.042 323.084L380.299 323.359L381.802 326.562L382.545 326.287L381.042 323.084Z" fill="#C5D6E0"/>
</g>
<path d="M370 315H367V317H370V315Z" fill="white"/>
<path d="M375 315H373V317H375V315Z" fill="white"/>
<g style="mix-blend-mode:multiply">
<path d="M391.296 330.969H390.548V334.202H391.296V330.969Z" fill="#C5D6E0"/>
</g>
<g style="mix-blend-mode:multiply">
<path d="M415.007 312.481H411.367V313.15H415.007V312.481Z" fill="#C5D6E0"/>
</g>
<g style="mix-blend-mode:multiply">
<path d="M370.481 312.481H366.842V313.15H370.481V312.481Z" fill="#C5D6E0"/>
</g>
<g style="mix-blend-mode:multiply">
<path d="M376.203 325.407L373.63 327.694L374.16 328.163L376.732 325.877L376.203 325.407Z" fill="#C5D6E0"/>
</g>
<g style="mix-blend-mode:multiply">
<path d="M405.648 325.417L405.119 325.887L407.693 328.173L408.222 327.702L405.648 325.417Z" fill="#C5D6E0"/>
</g>
<g style="mix-blend-mode:multiply">
<path d="M382.788 329.445L381.408 332.431L382.101 332.684L383.48 329.697L382.788 329.445Z" fill="#C5D6E0"/>
</g>
<g style="mix-blend-mode:multiply">
<path d="M410 319.437L409.717 320.052L413.085 321.277L413.368 320.662L410 319.437Z" fill="#C5D6E0"/>
</g>
<g style="mix-blend-mode:multiply">
<path d="M368.852 321.368L368.56 320.754L371.918 319.511L372.205 320.125L368.852 321.368Z" fill="#C5D6E0"/>
</g>
<g style="mix-blend-mode:multiply">
<path d="M399.161 329.432L398.47 329.688L399.871 332.671L400.562 332.415L399.161 329.432Z" fill="#C5D6E0"/>
</g>
<path d="M389 322H386V324H389V322Z" fill="white"/>
<path d="M394 322H392V324H394V322Z" fill="white"/>
<path d="M390.3 323H383V320.639H390.3C393.202 320.639 395.555 319.496 395.555 317.507C395.555 315.518 393.202 314.37 390.3 314.37H387.463V312H390.3C395.108 312 399 314.215 399 317.493C399 320.772 395.108 323 390.3 323Z" fill="white"/>
<g style="mix-blend-mode:multiply">
<path d="M331.773 319.003L331.588 322.154L332.321 322.187L332.505 319.037L331.773 319.003Z" fill="#C5D6E0"/>
</g>
<g style="mix-blend-mode:multiply">
<path d="M318.118 312.934L315.48 315.047L315.97 315.53L318.609 313.417L318.118 312.934Z" fill="#C5D6E0"/>
</g>
<g style="mix-blend-mode:multiply">
<path d="M346.808 314.27L346.263 314.706L348.638 317.046L349.183 316.61L346.808 314.27Z" fill="#C5D6E0"/>
</g>
<g style="mix-blend-mode:multiply">
<path d="M324.341 317.249L322.825 320.098L323.488 320.376L325.004 317.527L324.341 317.249Z" fill="#C5D6E0"/>
</g>
<g style="mix-blend-mode:multiply">
<path d="M340.265 317.888L339.575 318.107L340.769 321.079L341.46 320.86L340.265 317.888Z" fill="#C5D6E0"/>
</g>
<path d="M469 311H307V429H469V311Z" fill="#B2B6BB"/>
<path d="M432 410H414V422H432V410Z" fill="#DADDDF"/>
<path d="M409 410H396V422H409V410Z" fill="#DADDDF"/>
<path d="M515 311H469V429H515V311Z" fill="#B2B6BB"/>
<path opacity="0.2" d="M469 311L461.409 347H294V331.869L318.662 323.346L469 311Z" fill="black"/>
<path opacity="0.2" d="M515 311H469V429H515V311Z" fill="black"/>
<path d="M457.067 340H290L301.928 311H469L457.067 340Z" fill="#B2B6BB"/>
<path opacity="0.2" d="M457.067 340H290L301.928 311H469L457.067 340Z" fill="white"/>
<path opacity="0.15" d="M515 318.772V347H479.249L469 311L515 318.772Z" fill="black"/>
<path d="M514.575 311H469L481.425 341H527L514.575 311Z" fill="#B2B6BB"/>
<path opacity="0.1" d="M514.575 311H469L481.425 340H527L514.575 311Z" fill="black"/>
<path d="M435 365H320V400H435V365Z" fill="#DADDDF"/>
<path d="M382.97 371.018C383.338 371.018 383.727 371.018 384.146 371.069C386.695 371.29 389.637 373.37 390 377.332V378.634C389.663 382.435 386.436 387.124 376.997 393C367.559 387.124 364.332 382.416 364 378.634V377.313C364.357 373.347 367.3 371.272 369.849 371.051C370.268 371.014 370.662 371 371.025 371C373.972 371 375.381 372.127 376.997 373.839C378.614 372.127 380.028 371 382.97 371" fill="black"/>
<path d="M536 390H448V429H536V390Z" fill="#DADDDF"/>
<path d="M520 429H554V390H520V429Z" fill="#DADDDF"/>
<path opacity="0.1" d="M519 429H554V390H519V429Z" fill="black"/>
<path d="M556 385H446V394H556V385Z" fill="#DADDDF"/>
<path opacity="0.1" d="M554 394H448V398H554V394Z" fill="black"/>
<path d="M556 385H520V394H556V385Z" fill="#DADDDF"/>
<path opacity="0.1" d="M556 385H520V395H556V385Z" fill="black"/>
<path d="M485.593 406C485.874 406 486.176 406 486.5 406.036C488.458 406.196 490.745 407.706 491 410.589V411.552C490.745 414.314 488.262 417.723 480.997 422C473.738 417.723 471.255 414.314 471 411.552V410.589C471.276 407.706 473.542 406.196 475.5 406.036C475.824 406.036 476.121 406 476.407 406C478.668 406 479.756 406.82 480.997 408.063C482.244 406.82 483.327 406 485.593 406Z" fill="white"/>
<path d="M243.205 420.314L275 421L262.288 412.851C261.241 412.179 260.378 411.298 259.763 410.279C259.148 409.259 258.798 408.128 258.739 406.969L258.291 398L241 398.037L243.205 420.314Z" fill="#4EAB3F"/>
<path opacity="0.15" d="M246.794 409.303V409.128C246.748 408.651 246.896 408.179 247.208 407.803C247.521 407.427 247.972 407.183 248.471 407.115L258 405.794L257.913 404H242L243.406 419L256.415 417.624L252.114 416.032C250.655 415.486 249.384 414.569 248.445 413.376C247.507 412.183 246.936 410.766 246.799 409.284L246.794 409.303Z" fill="black"/>
<path d="M241 414.641V425.743C240.999 426.172 241.092 426.597 241.274 426.993C241.455 427.386 241.721 427.745 242.057 428.05C242.393 428.35 242.792 428.589 243.231 428.756C243.67 428.917 244.14 429 244.615 429H286.505C286.901 429 287.28 428.862 287.56 428.608C287.84 428.359 287.998 428.017 288 427.658C288.002 426.366 287.55 425.102 286.71 424.051C285.87 423.004 284.684 422.219 283.32 421.809L273.888 419.004L261.886 410.628C261.285 410.208 260.541 409.987 259.78 410.001C259.018 410.019 258.286 410.273 257.708 410.716L252.372 414.816C251.985 415.111 251.521 415.314 251.025 415.402C250.528 415.494 250.014 415.471 249.531 415.333L242.782 413.437C242.572 413.382 242.352 413.368 242.137 413.4C241.925 413.437 241.726 413.515 241.553 413.631C241.38 413.755 241.24 413.912 241.143 414.092C241.049 414.267 241.002 414.461 241.005 414.655L241 414.641Z" fill="#195155"/>
<path opacity="0.5" d="M244.563 429H286.503C286.898 428.995 287.276 428.841 287.559 428.564C287.84 428.287 287.999 427.908 288 427.508C287.999 427 287.94 426.497 287.826 426H241C241.148 426.846 241.589 427.61 242.246 428.159C242.903 428.708 243.732 429.005 244.589 429H244.563Z" fill="black"/>
<path d="M261.45 415C261.333 415 261.221 414.969 261.136 414.912C261.096 414.881 261.062 414.846 261.037 414.81C261.013 414.771 261.001 414.726 261 414.682C261.001 414.638 261.013 414.599 261.037 414.559C261.06 414.519 261.094 414.484 261.136 414.453L264.217 412.097C264.304 412.035 264.421 412 264.544 412C264.667 412 264.784 412.035 264.871 412.097C264.911 412.128 264.944 412.163 264.969 412.203C264.988 412.243 264.999 412.282 265 412.326C264.999 412.371 264.988 412.415 264.969 412.454C264.944 412.49 264.911 412.525 264.871 412.556L261.789 414.907C261.744 414.938 261.692 414.96 261.635 414.978C261.576 414.987 261.515 414.987 261.456 414.978L261.45 415Z" fill="white"/>
<path d="M263.459 417C263.368 417 263.28 416.978 263.204 416.943C263.13 416.908 263.072 416.859 263.037 416.802C263.002 416.745 262.991 416.679 263.007 416.617C263.023 416.556 263.063 416.499 263.124 416.45L266.229 414.106C266.314 414.044 266.429 414.004 266.552 414C266.673 414 266.79 414.031 266.881 414.088C266.958 414.15 267 414.229 267 414.308C267 414.391 266.958 414.466 266.881 414.528L263.776 416.872C263.736 416.908 263.685 416.934 263.628 416.952C263.571 416.969 263.509 416.978 263.447 416.978L263.459 417Z" fill="white"/>
<path d="M265.445 418C265.388 418 265.331 417.996 265.278 417.978C265.225 417.965 265.177 417.943 265.136 417.912C265.093 417.881 265.059 417.845 265.035 417.806C265.012 417.766 265 417.726 265 417.682C265.001 417.598 265.05 417.514 265.136 417.452L268.227 415.097C268.271 415.066 268.321 415.044 268.376 415.022C268.431 415.009 268.489 415 268.549 415C268.607 415 268.666 415.009 268.722 415.022C268.776 415.044 268.826 415.066 268.87 415.097C268.912 415.128 268.945 415.163 268.967 415.203C268.989 415.243 269.001 415.283 269 415.327C269.001 415.371 268.99 415.411 268.968 415.451C268.945 415.49 268.912 415.526 268.87 415.557L265.779 417.912C265.734 417.943 265.681 417.965 265.624 417.982C265.565 417.991 265.504 417.991 265.445 417.982V418Z" fill="white"/>
<path d="M152 412.776L180 425L172.333 413.054C171.704 412.065 171.333 410.961 171.245 409.825C171.158 408.685 171.358 407.544 171.83 406.486L175.449 398.276L160.014 392L152 412.776Z" fill="#4EAB3F"/>
<path opacity="0.15" d="M159.756 404.679L159.833 404.524C160.009 404.072 160.375 403.697 160.854 403.478C161.333 403.258 161.888 403.213 162.405 403.35L172.249 405.862L173 404.204L157.57 398L152 412.162L165.239 416L161.808 412.88C160.639 411.82 159.826 410.49 159.462 409.042C159.099 407.594 159.199 406.086 159.751 404.684L159.756 404.679Z" fill="black"/>
<path d="M192.379 428.074C192.982 426.933 193.151 425.653 192.863 424.422V424.387C192.638 423.501 192.121 422.691 191.374 422.055C190.627 421.42 189.682 420.986 188.656 420.807L178.691 418.234L172.443 411.701C172.084 411.115 171.504 410.654 170.799 410.39C170.094 410.13 169.307 410.09 168.571 410.273L161.787 411.974C161.296 412.095 160.778 412.108 160.28 412.01C159.783 411.911 159.322 411.705 158.941 411.41L153.626 407.298C153.46 407.177 153.264 407.087 153.054 407.038C152.842 406.989 152.62 406.989 152.406 407.029C152.192 407.069 151.994 407.159 151.827 407.28C151.658 407.401 151.526 407.553 151.44 407.727L146.326 418.493C146.128 418.874 146.018 419.281 146.002 419.693C145.986 420.109 146.064 420.52 146.232 420.91C146.4 421.299 146.655 421.653 146.981 421.957C147.308 422.261 147.7 422.503 148.135 422.673L166.695 429L190.409 428.87C190.409 428.87 192.049 428.839 192.379 428.074Z" fill="#195155"/>
<path opacity="0.5" d="M193 426.477L167.402 426.374L146.122 419C145.901 419.72 145.983 420.485 146.353 421.157C146.723 421.832 147.357 422.365 148.141 422.669L166.691 429L190.563 428.861C190.563 428.861 192.691 429.291 193 426.477Z" fill="black"/>
<path d="M170.237 415.983C170.133 415.95 170.051 415.884 170.007 415.799C169.998 415.757 169.998 415.714 170.007 415.667C170.012 415.625 170.026 415.577 170.049 415.535C170.073 415.492 170.108 415.459 170.152 415.426C170.195 415.393 170.244 415.37 170.298 415.351L174.393 414.028C174.446 414.009 174.505 414 174.563 414C174.622 414 174.679 414.009 174.733 414.028C174.841 414.066 174.926 414.137 174.969 414.222C174.992 414.264 175.002 414.312 175 414.359C175 414.406 174.988 414.449 174.963 414.486C174.938 414.529 174.903 414.567 174.86 414.6C174.816 414.633 174.764 414.656 174.708 414.671L170.626 415.993C170.566 416.002 170.504 416.002 170.444 415.993C170.382 415.993 170.322 415.979 170.268 415.955L170.237 415.983Z" fill="white"/>
<path d="M172.24 417.928C172.172 417.896 172.113 417.846 172.071 417.771C172.028 417.695 172.003 417.608 172 417.52C171.997 417.432 172.015 417.344 172.05 417.262C172.086 417.187 172.14 417.118 172.205 417.08L175.466 415.033C175.558 414.989 175.659 414.989 175.75 415.033C175.842 415.077 175.918 415.159 175.959 415.272C175.982 415.328 175.995 415.385 175.999 415.447C176.003 415.51 175.997 415.573 175.981 415.629C175.966 415.686 175.942 415.743 175.91 415.786C175.878 415.837 175.839 415.874 175.795 415.9L172.534 417.94C172.489 417.972 172.44 417.984 172.389 417.991C172.34 418.003 172.289 418.003 172.24 417.991V417.928Z" fill="white"/>
<path d="M174.238 419C174.152 418.97 174.082 418.919 174.039 418.847C174.016 418.808 174.003 418.77 174.001 418.727C173.998 418.685 174.005 418.642 174.023 418.6C174.04 418.561 174.067 418.523 174.101 418.493C174.136 418.463 174.177 418.438 174.223 418.421L177.488 417.036C177.532 417.019 177.579 417.011 177.628 417.006C177.673 416.998 177.721 416.998 177.767 417.006C177.814 417.023 177.856 417.045 177.892 417.07C177.924 417.1 177.951 417.134 177.972 417.168C178.009 417.249 178.009 417.334 177.972 417.411C177.955 417.449 177.93 417.488 177.898 417.518C177.865 417.547 177.826 417.569 177.782 417.586L174.518 418.97C174.472 418.987 174.423 418.996 174.373 418.996C174.323 418.996 174.274 418.987 174.228 418.97L174.238 419Z" fill="white"/>
<path d="M206 253L226.789 326.503L239.866 406L259 405.142L257.12 333.63C257.11 333.163 257.07 332.697 257.003 332.233L246.305 258.096L206 253Z" fill="#21252B"/>
<path opacity="0.3" d="M232.613 327.26L221.078 289.729L222.111 266.967C222.124 266.712 222.078 266.457 221.975 266.219C221.873 265.981 221.717 265.763 221.516 265.579C221.315 265.395 221.073 265.249 220.806 265.15C220.539 265.05 220.252 264.999 219.962 265C219.442 264.995 218.937 265.157 218.542 265.454L211 271.336L227.013 326.869L240.273 406L245 405.846L232.613 327.26Z" fill="black"/>
<path d="M183.788 251L176.352 326.192L155 401.006L173.845 406L204.688 334.786C205.1 333.834 205.422 332.853 205.652 331.853L223 255.858L183.788 251Z" fill="#21252B"/>
<path opacity="0.3" d="M176.592 326.214L155 401.145L161.431 403L183.46 327.396L192 251.941L184.101 251L176.592 326.214Z" fill="black"/>
<path d="M323.588 242L279.117 219.524C275.808 218.372 272.932 216.409 270.821 213.862L245 182.734L263.753 172L287.639 205.416L325 230.918L323.588 242Z" fill="#734E22"/>
<path d="M253.631 165.125L205.539 158.196C203.229 157.86 200.866 157.957 198.601 158.482C196.336 159.007 194.219 159.949 192.387 161.246C190.554 162.542 189.047 164.166 187.96 166.013C186.874 167.859 186.233 169.888 186.078 171.968C184.583 192.013 182.442 226.304 183.134 250.764L247.798 262C247.798 262 255.357 218.485 256.811 198.408L261.052 203.07L280 192.72L267.75 173.378C267.231 172.611 266.633 171.889 265.963 171.22C265.381 170.648 264.744 170.123 264.058 169.651C260.555 167.247 257.621 165.7 253.631 165.125Z" fill="#278019"/>
<path d="M207.5 191L206 192.5L207.5 194L209 192.5L207.5 191Z" fill="white"/>
<path d="M245 195L243 196.5L245 198L247 196.5L245 195Z" fill="white"/>
<path d="M229 226L227 227.5L229 229L231 227.5L229 226Z" fill="white"/>
<path d="M241 247L239 248.5L241 250L243 248.5L241 247Z" fill="white"/>
<path d="M253 218.682L254.572 220C254.719 218.995 254.862 217.995 255 217L253 218.682Z" fill="white"/>
<path d="M195 227L193 229L195 231L197 229L195 227Z" fill="white"/>
<path d="M214.5 240L213 242L214.5 244L216 242L214.5 240Z" fill="white"/>
<path d="M202 203L200 204.5L202 206L204 204.5L202 203Z" fill="white"/>
<path d="M185 245.517L183 244C183 245.017 183.014 246.017 183.044 247L185 245.517Z" fill="white"/>
<path d="M184.014 209.987L185 208.436L184.08 207C184.052 207.99 184.027 208.989 184 210L184.014 209.987Z" fill="white"/>
<path d="M231 205L229 207L231 209L233 207L231 205Z" fill="white"/>
<path d="M246 173L244 175L246 177L248 175L246 173Z" fill="white"/>
<path d="M227.5 184L226 185.5L227.5 187L229 185.5L227.5 184Z" fill="white"/>
<path d="M268 187L266 188.5L268 190L270 188.5L268 187Z" fill="white"/>
<path d="M206 165L204 166.5L206 168L208 166.5L206 165Z" fill="white"/>
<path d="M236.256 167.996C221.971 168.187 218.226 160.937 218.226 160.937C216.918 161.16 221.719 142.523 221.549 142.039C222.579 125.271 239.399 136.615 242 138.475C241.835 138.107 240.372 147.607 239.29 150.995C239.29 153.142 239.167 157.697 239.126 160.672C239.109 161.495 239.178 162.318 239.332 163.13C239.682 164.734 239.852 167.945 236.256 167.996Z" fill="#734E22"/>
<path opacity="0.15" d="M238.857 161.788C227.229 163.864 223 150 223 150L239 153.767L238.857 161.397V161.788Z" fill="black"/>
<path d="M243.277 139.956C244.455 140.099 245.649 139.89 246.708 139.354C247.767 138.818 248.644 137.981 249.226 136.947C249.809 135.913 250.073 134.73 249.983 133.547C249.893 132.364 249.455 131.234 248.723 130.299C247.991 129.365 246.998 128.669 245.871 128.299C244.743 127.929 243.531 127.902 242.388 128.221C241.245 128.539 240.222 129.19 239.449 130.09C238.676 130.99 238.187 132.099 238.044 133.278C237.949 134.059 238.009 134.853 238.221 135.612C238.432 136.371 238.791 137.081 239.277 137.701C239.763 138.321 240.366 138.839 241.053 139.226C241.739 139.614 242.495 139.861 243.277 139.956Z" fill="#21252B"/>
<path d="M244.692 129.614C244.692 129.614 247.912 154.863 233.523 154.999C221.053 155.113 222.017 137.986 222.017 137.986L224.109 127L244.692 129.614Z" fill="#734E22"/>
<path d="M223.8 139C223.8 139 223.521 145.373 225.386 145.865C228.179 146.593 234.823 145.187 238.885 147.413C242.948 149.639 243.119 147.662 244 145.076C244 145.076 242.834 160.683 230.9 157.596C218.966 154.509 222.484 139.013 222.484 139.013L223.8 139Z" fill="#21252B"/>
<path d="M243.957 131.087L231.207 130.561C230.829 130.544 230.451 130.593 230.095 130.705C229.74 130.819 229.413 130.991 229.133 131.213C228.852 131.435 228.625 131.705 228.464 132.004C228.304 132.305 228.211 132.63 228.191 132.961C228.153 133.629 227.814 134.256 227.248 134.706C226.682 135.155 225.934 135.391 225.169 135.36C225.068 135.356 224.966 135.37 224.871 135.401C224.774 135.43 224.685 135.476 224.608 135.535C224.531 135.597 224.47 135.672 224.428 135.756C224.384 135.837 224.359 135.926 224.356 136.016L224.222 138.456C224.219 138.531 224.199 138.605 224.163 138.673C224.127 138.74 224.075 138.802 224.011 138.851C223.882 138.951 223.715 139.004 223.543 139C223.387 138.993 223.238 138.937 223.126 138.842C223.012 138.749 222.941 138.623 222.925 138.488L222.668 136.106L222.209 135.279L219.003 136.573C219.003 136.573 215.075 129.573 218.22 123.93C220.006 120.703 223.996 119.922 225.823 119.926C226.121 119.926 226.416 119.866 226.684 119.75C226.952 119.635 227.185 119.468 227.367 119.261C228.237 118.241 230.316 116.565 234.275 117.104C235.398 117.23 236.467 117.599 237.384 118.178C238.301 118.758 239.037 119.528 239.525 120.42C239.728 120.784 240.074 121.073 240.5 121.233C240.927 121.393 241.404 121.414 241.847 121.292C242.746 121.035 243.707 120.985 244.635 121.148C245.563 121.311 246.427 121.681 247.143 122.222C250.942 124.878 248.43 130.966 243.957 131.087Z" fill="#21252B"/>
<path opacity="0.15" d="M221.28 143.143C221.401 143.19 221.528 143.201 221.653 143.176C221.778 143.152 221.896 143.092 222 143L221 145L221.28 143.143Z" fill="black"/>
<path d="M223 137.029C222.984 136.719 222.888 136.416 222.719 136.142C222.551 135.867 222.313 135.626 222.024 135.438C221.734 135.249 221.4 135.117 221.043 135.05C220.687 134.983 220.318 134.983 219.962 135.051C216.679 135.412 215.32 141.215 220.162 142.764C222.7 143.575 222.605 142.178 222.745 140.37L223 137.029Z" fill="#734E22"/>
<path opacity="0.15" d="M219.172 136.155C219.443 136.048 219.74 135.995 220.038 136C220.487 136.012 220.917 136.158 221.254 136.414C221.59 136.669 221.811 137.017 221.878 137.398C222.053 138.02 222.04 138.67 221.838 139.287L221.698 139.855C221.659 139.913 221.6 139.959 221.529 139.986C221.456 140.005 221.377 140.005 221.304 139.986C221.226 139.971 221.156 139.933 221.107 139.88C221.06 139.827 221.033 139.763 221.028 139.696L221.163 139.123C221.316 138.606 221.331 138.066 221.208 137.542C221.192 137.37 221.124 137.204 221.011 137.06C220.904 136.915 220.752 136.797 220.572 136.718C220.4 136.639 220.207 136.596 220.01 136.593C219.812 136.594 219.618 136.638 219.447 136.723C219.358 136.738 219.267 136.724 219.188 136.685C219.15 136.667 219.115 136.643 219.087 136.614C219.059 136.585 219.038 136.552 219.025 136.516C218.992 136.445 218.992 136.366 219.025 136.294C219.054 136.235 219.106 136.185 219.172 136.155Z" fill="black"/>
<g opacity="0.4">
<path opacity="0.3" d="M234.371 151.52H234.33C233.268 151.146 232.72 150.946 232.72 150.946C232.632 150.91 232.564 150.844 232.53 150.764C232.511 150.724 232.501 150.682 232.501 150.639C232.501 150.596 232.511 150.553 232.53 150.513C232.568 150.435 232.637 150.372 232.725 150.336C232.816 150.306 232.916 150.306 233.007 150.336C233.007 150.336 233.52 150.532 234.586 150.9C234.678 150.935 234.752 151.001 234.791 151.083C234.81 151.123 234.82 151.166 234.82 151.21C234.82 151.254 234.81 151.297 234.791 151.338C234.757 151.409 234.695 151.468 234.617 151.501C234.538 151.539 234.447 151.551 234.36 151.533L234.371 151.52Z" fill="black"/>
</g>
<path d="M232.881 140.993C233.077 141.017 233.276 140.981 233.452 140.892C233.629 140.802 233.775 140.663 233.872 140.49C233.969 140.318 234.012 140.12 233.997 139.923C233.982 139.726 233.908 139.538 233.786 139.382C233.664 139.227 233.499 139.111 233.31 139.049C233.123 138.988 232.921 138.984 232.73 139.037C232.54 139.09 232.369 139.199 232.24 139.349C232.112 139.499 232.03 139.684 232.007 139.88C231.976 140.144 232.051 140.408 232.215 140.617C232.378 140.825 232.618 140.96 232.881 140.993Z" fill="#21252B"/>
<path d="M233.437 140.997C233.569 141.011 233.7 140.974 233.805 140.893C233.909 140.811 233.977 140.693 233.996 140.562C234.004 140.496 234 140.43 233.982 140.366C233.966 140.303 233.936 140.243 233.896 140.191C233.855 140.139 233.805 140.096 233.748 140.063C233.69 140.03 233.627 140.01 233.562 140.002C233.43 139.99 233.3 140.028 233.196 140.109C233.092 140.19 233.024 140.308 233.003 140.437C232.989 140.569 233.026 140.702 233.107 140.805C233.187 140.91 233.306 140.979 233.437 140.997Z" fill="white"/>
<path d="M241.877 141.992C242.074 142.017 242.273 141.982 242.449 141.893C242.626 141.804 242.773 141.665 242.87 141.493C242.968 141.32 243.012 141.123 242.997 140.926C242.982 140.728 242.909 140.54 242.787 140.384C242.665 140.228 242.5 140.112 242.312 140.05C242.124 139.988 241.922 139.984 241.732 140.037C241.541 140.09 241.37 140.198 241.242 140.349C241.113 140.499 241.031 140.684 241.008 140.88C240.992 141.01 241.001 141.143 241.036 141.269C241.071 141.396 241.13 141.514 241.211 141.617C241.292 141.72 241.393 141.807 241.507 141.871C241.621 141.936 241.747 141.977 241.877 141.992Z" fill="#21252B"/>
<path d="M242.45 141.96C242.579 141.974 242.709 141.938 242.81 141.86C242.913 141.782 242.981 141.667 242.998 141.542C243.01 141.415 242.972 141.29 242.893 141.19C242.814 141.089 242.699 141.024 242.572 141.004C242.437 140.988 242.302 141.025 242.195 141.107C242.089 141.189 242.02 141.31 242.004 141.442C241.987 141.574 242.026 141.707 242.109 141.812C242.193 141.916 242.315 141.984 242.45 142V141.96Z" fill="white"/>
<g opacity="0.15">
<path opacity="0.15" d="M237.288 146.006L235.75 145.942C235.663 145.937 235.582 145.903 235.524 145.846C235.465 145.789 235.434 145.714 235.437 145.637C235.437 145.597 235.447 145.559 235.468 145.523C235.486 145.487 235.512 145.454 235.545 145.427C235.578 145.403 235.616 145.383 235.657 145.368C235.7 145.361 235.743 145.361 235.786 145.368L237.323 145.432C237.416 145.436 237.508 145.424 237.595 145.396C237.681 145.369 237.759 145.327 237.826 145.273C237.895 145.218 237.951 145.152 237.99 145.077C238.028 145.004 238.05 144.925 238.057 144.845C238.061 144.763 238.047 144.681 238.016 144.603C237.986 144.528 237.939 144.458 237.877 144.399C237.816 144.338 237.741 144.288 237.657 144.253C237.573 144.217 237.483 144.197 237.39 144.194C237.346 144.202 237.301 144.202 237.257 144.194C237.213 144.18 237.175 144.156 237.144 144.125C237.113 144.097 237.088 144.063 237.072 144.025C237.054 143.988 237.045 143.948 237.047 143.907C237.051 143.866 237.063 143.826 237.083 143.788C237.104 143.753 237.132 143.721 237.165 143.693C237.201 143.668 237.243 143.649 237.288 143.638C237.331 143.627 237.377 143.627 237.421 143.638C237.599 143.645 237.773 143.684 237.934 143.752C238.096 143.819 238.241 143.914 238.36 144.031C238.48 144.148 238.572 144.286 238.631 144.435C238.747 144.733 238.729 145.06 238.58 145.345C238.502 145.487 238.395 145.615 238.267 145.723C238.133 145.829 237.979 145.911 237.811 145.965C237.646 146.018 237.472 146.041 237.298 146.033L237.288 146.006Z" fill="black"/>
</g>
<path d="M232.249 148.003C232.214 147.998 232.178 147.999 232.144 148.007C232.111 148.015 232.081 148.029 232.058 148.047C232.031 148.065 232.013 148.087 232.007 148.112C231.998 148.137 231.998 148.163 232.007 148.188C232.16 148.627 232.485 149.026 232.944 149.339C233.287 149.573 233.696 149.752 234.144 149.864C234.592 149.976 235.068 150.02 235.542 149.992C236.015 149.963 236.474 149.863 236.889 149.699C237.304 149.535 237.665 149.31 237.949 149.039C237.973 149.021 237.989 148.999 237.994 148.974C238.002 148.949 238.002 148.923 237.994 148.898C237.98 148.875 237.959 148.854 237.932 148.838C237.907 148.821 237.876 148.81 237.842 148.806L232.249 148.003Z" fill="white"/>
<path d="M245 138.856C241.857 137.474 240.131 138.181 240.131 138.181L240 138.437C240 138.437 243.11 138.352 244.679 139L245 138.856Z" fill="#21252B"/>
<path d="M231 137.42C233.81 136.358 234.961 137.644 234.961 137.644L235 138C235 138 232.603 137.197 231.209 137.67L231 137.42Z" fill="#21252B"/>
<path opacity="0.15" d="M282.985 219.465L279.457 217.491C277.198 216.227 275.293 214.499 273.892 212.444L266.068 201L262 203.263L270.919 214.295C272.957 216.815 275.733 218.756 278.927 219.895L283 222L282.985 219.465Z" fill="black"/>
<path opacity="0.15" d="M214.96 174.462L239.18 209.538L255 220.294L254.445 223L234.433 212.451L213.118 175.751C213.054 175.639 213.015 175.517 213.004 175.392C212.992 175.267 213.008 175.141 213.051 175.022C213.093 174.902 213.161 174.792 213.252 174.697C213.342 174.601 213.452 174.523 213.576 174.466V174.107C213.813 173.996 214.089 173.97 214.346 174.036C214.603 174.102 214.823 174.254 214.96 174.462Z" fill="black"/>
<path opacity="0.2" d="M310.439 249.414C319.055 244.518 321.59 234.32 316.101 226.636C310.612 218.951 299.177 216.69 290.561 221.586C281.945 226.481 279.41 236.68 284.899 244.364C290.388 252.049 301.823 254.31 310.439 249.414Z" fill="white"/>
<g style="mix-blend-mode:multiply">
<path d="M298.718 253.262L298.534 256.413L299.266 256.447L299.451 253.296L298.718 253.262Z" fill="#C5D6E0"/>
</g>
<g style="mix-blend-mode:multiply">
<path d="M320.067 236.187L320.03 236.837L323.577 237.002L323.616 236.351L320.067 236.187Z" fill="#C5D6E0"/>
</g>
<g style="mix-blend-mode:multiply">
<path d="M276.684 234.183L276.646 234.833L280.194 234.997L280.232 234.347L276.684 234.183Z" fill="#C5D6E0"/>
</g>
<g style="mix-blend-mode:multiply">
<path d="M317.345 221.407L314.707 223.513L315.197 223.997L317.835 221.891L317.345 221.407Z" fill="#C5D6E0"/>
</g>
<g style="mix-blend-mode:multiply">
<path d="M285.067 247.195L282.429 249.308L282.92 249.792L285.558 247.678L285.067 247.195Z" fill="#C5D6E0"/>
</g>
<g style="mix-blend-mode:multiply">
<path d="M313.757 248.532L313.213 248.968L315.588 251.309L316.132 250.873L313.757 248.532Z" fill="#C5D6E0"/>
</g>
<g style="mix-blend-mode:multiply">
<path d="M284.676 219.869L284.131 220.305L286.508 222.65L287.053 222.214L284.676 219.869Z" fill="#C5D6E0"/>
</g>
<g style="mix-blend-mode:multiply">
<path d="M309.845 216.586L308.327 219.438L308.989 219.717L310.508 216.864L309.845 216.586Z" fill="#C5D6E0"/>
</g>
<g style="mix-blend-mode:multiply">
<path d="M291.295 251.507L289.779 254.355L290.442 254.633L291.957 251.785L291.295 251.507Z" fill="#C5D6E0"/>
</g>
<g style="mix-blend-mode:multiply">
<path d="M318.332 242.893L318.019 243.482L321.227 244.826L321.54 244.238L318.332 242.893Z" fill="#C5D6E0"/>
</g>
<g style="mix-blend-mode:multiply">
<path d="M279.054 226.402L278.741 226.99L281.947 228.337L282.261 227.748L279.054 226.402Z" fill="#C5D6E0"/>
</g>
<g style="mix-blend-mode:multiply">
<path d="M322.134 228.252L318.788 229.313L319.035 229.926L322.38 228.865L322.134 228.252Z" fill="#C5D6E0"/>
</g>
<g style="mix-blend-mode:multiply">
<path d="M278.133 242.939L277.887 242.325L281.23 241.264L281.476 241.874L278.133 242.939Z" fill="#C5D6E0"/>
</g>
<g style="mix-blend-mode:multiply">
<path d="M293.127 213.854L292.438 214.075L293.644 217.036L294.333 216.815L293.127 213.854Z" fill="#C5D6E0"/>
</g>
<path d="M296.176 225L296 226.917L298.824 227L299 225.083L296.176 225Z" fill="white"/>
<path d="M295.118 244L295 245.917L296.882 246L297 244.083L295.118 244Z" fill="white"/>
<path d="M300.176 244L300 246.876L302.824 247L303 244.125L300.176 244Z" fill="white"/>
<path d="M274.178 244L227.171 226.249C223.925 224.957 221.153 222.871 219.173 220.231L195 187.959L214.825 178L236.837 211.163L276 234.844L274.178 244Z" fill="#734E22"/>
<path d="M188.315 180.258L200.709 199L222 188.568L212.396 172.547L186.806 168L186.567 168.804C185.994 170.721 185.853 172.726 186.154 174.695C186.454 176.664 187.19 178.556 188.315 180.258Z" fill="#2D811F"/>
<path opacity="0.15" d="M290 239L284.621 239.904L280 240" stroke="black" stroke-width="0.67" stroke-miterlimit="10" stroke-linecap="round"/>
<path opacity="0.15" d="M280 238L285 237" stroke="black" stroke-width="0.67" stroke-miterlimit="10" stroke-linecap="round"/>
<path opacity="0.1" d="M281 242.932C281.005 243.036 281.028 243.137 281.069 243.23C281.109 243.322 281.166 243.402 281.235 243.465C281.303 243.527 281.383 243.572 281.467 243.593C281.551 243.615 281.638 243.614 281.722 243.591L285.474 244L289 242L285.427 243.534L281 242.932Z" fill="black"/>
<path d="M324.898 231.021C324.287 230.875 324.205 231.534 323.578 231.607L318.762 232.171L314.048 231.482C313.823 231.409 313.576 231.4 313.345 231.456L313.042 231.529C312.81 231.586 312.607 231.706 312.466 231.869C312.325 232.033 312.252 232.232 312.261 232.434C312.266 232.573 312.309 232.708 312.387 232.831C312.464 232.953 312.574 233.059 312.708 233.14L317.709 234.536L313.088 234.316C312.882 234.233 312.648 234.21 312.426 234.251L312.153 234.294C311.921 234.333 311.709 234.434 311.551 234.581C311.391 234.729 311.293 234.915 311.27 235.113C311.253 235.282 311.292 235.452 311.383 235.604C311.474 235.756 311.612 235.884 311.784 235.974L312.949 236.612L312.59 236.409C312.421 236.316 312.224 236.266 312.022 236.266C311.821 236.266 311.623 236.316 311.455 236.409C311.304 236.495 311.182 236.612 311.102 236.75C311.023 236.888 310.989 237.041 311.003 237.193C311.017 237.364 311.076 237.529 311.175 237.678C311.275 237.827 311.412 237.956 311.578 238.054L317.278 239.898C317.426 239.948 317.585 239.973 317.745 239.971L322.366 239.902L317.576 240.453L313.684 239.411C313.252 239.294 312.785 239.313 312.369 239.463C312.193 239.526 312.045 239.634 311.945 239.772C311.846 239.909 311.8 240.069 311.814 240.23C311.829 240.372 311.89 240.508 311.991 240.624C312.091 240.739 312.227 240.829 312.384 240.884L317.062 242.848C317.41 242.967 317.786 243.017 318.161 242.995L325.54 242.564C325.764 242.55 325.985 242.51 326.197 242.443L328.544 240.492C329.027 240.09 329.405 239.609 329.655 239.078C329.905 238.547 330.021 237.979 329.997 237.408C329.894 235.259 329.042 232.02 324.898 231.021Z" fill="#734E22"/>
<path opacity="0.15" d="M326.377 242.419L328.613 240.43C329.072 240.021 329.433 239.53 329.672 238.989C329.91 238.447 330.02 237.868 329.997 237.286C329.98 236.856 329.934 236.426 329.86 236C329.763 237.114 329.324 238.182 328.592 239.086C327.86 239.99 326.863 240.694 325.712 241.12L320.332 242.138C319.051 242.38 317.724 242.336 316.467 242.011L315 241.633L317.695 242.845C318.026 242.967 318.385 243.018 318.742 242.995L325.771 242.555C325.979 242.535 326.183 242.49 326.377 242.419Z" fill="black"/>
<path opacity="0.15" d="M313 236L318.391 236.97L323 237" stroke="black" stroke-width="0.67" stroke-miterlimit="10" stroke-linecap="round"/>
<path opacity="0.15" d="M323 235H318" stroke="black" stroke-width="0.67" stroke-miterlimit="10" stroke-linecap="round"/>
<path opacity="0.1" d="M323 240.363C322.997 240.418 322.972 240.472 322.929 240.521C322.885 240.571 322.824 240.614 322.748 240.648C322.673 240.682 322.586 240.707 322.492 240.72C322.399 240.733 322.301 240.734 322.206 240.724L318.001 241L314 240L318.074 240.754L323 240.363Z" fill="black"/>
<g opacity="0.15">
<path opacity="0.15" d="M204.555 196.833L200.813 198.613L187.602 178.508C186.342 176.587 185.756 174.375 185.92 172.157V172.125C186.099 169.708 186.94 167.366 188.37 165.303C189.799 163.24 191.774 161.518 194.123 160.287C191.959 161.489 184.136 167.003 193.461 180.156L200.413 190.628C201.129 191.704 202.257 192.517 203.591 192.919C204.925 193.32 206.377 193.282 207.683 192.813L221.012 186.357L222.273 188.406L204.555 196.833Z" fill="black"/>
<path opacity="0.2" d="M194.37 160.147L194.304 160.179L194.37 160.147Z" fill="black"/>
</g>
<path opacity="0.15" d="M275.223 245.509L284 246L276.768 244.704C275.909 244.548 275.09 244.249 274.356 243.821L266.195 239.059C264.855 238.103 263.391 237.294 261.835 236.649L227.608 222.49C225.152 221.472 223.048 219.884 221.518 217.891L204.723 196L201 197.778L217.774 220.097C219.741 222.711 222.496 224.777 225.72 226.056L267.057 241.615L275.223 245.509Z" fill="black"/>
<path opacity="0.15" d="M189.524 232.79L188.47 180.139L185.855 175C184.386 195.25 182.488 227.264 183.128 250.514L247.719 262L248 260.436L203.483 249.005C199.516 247.988 196.019 245.864 193.507 242.946C190.994 240.027 189.598 236.468 189.524 232.79Z" fill="black"/>
<path opacity="0.15" d="M266 200.321L263.047 195.749C262.089 194.273 261.511 192.617 261.359 190.906L259.943 175L257 198.295L261.172 203L266 200.321Z" fill="black"/>
<path d="M206 188L204 189.5L206 191L208 189.5L206 188Z" fill="white"/>
<path d="M209.823 101.235C207.954 89.6211 195.755 80 178.412 80C161.068 80 147 89.5031 147 101.235C147 112.966 161.068 122.469 178.412 122.469C184.256 122.469 187.3 122.26 191.986 120.386L194.411 119.51L207.408 126L204.406 113.166C206.447 111.793 208.029 109.96 208.982 107.859C209.936 105.758 210.227 103.469 209.823 101.235Z" fill="#DADDDF"/>
<path d="M182.675 92C182.915 92.0018 183.157 92.0135 183.396 92.0359C184.977 92.1662 186.779 93.3836 187 95.7329V96.5145C186.795 98.7605 184.808 101.528 178.997 105C173.202 101.528 171.205 98.756 171 96.5145V95.7329C171.221 93.388 173.034 92.1662 174.598 92.0359C174.84 92.0135 175.082 92.0018 175.325 92C177.138 92 178.002 92.6693 179.013 93.68C180.009 92.6693 180.878 92 182.701 92" fill="black"/>
<path d="M167.12 109.848C166.995 109.613 166.967 109.348 167.04 109.098C167.128 108.798 167.352 108.541 167.662 108.381C167.972 108.222 168.344 108.173 168.696 108.245L180.228 110.577L184.912 108.168C185.067 108.089 185.239 108.036 185.417 108.013C185.597 107.99 185.779 107.997 185.955 108.035C186.13 108.072 186.295 108.138 186.441 108.23C186.587 108.322 186.71 108.437 186.803 108.569C186.896 108.701 186.958 108.848 186.985 109C187.011 109.153 187.003 109.308 186.959 109.458C186.916 109.608 186.838 109.748 186.73 109.872C186.623 109.996 186.488 110.101 186.332 110.181L181.169 112.833C180.861 112.989 180.493 113.039 180.143 112.969L168.06 110.509C167.855 110.467 167.663 110.386 167.5 110.272C167.337 110.157 167.207 110.012 167.12 109.848Z" fill="#F4F4F4"/>
<path d="M164.615 112.906L169.256 110.928L178.988 112.965C179.181 113.006 179.382 113.011 179.577 112.98C179.772 112.95 179.958 112.884 180.123 112.787C180.28 112.749 180.431 112.691 180.568 112.614L187.369 108.571C187.526 108.479 187.66 108.36 187.763 108.222C187.867 108.084 187.939 107.93 187.975 107.768C188.01 107.606 188.009 107.439 187.97 107.278C187.932 107.116 187.857 106.963 187.751 106.826C187.645 106.69 187.509 106.573 187.351 106.483C187.193 106.392 187.017 106.329 186.831 106.298C186.646 106.267 186.455 106.269 186.27 106.302C186.085 106.335 185.909 106.4 185.753 106.493L179.558 109.823L171.38 107.082L177.135 107.868C177.495 107.9 177.855 107.813 178.145 107.624C178.435 107.435 178.632 107.158 178.698 106.847C178.764 106.537 178.693 106.217 178.501 105.949C178.308 105.683 178.008 105.489 177.659 105.406L169.601 103.045C169.402 102.997 169.192 102.987 168.987 103.016C168.782 103.045 168.586 103.113 168.414 103.214L164.003 105.817L161 107.069L164.615 112.906Z" fill="white"/>
<path d="M78 326L74 409" stroke="#21252B" stroke-width="0.96" stroke-miterlimit="10" stroke-linecap="round"/>
<path d="M50 362L67 380" stroke="#21252B" stroke-width="0.96" stroke-miterlimit="10" stroke-linecap="round"/>
<path d="M90 383L75 404" stroke="#21252B" stroke-width="0.96" stroke-miterlimit="10" stroke-linecap="round"/>
<path d="M97 349L76 370" stroke="#21252B" stroke-width="0.96" stroke-miterlimit="10" stroke-linecap="round"/>
<path d="M95.8454 359.84C100.987 354.558 102.546 348.335 99.3174 345.941C96.0885 343.547 89.3031 345.877 84.1559 351.159C79.0086 356.44 77.4549 362.659 80.6839 365.058C83.9128 367.456 90.6982 365.118 95.8454 359.84Z" fill="black"/>
<g opacity="0.3">
<g opacity="0.3">
<path opacity="0.3" d="M99.3963 346.484L81.0226 365.065C81.0892 365.065 81.0892 365.124 81.1559 365.124C84.3087 367.505 90.8964 365.183 95.8435 360.002C100.739 354.939 102.283 348.984 99.3963 346.484Z" fill="black"/>
</g>
</g>
<path d="M60.651 372.303C63.1863 370.526 62.0446 365.816 58.0942 361.777C54.1437 357.738 48.8908 355.883 46.3501 357.697C43.8094 359.51 44.9618 364.184 48.9069 368.223C52.8519 372.262 58.1156 374.117 60.651 372.303Z" fill="black"/>
<g opacity="0.3">
<g opacity="0.3">
<path opacity="0.3" d="M46.6217 357.978L60.4994 372.451L60.4328 372.51C58.0233 374.295 52.9941 372.451 49.1543 368.413C45.5349 364.484 44.3917 359.84 46.591 357.991" fill="black"/>
</g>
</g>
<path d="M53 386L71 398" stroke="#21252B" stroke-width="0.96" stroke-miterlimit="10" stroke-linecap="round"/>
<path d="M65.2827 394.748C67.2235 392.454 65.0902 387.8 60.5195 384.35C55.9489 380.9 50.6587 379.963 48.718 382.252C46.7772 384.541 48.9055 389.2 53.4812 392.65C58.0569 396.1 63.3369 397.037 65.2827 394.748Z" fill="black"/>
<g opacity="0.3">
<g opacity="0.3">
<path opacity="0.3" d="M48.3001 382.753L65.2179 394.422L65.1512 394.485C63.2082 396.684 57.8407 395.792 53.2165 392.519C48.7205 389.304 46.5776 384.957 48.3206 382.753" fill="black"/>
</g>
</g>
<path d="M84.9709 331.796C85.3329 324.901 82.2741 319.169 78.1502 319.004C74.0263 318.838 70.3851 324.304 70.0283 331.203C69.6716 338.103 72.7251 343.831 76.849 343.996C80.9729 344.162 84.6089 338.696 84.9657 331.796" fill="black"/>
<g opacity="0.3">
<g opacity="0.3">
<path opacity="0.3" d="M70.4972 331.415C70.8304 324.627 74.3831 319.209 78.4075 319.387L77.1361 344.1C73.1118 343.863 70.1588 338.181 70.4716 331.415" fill="black"/>
</g>
</g>
<path d="M91.2328 390.991C94.5741 386.314 94.942 381.174 92.0502 379.517C89.1585 377.861 84.1056 380.314 80.7643 385.009C77.423 389.705 77.0602 394.826 79.952 396.483C82.8437 398.139 87.8914 395.687 91.2328 390.991Z" fill="black"/>
<g opacity="0.3">
<g opacity="0.3">
<path opacity="0.3" d="M80.9534 384.907C77.6673 389.433 77.2674 394.432 79.9281 396.162L92.2011 379.485L91.4629 379.189C88.5767 378.237 84.0191 380.618 80.9329 384.907" fill="black"/>
</g>
</g>
<path d="M73 408L62 351" stroke="#21252B" stroke-width="0.96" stroke-miterlimit="10" stroke-linecap="round"/>
<path d="M63.0448 358.961C66.7467 358.453 68.8198 353.133 67.6934 347.079C66.5669 341.024 62.6534 336.531 58.9567 337.039C55.26 337.548 53.1764 342.88 54.3081 348.917C55.4399 354.953 59.3481 359.469 63.0448 358.961Z" fill="black"/>
<g opacity="0.3">
<g opacity="0.3">
<path opacity="0.3" d="M54.5997 348.629C53.5282 342.551 55.543 337.193 59.0957 336.655L63.0534 358.691C59.4956 359.287 55.6763 354.762 54.5997 348.629Z" fill="black"/>
</g>
</g>
<path d="M68.2787 429H80.7877C81.3413 429 81.8898 428.902 82.4021 428.71C82.9138 428.519 83.379 428.234 83.7705 427.879C84.1621 427.519 84.4724 427.094 84.6835 426.627C84.8941 426.16 85.002 425.656 85 425.151V410H64V425.151C64.0225 426.174 64.4826 427.15 65.2821 427.87C66.0816 428.589 67.1566 428.995 68.2787 429Z" fill="#868A91"/>
<path d="M84.8734 408.003H63.2018C63.0477 407.99 62.8931 408.017 62.7482 408.091C62.6027 408.158 62.4698 408.266 62.3566 408.407C62.244 408.548 62.1546 408.716 62.093 408.905C62.0313 409.093 62 409.295 62 409.503C62 409.705 62.0313 409.907 62.093 410.095C62.1546 410.284 62.244 410.459 62.3566 410.593C62.4698 410.734 62.6027 410.842 62.7482 410.916C62.8931 410.983 63.0477 411.01 63.2018 410.997H84.8734C85.0214 410.997 85.1684 410.963 85.3058 410.889C85.4427 410.815 85.5675 410.707 85.6726 410.566C85.7777 410.425 85.8605 410.263 85.9166 410.082C85.9732 409.893 86.0015 409.698 85.9999 409.503C85.9797 409.113 85.8545 408.75 85.6478 408.474C85.4407 408.198 85.1654 408.03 84.8734 408.003Z" fill="#868A91"/>
<path d="M85 410.079H65.4763C65.3176 410.088 65.1579 410.069 65.0076 410.023C64.8573 409.971 64.7201 409.897 64.6037 409.803C64.4873 409.705 64.3944 409.584 64.3307 409.453C64.2676 409.323 64.2347 409.183 64.2347 409.043C64.2347 408.898 64.2676 408.758 64.3307 408.628C64.3944 408.497 64.4873 408.38 64.6037 408.282C64.7201 408.184 64.8573 408.11 65.0076 408.063C65.1579 408.012 65.3176 407.993 65.4763 408.002H63.086C62.7917 408.021 62.5156 408.138 62.3142 408.329C62.1122 408.525 62 408.777 62 409.043C62 409.304 62.1122 409.561 62.3142 409.752C62.5156 409.943 62.7917 410.06 63.086 410.079H63.561V425.155C63.5589 425.659 63.669 426.163 63.884 426.629C64.0995 427.096 64.4163 427.521 64.8161 427.88C65.2159 428.235 65.6908 428.519 66.2132 428.711C66.7361 428.907 67.2961 429.005 67.8613 429H74.8285C73.3578 429.009 71.9304 428.552 70.7948 427.717C69.6592 426.881 68.8873 425.715 68.6128 424.422L65.5441 410.321H85V410.079Z" fill="#61656D"/>
<g opacity="0.1">
<g opacity="0.1">
<g opacity="0.1">
<g opacity="0.1">
<path opacity="0.1" d="M427.382 137.391H400.705V159.568H427.382V137.391Z" fill="black"/>
</g>
</g>
</g>
</g>
<path d="M569 104H362V226H569V104Z" fill="white"/>
<path d="M572 104H569V226H572V104Z" fill="#E2E2E2"/>
<path d="M564 109H368V221H564V109Z" fill="#ECECEC"/>
<path d="M372 109H368V221H372V109Z" fill="#E2E2E2"/>
<path d="M425 134H399V157H425V134Z" fill="white"/>
<path d="M421.63 145H402.37C402.272 145 402.178 145.052 402.108 145.146C402.039 145.24 402 145.367 402 145.5C402 145.566 402.009 145.631 402.027 145.692C402.045 145.753 402.072 145.809 402.107 145.855C402.141 145.902 402.182 145.939 402.228 145.964C402.273 145.988 402.321 146.001 402.37 146H421.63C421.728 146 421.823 145.947 421.892 145.853C421.961 145.76 422 145.632 422 145.5C422 145.367 421.961 145.24 421.892 145.146C421.823 145.052 421.728 145 421.63 145Z" fill="#ECECEC"/>
<path d="M421.63 148H402.37C402.272 148 402.178 148.053 402.108 148.147C402.039 148.24 402 148.368 402 148.5C402 148.566 402.01 148.631 402.028 148.692C402.047 148.752 402.074 148.808 402.108 148.853C402.143 148.9 402.183 148.937 402.229 148.962C402.273 148.987 402.321 149 402.37 149H421.63C421.679 149 421.727 148.987 421.772 148.962C421.817 148.937 421.858 148.9 421.892 148.853C421.926 148.808 421.953 148.752 421.972 148.692C421.99 148.631 422 148.566 422 148.5C422 148.368 421.961 148.24 421.892 148.147C421.823 148.053 421.728 148 421.63 148Z" fill="#ECECEC"/>
<path d="M418.64 152H404.36C404.265 152 404.173 152.053 404.106 152.147C404.038 152.24 404 152.368 404 152.5C404 152.566 404.009 152.631 404.028 152.692C404.045 152.752 404.072 152.807 404.106 152.854C404.139 152.9 404.179 152.937 404.223 152.962C404.266 152.987 404.313 153 404.36 153H418.64C418.687 153.001 418.734 152.989 418.778 152.964C418.822 152.939 418.862 152.903 418.896 152.856C418.929 152.809 418.956 152.753 418.974 152.692C418.992 152.631 419 152.566 419 152.5C419 152.368 418.962 152.24 418.894 152.147C418.827 152.053 418.735 152 418.64 152Z" fill="#ECECEC"/>
<g opacity="0.1">
<g opacity="0.1">
<g opacity="0.1">
<g opacity="0.1">
<path opacity="0.1" d="M417.779 177.999H447.868V203.039C447.868 203.039 429.571 207.683 424.285 202.944C418.999 198.204 417.779 178.022 417.779 178.022" fill="black"/>
</g>
</g>
</g>
</g>
<path d="M416 176H447V201C447 201 427.461 201 422.21 196.546C416.961 192.092 416 176 416 176Z" fill="white"/>
<path d="M442.565 184H420.43C420.315 184.002 420.206 184.056 420.126 184.15C420.045 184.244 420 184.371 420 184.503C420 184.635 420.046 184.762 420.126 184.854C420.206 184.948 420.316 185 420.43 185H442.565C442.679 185 442.788 184.948 442.871 184.855C442.953 184.762 443 184.635 443 184.503C443 184.37 442.953 184.243 442.871 184.149C442.788 184.055 442.679 184.002 442.565 184Z" fill="#ECECEC"/>
<path d="M442.565 192H420.43C420.316 192 420.206 192.052 420.126 192.145C420.046 192.239 420 192.365 420 192.497C420 192.629 420.045 192.756 420.126 192.85C420.206 192.945 420.315 192.998 420.43 193H442.565C442.679 192.998 442.788 192.945 442.871 192.851C442.953 192.757 443 192.63 443 192.497C443 192.365 442.953 192.238 442.871 192.145C442.788 192.052 442.679 192 442.565 192Z" fill="#ECECEC"/>
<path d="M439.56 196H422.435C422.32 196 422.209 196.053 422.127 196.145C422.046 196.239 422 196.365 422 196.497C422 196.629 422.046 196.757 422.127 196.851C422.209 196.945 422.319 196.999 422.435 197H439.56C439.675 196.999 439.785 196.945 439.869 196.852C439.953 196.757 440 196.63 440 196.497C440 196.365 439.953 196.238 439.869 196.145C439.785 196.052 439.675 196 439.56 196Z" fill="#ECECEC"/>
<g opacity="0.1">
<g opacity="0.1">
<path opacity="0.1" d="M523.844 167.052H492.741V194.684H523.844V167.052Z" fill="black"/>
</g>
</g>
<path d="M520 164H489V192H520V164Z" fill="white"/>
<g opacity="0.15">
<g opacity="0.15">
<path opacity="0.15" d="M506.24 168.236C506.24 168.564 506.091 168.877 505.834 169.109C505.573 169.34 505.219 169.47 504.85 169.47C504.491 169.455 504.153 169.32 503.902 169.092C503.656 168.861 503.517 168.554 503.517 168.236C503.517 168.081 503.548 167.927 503.615 167.782C503.686 167.638 503.784 167.508 503.907 167.398C504.03 167.288 504.179 167.2 504.338 167.141C504.502 167.082 504.676 167.052 504.85 167.052C505.209 167.053 505.553 167.177 505.814 167.397C506.07 167.617 506.224 167.918 506.24 168.236Z" fill="black"/>
</g>
</g>
<g opacity="0.15">
<g opacity="0.15">
<path opacity="0.15" d="M432.504 179.231C432.504 179.465 432.427 179.694 432.278 179.889C432.135 180.084 431.925 180.236 431.684 180.326C431.438 180.415 431.171 180.439 430.91 180.393C430.653 180.348 430.412 180.235 430.228 180.068C430.074 179.931 429.961 179.762 429.894 179.575C429.833 179.389 429.823 179.192 429.864 179.001C429.905 178.81 430.002 178.632 430.141 178.481C430.279 178.331 430.458 178.213 430.663 178.139C430.863 178.064 431.084 178.035 431.299 178.054C431.52 178.073 431.73 178.139 431.909 178.248C432.094 178.356 432.242 178.502 432.345 178.674C432.448 178.845 432.504 179.036 432.504 179.231Z" fill="black"/>
</g>
</g>
<g opacity="0.1">
<g opacity="0.1">
<path opacity="0.1" d="M435.918 123.746C435.918 123.746 457.317 120.236 462.705 124.975C468.093 129.715 466.17 150.613 466.17 150.613H435.923L435.918 123.746Z" fill="black"/>
</g>
</g>
<path d="M432 119.558C432 119.558 450.511 117.233 455.989 122.074C461.468 126.915 463 147 463 147H432V119.558Z" fill="#E2E2E2"/>
<g opacity="0.15">
<g opacity="0.15">
<path opacity="0.15" d="M412.388 137.154C412.39 137.302 412.351 137.448 412.274 137.579C412.196 137.711 412.083 137.822 411.944 137.905C411.806 137.987 411.646 138.037 411.48 138.051C411.314 138.064 411.147 138.041 410.994 137.982C410.874 137.937 410.766 137.87 410.676 137.787C410.586 137.703 410.518 137.604 410.476 137.495C410.43 137.386 410.409 137.27 410.414 137.154C410.419 136.93 410.522 136.717 410.703 136.561C410.883 136.404 411.126 136.318 411.378 136.321C411.639 136.32 411.89 136.408 412.081 136.566C412.271 136.724 412.387 136.941 412.404 137.172" fill="black"/>
</g>
</g>
<g opacity="0.15">
<g opacity="0.15">
<path opacity="0.15" d="M448.617 122.371C448.601 122.613 448.483 122.84 448.289 123.009C448.089 123.177 447.822 123.271 447.55 123.268C447.279 123.269 447.022 123.177 446.828 123.009C446.638 122.838 446.535 122.61 446.535 122.371C446.525 122.249 446.546 122.126 446.597 122.011C446.643 121.897 446.72 121.792 446.812 121.702C446.91 121.614 447.022 121.544 447.151 121.497C447.274 121.448 447.412 121.423 447.55 121.424C447.832 121.424 448.104 121.524 448.304 121.702C448.504 121.879 448.617 122.12 448.617 122.371Z" fill="black"/>
</g>
</g>
<path d="M456.708 127.002H439.297C439.129 126.993 438.961 127.013 438.809 127.059C438.651 127.105 438.509 127.177 438.386 127.27C438.264 127.364 438.168 127.477 438.102 127.602C438.036 127.728 438 127.863 438 128C438 128.137 438.036 128.272 438.102 128.397C438.168 128.523 438.264 128.636 438.386 128.729C438.509 128.823 438.651 128.895 438.809 128.941C438.961 128.987 439.129 129.007 439.297 128.998H456.708C456.871 129.007 457.039 128.987 457.197 128.941C457.354 128.895 457.497 128.823 457.619 128.729C457.741 128.636 457.837 128.523 457.903 128.397C457.969 128.272 458 128.137 458 128C458 127.863 457.969 127.728 457.903 127.602C457.837 127.477 457.741 127.364 457.619 127.27C457.497 127.177 457.354 127.105 457.197 127.059C457.039 127.013 456.871 126.993 456.708 127.002Z" fill="#2D811F"/>
<path d="M457.646 132H438.354C438.262 132 438.169 132.053 438.103 132.146C438.036 132.24 438 132.367 438 132.5C438 132.633 438.036 132.759 438.103 132.854C438.169 132.947 438.262 133 438.354 133H457.646C457.738 133 457.831 132.947 457.897 132.854C457.964 132.759 458 132.633 458 132.5C458 132.367 457.964 132.24 457.897 132.146C457.831 132.053 457.738 132 457.646 132Z" fill="#B1B5BA"/>
<path d="M457.626 136H438.374C438.277 135.996 438.184 136.046 438.113 136.139C438.046 136.232 438.005 136.36 438 136.497C438 136.564 438.01 136.631 438.031 136.693C438.051 136.755 438.077 136.812 438.113 136.858C438.149 136.905 438.19 136.942 438.236 136.966C438.277 136.99 438.328 137.001 438.374 137H457.626C457.672 137.001 457.723 136.99 457.764 136.966C457.81 136.942 457.851 136.905 457.887 136.858C457.923 136.812 457.949 136.755 457.969 136.693C457.99 136.631 458 136.564 458 136.497C458 136.429 457.99 136.362 457.969 136.3C457.949 136.238 457.918 136.183 457.887 136.137C457.851 136.091 457.81 136.054 457.764 136.031C457.718 136.008 457.672 135.998 457.626 136Z" fill="#B1B5BA"/>
<path d="M457.646 140H438.354C438.262 140 438.169 140.053 438.103 140.146C438.036 140.241 438 140.367 438 140.5C438 140.633 438.036 140.76 438.103 140.854C438.169 140.948 438.262 141 438.354 141H457.646C457.738 141 457.831 140.948 457.897 140.854C457.964 140.76 458 140.633 458 140.5C458 140.367 457.964 140.241 457.897 140.146C457.831 140.053 457.738 140 457.646 140Z" fill="#B1B5BA"/>
<path d="M512.631 174H493.369C493.323 173.998 493.277 174.008 493.231 174.031C493.19 174.054 493.149 174.091 493.113 174.137C493.077 174.183 493.046 174.238 493.031 174.3C493.01 174.362 493 174.429 493 174.497C493 174.564 493.01 174.631 493.031 174.693C493.046 174.755 493.077 174.812 493.113 174.858C493.144 174.905 493.184 174.942 493.231 174.966C493.277 174.99 493.323 175.001 493.369 175H512.631C512.677 175.001 512.723 174.99 512.769 174.966C512.81 174.942 512.851 174.905 512.887 174.858C512.923 174.811 512.949 174.755 512.969 174.693C512.985 174.631 512.995 174.564 513 174.497C512.995 174.429 512.985 174.363 512.964 174.302C512.949 174.24 512.918 174.186 512.887 174.139C512.851 174.093 512.81 174.057 512.764 174.033C512.723 174.009 512.677 173.998 512.631 174Z" fill="#B1B5BA"/>
<path d="M512.631 178H493.369C493.323 177.999 493.277 178.01 493.231 178.034C493.184 178.058 493.144 178.095 493.113 178.142C493.077 178.188 493.046 178.244 493.031 178.306C493.01 178.369 493 178.436 493 178.503C493 178.571 493.01 178.638 493.031 178.7C493.046 178.762 493.077 178.817 493.113 178.863C493.149 178.909 493.19 178.946 493.231 178.969C493.277 178.992 493.323 179.002 493.369 179H512.631C512.677 179.002 512.723 178.991 512.764 178.967C512.81 178.943 512.851 178.907 512.887 178.861C512.918 178.814 512.949 178.759 512.964 178.698C512.985 178.637 512.995 178.571 513 178.503C512.995 178.436 512.985 178.369 512.969 178.307C512.949 178.245 512.923 178.189 512.887 178.142C512.851 178.095 512.81 178.058 512.769 178.034C512.723 178.01 512.677 177.999 512.631 178Z" fill="#B1B5BA"/>
<path d="M510.653 182H494.347C494.257 182 494.171 182.053 494.106 182.146C494.04 182.241 494 182.367 494 182.5C494 182.633 494.04 182.76 494.106 182.854C494.171 182.948 494.257 183 494.347 183H510.653C510.748 183 510.834 182.948 510.899 182.854C510.965 182.76 511 182.633 511 182.5C511 182.367 510.965 182.241 510.899 182.146C510.834 182.053 510.748 182 510.653 182Z" fill="#B1B5BA"/>
<g opacity="0.1">
<g opacity="0.1">
<path opacity="0.1" d="M549.349 127.585H495.674V149.703H549.349V127.585Z" fill="black"/>
</g>
</g>
<path d="M547 126H493V148H547V126Z" fill="#E2E2E2"/>
<g clip-path="url(#clip0_291_260)">
<path d="M313.493 264.498L341.788 206.348C341.788 206.348 342.741 204.129 340.454 203.107L335.946 201.092L305.48 263.705L310.978 266.163C311.477 266.2 311.991 266.061 312.442 265.768C312.893 265.474 313.256 265.043 313.473 264.54" fill="#9D9D9D"/>
<path d="M271.33 248.445L307.186 264.515L337.153 201.632L300.761 185.369C300.761 185.369 298.877 184.063 297.69 186.502L269.375 244.694C269.375 244.694 268.095 247.325 271.361 248.459" fill="#9D9D9D"/>
<path d="M334.821 244.746L324.852 240.291L329.655 231.282L338.417 235.198L334.821 244.746Z" fill="#9D9D9D"/>
<path d="M326.743 258.845L345.28 220.774L347.005 221.517L328.467 259.616L326.743 258.845Z" fill="#9D9D9D"/>
<path d="M322.889 234.055C323.065 233.692 323.335 233.381 323.663 233.161C323.992 232.941 324.365 232.822 324.735 232.818C325.105 232.815 325.455 232.927 325.742 233.142C326.029 233.356 326.239 233.662 326.346 234.022C326.453 234.382 326.451 234.779 326.342 235.163C326.233 235.547 326.021 235.901 325.733 236.179C325.445 236.458 325.093 236.65 324.723 236.729C324.353 236.809 323.98 236.773 323.653 236.627C323.214 236.431 322.886 236.05 322.743 235.567C322.6 235.085 322.652 234.541 322.889 234.055Z" fill="white"/>
<path d="M299.487 187.124L270.879 245.919L305.719 261.488L334.327 202.693L299.487 187.124Z" fill="#F8F8FF"/>
<path d="M274.109 243.769C274.197 243.588 274.332 243.433 274.496 243.323C274.66 243.213 274.847 243.153 275.032 243.151C275.217 243.149 275.392 243.206 275.535 243.313C275.679 243.42 275.784 243.573 275.837 243.753C275.891 243.933 275.89 244.131 275.836 244.323C275.781 244.515 275.675 244.692 275.531 244.832C275.387 244.971 275.211 245.067 275.026 245.107C274.841 245.146 274.655 245.129 274.491 245.056C274.271 244.957 274.108 244.767 274.036 244.526C273.964 244.284 273.991 244.012 274.109 243.769Z" fill="#FA5F5D"/>
<path d="M275.632 240.639C275.72 240.457 275.855 240.302 276.019 240.192C276.184 240.082 276.37 240.022 276.555 240.02C276.74 240.019 276.915 240.075 277.059 240.182C277.202 240.289 277.307 240.442 277.361 240.622C277.414 240.802 277.413 241.001 277.359 241.193C277.304 241.385 277.198 241.562 277.054 241.701C276.91 241.84 276.734 241.936 276.549 241.976C276.364 242.016 276.178 241.998 276.014 241.925C275.905 241.876 275.809 241.805 275.731 241.714C275.653 241.623 275.595 241.514 275.559 241.395C275.524 241.276 275.512 241.147 275.525 241.017C275.537 240.888 275.574 240.759 275.632 240.639Z" fill="#FDBC4E"/>
<path d="M277.23 237.355C277.318 237.174 277.453 237.019 277.617 236.908C277.781 236.798 277.968 236.739 278.153 236.737C278.338 236.735 278.513 236.792 278.656 236.899C278.8 237.006 278.905 237.159 278.958 237.339C279.012 237.519 279.011 237.717 278.957 237.909C278.902 238.101 278.796 238.278 278.652 238.418C278.508 238.557 278.332 238.653 278.147 238.693C277.962 238.732 277.776 238.715 277.612 238.641C277.392 238.543 277.229 238.353 277.157 238.111C277.085 237.87 277.112 237.598 277.23 237.355Z" fill="#37CD58"/>
<path d="M289.501 227.282C289.711 227.393 289.862 227.592 289.92 227.836C289.979 228.079 289.94 228.348 289.813 228.584L284.333 239.846C284.05 240.427 283.431 240.838 282.999 240.645L281.451 239.953C281.019 239.76 280.94 239.051 281.228 238.459L286.697 227.219C286.796 226.97 286.981 226.762 287.211 226.639C287.442 226.517 287.699 226.49 287.927 226.565C287.927 226.565 287.948 226.574 287.958 226.579L289.501 227.282Z" fill="url(#paint0_linear_291_260)"/>
<path d="M312.994 204.78C313.106 204.84 313.202 204.923 313.278 205.026C313.354 205.129 313.409 205.249 313.438 205.379C313.468 205.509 313.472 205.647 313.45 205.785C313.428 205.922 313.381 206.057 313.312 206.181L294.681 244.471C294.395 245.059 293.758 245.453 293.303 245.249L285.631 241.821C285.176 241.617 285.083 240.893 285.368 240.309L303.996 202.023C304.05 201.892 304.128 201.771 304.223 201.666C304.319 201.561 304.432 201.475 304.555 201.412C304.677 201.35 304.808 201.312 304.939 201.301C305.071 201.291 305.2 201.307 305.319 201.35L312.994 204.78Z" fill="url(#paint1_linear_291_260)"/>
<path d="M305.97 235.571C306.081 235.621 306.179 235.694 306.258 235.787C306.338 235.88 306.397 235.99 306.433 236.112C306.469 236.234 306.481 236.365 306.468 236.497C306.454 236.629 306.417 236.761 306.357 236.883L301.239 247.401C300.951 247.993 300.305 248.379 299.843 248.172L295.649 246.297C295.19 246.092 295.089 245.359 295.371 244.779L300.457 234.326C300.509 234.2 300.583 234.084 300.675 233.984C300.767 233.884 300.876 233.802 300.993 233.743C301.111 233.683 301.237 233.648 301.362 233.639C301.488 233.629 301.611 233.646 301.725 233.688C301.725 233.688 301.756 233.702 301.773 233.71L305.97 235.571Z" fill="url(#paint2_linear_291_260)"/>
<path d="M312.658 221.827C312.768 221.875 312.866 221.947 312.945 222.038C313.025 222.13 313.085 222.238 313.121 222.359C313.158 222.479 313.171 222.609 313.159 222.74C313.147 222.871 313.11 223.002 313.052 223.123L307.926 233.657C307.636 234.252 306.993 234.634 306.531 234.428L302.336 232.553C301.877 232.348 301.78 231.607 302.059 231.035L307.151 220.57C307.256 220.32 307.448 220.113 307.684 219.995C307.92 219.878 308.181 219.859 308.409 219.943C308.426 219.95 308.444 219.958 308.461 219.966L312.658 221.827Z" fill="url(#paint3_linear_291_260)"/>
<path d="M319.531 207.701C319.76 207.823 319.923 208.04 319.985 208.307C320.047 208.573 320.002 208.866 319.86 209.122L314.774 219.575C314.661 219.851 314.454 220.081 314.198 220.216C313.941 220.352 313.655 220.382 313.401 220.3L309.21 218.427C308.982 218.292 308.823 218.063 308.767 217.788C308.711 217.513 308.762 217.214 308.91 216.955L313.994 206.505C314.05 206.372 314.129 206.249 314.226 206.143C314.324 206.037 314.439 205.95 314.564 205.887C314.689 205.825 314.822 205.787 314.955 205.777C315.088 205.767 315.219 205.784 315.34 205.828L319.531 207.701Z" fill="url(#paint4_linear_291_260)"/>
<path d="M315.048 222.896C315.107 222.966 315.148 223.052 315.168 223.146C315.188 223.24 315.185 223.341 315.162 223.439C315.15 223.462 315.139 223.485 314.99 223.446L309.373 234.991C309.395 235.29 309.104 235.587 308.918 235.495L308.783 235.434C308.593 235.35 308.605 234.937 308.683 234.683L314.3 223.138C314.358 223.056 314.437 222.992 314.526 222.954C314.615 222.917 314.709 222.907 314.797 222.928C314.818 222.937 314.835 222.945 314.914 222.835L315.048 222.896Z" fill="#E9EDFB"/>
<path d="M316.407 223.503C316.475 223.574 316.523 223.664 316.547 223.764C316.572 223.864 316.572 223.971 316.548 224.077C316.548 224.077 316.531 224.111 316.373 224.064L310.756 235.609C310.792 235.914 310.47 236.197 310.28 236.103L310.125 236.034C309.939 235.951 309.999 235.559 310.062 235.299L315.68 223.754C315.754 223.665 315.844 223.59 315.943 223.535C316.042 223.48 316.148 223.446 316.255 223.435L316.407 223.503Z" fill="#E9EDFB"/>
<path d="M317.77 224.112C317.845 224.19 317.898 224.289 317.924 224.401C317.949 224.512 317.945 224.632 317.914 224.748C317.857 224.73 317.803 224.706 317.752 224.675L312.134 236.221C312.139 236.286 312.129 236.353 312.105 236.416C312.081 236.48 312.043 236.538 311.995 236.585C311.946 236.633 311.889 236.669 311.827 236.69C311.766 236.711 311.702 236.717 311.641 236.707L311.507 236.647C311.32 236.564 311.412 236.186 311.444 235.912L317.062 224.367C317.136 224.278 317.225 224.203 317.324 224.148C317.423 224.093 317.53 224.059 317.637 224.048L317.77 224.112Z" fill="#E9EDFB"/>
<path d="M319.129 224.719C319.294 224.929 319.412 225.178 319.475 225.45L313.857 236.995C313.569 237.155 313.185 237.41 312.999 237.318L312.864 237.258C312.674 237.173 312.641 236.74 312.822 236.533L318.44 224.987C318.452 224.936 318.477 224.887 318.511 224.845C318.544 224.803 318.587 224.77 318.634 224.748C318.681 224.725 318.731 224.715 318.78 224.718C318.829 224.72 318.875 224.736 318.914 224.763C318.914 224.763 318.914 224.763 318.994 224.659L319.129 224.719Z" fill="#E9EDFB"/>
<path d="M317.371 231.733C317.54 231.808 317.561 231.971 317.455 232.189L314.869 237.503C314.765 237.717 314.528 237.997 314.359 237.922L314.235 237.866C314.066 237.79 314.079 237.41 314.183 237.197L316.771 231.878C316.793 231.833 316.822 231.792 316.858 231.757C316.894 231.723 316.936 231.695 316.98 231.676C317.024 231.657 317.071 231.647 317.117 231.647C317.163 231.646 317.208 231.655 317.248 231.673L317.371 231.733Z" fill="#E9EDFB"/>
<path d="M321.921 208.769C322.005 209.072 322.145 209.087 321.891 209.263L316.272 220.812C316.329 221.074 316.11 221.204 315.934 221.125C315.934 221.125 315.934 221.125 315.977 220.986L315.842 220.926C315.602 220.963 315.522 220.723 315.582 220.503L321.202 208.954C321.372 208.742 321.491 208.842 321.787 208.709L321.921 208.769Z" fill="#E9EDFB"/>
<path d="M323.281 209.377C323.364 209.679 323.538 209.71 323.271 209.879L317.652 221.428C317.701 221.706 317.466 221.81 317.336 221.594L317.184 221.526C316.935 221.573 316.906 221.364 316.962 221.12L322.581 209.571C322.766 209.365 322.854 209.451 323.129 209.309L323.281 209.377Z" fill="#E9EDFB"/>
<path d="M324.643 209.986C324.723 210.287 324.928 210.332 324.651 210.496L319.032 222.045C319.074 222.329 318.846 222.427 318.699 222.203L318.564 222.143C318.315 222.189 318.317 221.995 318.342 221.737L323.961 210.188C324.156 209.986 324.213 210.058 324.509 209.926L324.643 209.986Z" fill="#E9EDFB"/>
<path d="M326.002 210.593C326.086 210.896 326.318 210.953 326.376 211.267L320.756 222.816C320.45 222.953 320.198 223.031 320.058 222.81L319.923 222.75C319.872 222.769 319.819 222.769 319.772 222.752C319.725 222.734 319.686 222.699 319.663 222.654C319.64 222.608 319.633 222.553 319.643 222.498C319.654 222.444 319.681 222.393 319.721 222.353L325.341 210.804C325.391 210.538 325.572 210.666 325.868 210.533L326.002 210.593Z" fill="#E9EDFB"/>
<path d="M324.272 217.55C324.441 217.625 324.524 217.662 324.425 217.864L321.836 223.187C321.732 223.4 321.586 223.493 321.417 223.418L321.293 223.362C321.21 223.325 321.149 223.254 321.122 223.163C321.095 223.073 321.105 222.971 321.149 222.88L323.735 217.565C323.839 217.352 323.985 217.431 324.144 217.502L324.272 217.55Z" fill="#E9EDFB"/>
<path d="M308.175 237.022C308.437 236.958 308.517 237.095 308.264 237.271L302.644 248.82C302.654 248.875 302.649 248.934 302.63 248.99C302.612 249.046 302.58 249.098 302.538 249.141C302.497 249.183 302.446 249.214 302.392 249.231C302.338 249.249 302.282 249.251 302.23 249.239L302.096 249.179C302.017 249.097 301.962 248.992 301.937 248.875C301.912 248.758 301.918 248.632 301.954 248.511L307.574 236.962C307.744 236.75 307.923 236.728 308.04 236.962L308.175 237.022Z" fill="#E9EDFB"/>
<path d="M309.534 237.629C309.796 237.565 309.91 237.718 309.643 237.887L304.024 249.436C304.075 249.738 303.818 249.86 303.589 249.846L303.437 249.778C303.275 249.645 303.271 249.388 303.334 249.128L308.953 237.579C309.138 237.373 309.285 237.337 309.382 237.561L309.534 237.629Z" fill="#E9EDFB"/>
<path d="M310.896 238.238C311.155 238.172 311.3 238.339 311.023 238.504L305.404 250.053C305.449 250.356 305.197 250.476 304.952 250.455L304.817 250.395C304.655 250.262 304.681 250.018 304.714 249.744L310.333 238.195C310.528 237.994 310.645 237.944 310.762 238.178L310.896 238.238Z" fill="#E9EDFB"/>
<path d="M310.125 242.076L311.713 238.812C311.763 238.546 312.004 238.551 312.121 238.785L312.255 238.845C312.518 238.781 312.691 238.961 312.748 239.274L307.128 250.823C306.875 250.983 306.591 251.066 306.311 251.062L306.176 251.002C306.129 250.971 306.09 250.93 306.06 250.88C306.031 250.831 306.011 250.775 306.004 250.715C305.996 250.655 306 250.593 306.015 250.532C306.031 250.471 306.057 250.413 306.094 250.361L310.125 242.076Z" fill="#E9EDFB"/>
<path d="M310.828 245.179C310.997 245.255 311.028 245.399 310.914 245.632L308.128 251.358C308.016 251.587 307.833 251.757 307.664 251.681L307.54 251.626C307.458 251.567 307.402 251.477 307.384 251.371C307.366 251.265 307.386 251.151 307.441 251.052L310.228 245.325C310.248 245.281 310.275 245.24 310.309 245.206C310.343 245.171 310.382 245.144 310.424 245.124C310.466 245.104 310.511 245.094 310.555 245.092C310.6 245.09 310.643 245.098 310.683 245.115C310.683 245.115 310.683 245.115 310.707 245.125L310.828 245.179Z" fill="#E9EDFB"/>
<path d="M294.06 236.858C294.281 236.775 294.526 236.759 294.758 236.813L295.065 236.885C295.293 236.939 295.494 237.057 295.639 237.221C295.785 237.385 295.866 237.587 295.87 237.796C295.87 237.944 295.832 238.089 295.758 238.22C295.684 238.352 295.577 238.468 295.445 238.556L290.497 240.145L295.075 239.808C295.279 239.719 295.508 239.689 295.732 239.722L296.009 239.763C296.242 239.798 296.456 239.9 296.619 240.052C296.782 240.205 296.884 240.401 296.911 240.61C296.934 240.785 296.904 240.962 296.822 241.122C296.741 241.282 296.612 241.42 296.449 241.52L295.301 242.221L295.655 241.998C295.82 241.895 296.015 241.838 296.217 241.833C296.418 241.828 296.617 241.876 296.788 241.971C296.942 242.058 297.068 242.179 297.152 242.323C297.235 242.467 297.274 242.629 297.265 242.791C297.253 242.969 297.198 243.142 297.104 243.3C297.009 243.457 296.876 243.594 296.716 243.701L291.077 245.8C290.932 245.858 290.774 245.888 290.615 245.886L286.001 245.918L290.795 246.374L294.645 245.181C295.071 245.05 295.537 245.057 295.957 245.204C296.136 245.267 296.287 245.378 296.391 245.522C296.495 245.666 296.546 245.835 296.537 246.005C296.535 246.162 296.482 246.314 296.385 246.446C296.287 246.576 296.15 246.68 295.988 246.742L291.374 248.923C291.031 249.057 290.657 249.118 290.282 249.101L282.91 248.8C282.683 248.79 282.459 248.752 282.244 248.686L270.611 243.159L272.621 234.122L281.536 231.677L280.66 233.498C280.578 233.667 280.546 233.851 280.566 234.033C280.587 234.216 280.66 234.39 280.777 234.541L281.803 235.87C282.106 236.137 282.436 236.379 282.787 236.594C283.297 236.927 283.896 237.136 284.525 237.2L289.344 237.687L294.06 236.858Z" fill="#734E22"/>
</g>
<defs>
<linearGradient id="paint0_linear_291_260" x1="282.223" y1="240.298" x2="288.283" y2="226.738" gradientUnits="userSpaceOnUse">
<stop stop-color="#21252B"/>
<stop offset="1" stop-color="#B1B5BA"/>
</linearGradient>
<linearGradient id="paint1_linear_291_260" x1="289.467" y1="243.535" x2="307.82" y2="202.468" gradientUnits="userSpaceOnUse">
<stop stop-color="#6CFF27"/>
<stop offset="1" stop-color="#195155"/>
</linearGradient>
<linearGradient id="paint2_linear_291_260" x1="104.919" y1="643.528" x2="290.349" y2="228.591" gradientUnits="userSpaceOnUse">
<stop stop-color="#6CFF27"/>
<stop offset="1" stop-color="#2D811F"/>
</linearGradient>
<linearGradient id="paint3_linear_291_260" x1="304.433" y1="233.49" x2="310.147" y2="220.705" gradientUnits="userSpaceOnUse">
<stop stop-color="#6CFF27"/>
<stop offset="1" stop-color="#4EAB3F"/>
</linearGradient>
<linearGradient id="paint4_linear_291_260" x1="311.307" y1="219.364" x2="119.125" y2="649.412" gradientUnits="userSpaceOnUse">
<stop stop-color="#6CFF27"/>
<stop offset="1" stop-color="#2D811F"/>
</linearGradient>
<clipPath id="clip0_291_260">
<rect width="69.7037" height="59.6962" fill="white" transform="matrix(0.43753 -0.899204 0.912983 0.407998 268.206 247.097)"/>
</clipPath>
</defs>
</svg>
