<svg width="501" height="426" viewBox="0 0 501 426" fill="none" xmlns="http://www.w3.org/2000/svg">
<g clip-path="url(#clip0_291_120)">
<path d="M304.946 396.658L305.442 385.511C310.61 382.748 316.374 381.289 322.234 381.26C314.169 387.854 315.177 400.565 309.709 409.432C307.982 412.185 305.658 414.513 302.909 416.246C300.16 417.978 297.057 419.07 293.829 419.439L287.079 423.572C286.153 418.409 286.357 413.107 287.678 408.03C288.998 402.954 291.403 398.224 294.728 394.166C296.615 391.909 298.78 389.898 301.17 388.181C302.786 392.443 304.946 396.658 304.946 396.658Z" fill="#F2F2F2"/>
<path d="M394.434 424.774C394.434 424.917 394.406 425.059 394.352 425.191C394.297 425.323 394.217 425.444 394.116 425.545C394.014 425.646 393.894 425.726 393.762 425.781C393.63 425.835 393.488 425.863 393.345 425.863H100.257C99.9685 425.863 99.6916 425.748 99.4873 425.544C99.2831 425.34 99.1684 425.063 99.1684 424.774C99.1684 424.485 99.2831 424.208 99.4873 424.004C99.6916 423.8 99.9685 423.685 100.257 423.685H393.345C393.488 423.684 393.63 423.712 393.762 423.767C393.894 423.821 394.014 423.902 394.116 424.003C394.217 424.104 394.297 424.224 394.352 424.357C394.406 424.489 394.434 424.631 394.434 424.774Z" fill="#CCCCCC"/>
<path d="M487.377 111.317H370.5C366.888 111.313 363.425 109.877 360.871 107.323C358.317 104.769 356.881 101.306 356.877 97.6942V34.037C356.881 30.4253 358.317 26.9627 360.871 24.4089C363.425 21.8551 366.888 20.4186 370.5 20.4147H487.377C490.989 20.4186 494.452 21.8551 497.005 24.4089C499.559 26.9627 500.996 30.4253 501 34.037V97.6942C500.996 101.306 499.559 104.769 497.006 107.323C494.452 109.877 490.989 111.313 487.377 111.317Z" fill="#F2F2F2"/>
<path d="M308.939 111.317H192.061C188.449 111.313 184.987 109.877 182.433 107.323C179.879 104.769 178.442 101.306 178.438 97.6942V34.037C178.442 30.4253 179.879 26.9627 182.433 24.4089C184.987 21.8551 188.449 20.4186 192.061 20.4147H308.939C312.551 20.4186 316.013 21.8551 318.567 24.4089C321.121 26.9627 322.558 30.4253 322.562 34.037V97.6942C322.558 101.306 321.121 104.769 318.567 107.323C316.013 109.877 312.551 111.313 308.939 111.317Z" fill="#F2F2F2"/>
<path d="M130.5 111.317H13.6228C10.011 111.313 6.54833 109.877 3.99444 107.323C1.44055 104.769 0.00401912 101.306 0 97.6942V34.037C0.00405288 30.4253 1.44063 26.9627 3.99454 24.4089C6.54844 21.8551 10.0111 20.4186 13.6228 20.4147H130.5C134.112 20.4186 137.575 21.8551 140.129 24.4089C142.683 26.9627 144.119 30.4253 144.123 34.037V97.6942C144.119 101.306 142.683 104.769 140.129 107.323C137.575 109.877 134.112 111.313 130.5 111.317Z" fill="#F2F2F2"/>
<path d="M308.939 112.232H192.061C188.207 112.228 184.512 110.695 181.786 107.969C179.061 105.244 177.528 101.549 177.523 97.6941V34.037C177.528 30.1827 179.061 26.4875 181.786 23.7622C184.512 21.0368 188.207 19.5038 192.061 19.4995H308.939C312.793 19.5038 316.489 21.0368 319.214 23.7622C321.939 26.4875 323.472 30.1827 323.477 34.037V97.6941C323.473 101.549 321.94 105.244 319.214 107.969C316.489 110.695 312.793 112.228 308.939 112.232ZM192.061 21.3296C188.692 21.3334 185.462 22.6734 183.08 25.0557C180.698 27.4379 179.358 30.6679 179.354 34.037V97.6941C179.357 101.063 180.697 104.293 183.08 106.676C185.462 109.058 188.692 110.398 192.061 110.402H308.939C312.308 110.398 315.538 109.058 317.921 106.676C320.303 104.293 321.643 101.063 321.647 97.6941V34.037C321.643 30.6679 320.303 27.4379 317.92 25.0557C315.538 22.6734 312.308 21.3334 308.939 21.3296H192.061Z" fill="#4EAB3F"/>
<path d="M94.1449 22.4932H93.6724V9.53149C93.6724 7.54188 92.8821 5.63376 91.4752 4.2269C90.0683 2.82003 88.1602 2.02966 86.1706 2.02966H58.7089C57.7238 2.02965 56.7483 2.22367 55.8381 2.60066C54.9279 2.97765 54.1009 3.53021 53.4043 4.22681C52.7077 4.92341 52.1551 5.75039 51.7781 6.66055C51.4011 7.57071 51.207 8.54621 51.207 9.53136V80.6402C51.207 82.6298 51.9973 84.5379 53.4042 85.9448C54.8111 87.3516 56.7192 88.142 58.7088 88.142H86.1702C87.1554 88.142 88.1309 87.948 89.041 87.571C89.9512 87.194 90.7782 86.6414 91.4748 85.9448C92.1714 85.2482 92.724 84.4212 93.101 83.511C93.478 82.6008 93.672 81.6253 93.672 80.6402V31.7195H94.1446L94.1449 22.4932Z" fill="#E6E6E6"/>
<path d="M92.1425 9.02894V81.1423C92.1423 82.6508 91.543 84.0975 90.4764 85.1643C89.4099 86.2311 87.9633 86.8306 86.4548 86.8312H58.4297C56.9207 86.8314 55.4733 86.2322 54.406 85.1654C53.3386 84.0985 52.7388 82.6514 52.7383 81.1423V9.02894C52.7388 7.51992 53.3386 6.07286 54.4059 5.00604C55.4732 3.93922 56.9205 3.34002 58.4295 3.34021H61.8291C61.6622 3.75071 61.5987 4.19592 61.6441 4.63672C61.6895 5.07753 61.8426 5.50042 62.0897 5.86824C62.3369 6.23605 62.6706 6.53753 63.0616 6.74616C63.4525 6.9548 63.8887 7.06419 64.3319 7.06476H80.3094C80.7526 7.06419 81.1888 6.9548 81.5797 6.74616C81.9707 6.53753 82.3044 6.23605 82.5516 5.86824C82.7987 5.50042 82.9517 5.07753 82.9972 4.63672C83.0426 4.19592 82.9791 3.75071 82.8122 3.34021H86.4537C87.9622 3.34046 89.4088 3.93974 90.4756 5.00629C91.5424 6.07285 92.1419 7.51937 92.1425 9.02785V9.02894Z" fill="white"/>
<path d="M85.6367 71.3605H59.7547C58.8239 71.3595 57.9314 70.9892 57.2732 70.331C56.615 69.6728 56.2448 68.7804 56.2437 67.8495V31.4394C56.2485 27.1888 57.9392 23.1137 60.9448 20.1081C63.9504 17.1025 68.0255 15.4118 72.2761 15.407H85.6367C86.5675 15.408 87.4599 15.7783 88.1181 16.4365C88.7763 17.0947 89.1466 17.9871 89.1476 18.9179V67.8495C89.1466 68.7804 88.7764 69.6728 88.1181 70.331C87.4599 70.9892 86.5675 71.3595 85.6367 71.3605Z" fill="#F2F2F2"/>
<path d="M58.2044 80.125C59.2335 80.125 60.0677 79.2907 60.0677 78.2616C60.0677 77.2326 59.2335 76.3983 58.2044 76.3983C57.1753 76.3983 56.3411 77.2326 56.3411 78.2616C56.3411 79.2907 57.1753 80.125 58.2044 80.125Z" fill="#E6E6E6"/>
<path d="M260.406 50.7341H239.827C239.716 50.7329 239.606 50.75 239.5 50.7848C239.277 50.8538 239.082 50.9927 238.943 51.181C238.804 51.3692 238.73 51.597 238.73 51.8308V84.3412H261.506V51.8308C261.506 51.6866 261.477 51.5438 261.422 51.4105C261.366 51.2773 261.285 51.1563 261.183 51.0545C261.081 50.9526 260.96 50.8719 260.826 50.8169C260.693 50.7619 260.55 50.7338 260.406 50.7341ZM252.617 66.7737C252.618 67.301 252.444 67.8137 252.123 68.2318C251.816 68.6376 251.39 68.9369 250.904 69.0875C250.418 69.2382 249.898 69.2326 249.415 69.0716C248.933 68.9105 248.513 68.6021 248.215 68.1899C247.917 67.7776 247.756 67.2823 247.755 66.7737V63.0015C247.761 62.3606 248.02 61.748 248.475 61.2969C248.93 60.8458 249.545 60.5927 250.186 60.5927C250.827 60.5927 251.442 60.8458 251.897 61.2969C252.353 61.748 252.612 62.3606 252.617 63.0015V66.7737Z" fill="#2F2E41"/>
<path d="M238.66 83.3015V86.4365C238.66 86.5991 238.725 86.7551 238.839 86.8703C238.954 86.9855 239.11 87.0507 239.272 87.0515H260.964C261.126 87.0502 261.281 86.9848 261.396 86.8697C261.511 86.7546 261.575 86.5989 261.576 86.4365V83.3015H238.66Z" fill="#195155"/>
<path d="M294.482 0H206.518C205.762 0.000958731 205.037 0.301408 204.503 0.83554C203.968 1.36967 203.667 2.09394 203.665 2.84974V62.2091C203.666 62.9655 203.966 63.6908 204.501 64.2257C205.036 64.7606 205.761 65.0614 206.518 65.062H294.482C295.239 65.0614 295.964 64.7606 296.499 64.2257C297.034 63.6908 297.335 62.9655 297.335 62.2091V2.84974C297.333 2.09394 297.032 1.36967 296.497 0.83554C295.963 0.301409 295.238 0.000962426 294.482 0Z" fill="#195155"/>
<path d="M293.747 2.06042H207.25C206.845 2.06131 206.458 2.22267 206.172 2.50911C205.886 2.79554 205.725 3.18366 205.725 3.58832V61.4768C205.726 61.881 205.887 62.2684 206.173 62.5542C206.458 62.84 206.846 63.0009 207.25 63.0015H293.747C294.151 63.0008 294.538 62.84 294.824 62.5542C295.11 62.2684 295.271 61.881 295.272 61.4768V3.58832C295.271 3.18366 295.111 2.79554 294.825 2.50911C294.539 2.22267 294.151 2.06131 293.747 2.06042Z" fill="#4EAB3F"/>
<path d="M277.828 87.0008L277.029 83.2065C276.996 83.0517 276.924 82.9077 276.821 82.7876C276.718 82.6675 276.587 82.575 276.439 82.5186C276.332 82.4766 276.218 82.4551 276.103 82.4552H226.238C226.123 82.4551 226.009 82.4766 225.902 82.5186C225.754 82.575 225.622 82.6675 225.519 82.7876C225.416 82.9077 225.345 83.0517 225.312 83.2065L224.513 87.0008C224.484 87.1386 224.487 87.281 224.52 87.4178C224.553 87.5546 224.616 87.6823 224.705 87.7916C224.793 87.9009 224.905 87.989 225.032 88.0496C225.159 88.1103 225.298 88.1418 225.439 88.142H276.899C277.04 88.1427 277.18 88.1114 277.307 88.0505C277.434 87.9895 277.546 87.9005 277.634 87.7901C277.723 87.6812 277.787 87.5538 277.82 87.4173C277.853 87.2808 277.856 87.1385 277.828 87.0008Z" fill="#2F2E41"/>
<path d="M227.941 83.1385H226.85C226.714 83.1385 226.603 83.2491 226.603 83.3854V83.8427C226.603 83.979 226.714 84.0895 226.85 84.0895H227.941C228.078 84.0895 228.188 83.979 228.188 83.8427V83.3854C228.188 83.2491 228.078 83.1385 227.941 83.1385Z" fill="#195155"/>
<path d="M231.111 83.1385H230.02C229.884 83.1385 229.773 83.2491 229.773 83.3854V83.8427C229.773 83.979 229.884 84.0895 230.02 84.0895H231.111C231.247 84.0895 231.358 83.979 231.358 83.8427V83.3854C231.358 83.2491 231.247 83.1385 231.111 83.1385Z" fill="#195155"/>
<path d="M234.281 83.1385H233.19C233.053 83.1385 232.943 83.2491 232.943 83.3854V83.8427C232.943 83.979 233.053 84.0895 233.19 84.0895H234.281C234.417 84.0895 234.528 83.979 234.528 83.8427V83.3854C234.528 83.2491 234.417 83.1385 234.281 83.1385Z" fill="#195155"/>
<path d="M237.451 83.1385H236.36C236.223 83.1385 236.113 83.2491 236.113 83.3854V83.8427C236.113 83.979 236.223 84.0895 236.36 84.0895H237.451C237.587 84.0895 237.698 83.979 237.698 83.8427V83.3854C237.698 83.2491 237.587 83.1385 237.451 83.1385Z" fill="#195155"/>
<path d="M240.621 83.1385H239.53C239.393 83.1385 239.283 83.2491 239.283 83.3854V83.8427C239.283 83.979 239.393 84.0895 239.53 84.0895H240.621C240.757 84.0895 240.868 83.979 240.868 83.8427V83.3854C240.868 83.2491 240.757 83.1385 240.621 83.1385Z" fill="#195155"/>
<path d="M243.791 83.1385H242.699C242.563 83.1385 242.453 83.2491 242.453 83.3854V83.8427C242.453 83.979 242.563 84.0895 242.699 84.0895H243.791C243.927 84.0895 244.038 83.979 244.038 83.8427V83.3854C244.038 83.2491 243.927 83.1385 243.791 83.1385Z" fill="#195155"/>
<path d="M246.961 83.1385H245.869C245.733 83.1385 245.622 83.2491 245.622 83.3854V83.8427C245.622 83.979 245.733 84.0895 245.869 84.0895H246.961C247.097 84.0895 247.207 83.979 247.207 83.8427V83.3854C247.207 83.2491 247.097 83.1385 246.961 83.1385Z" fill="#195155"/>
<path d="M250.13 83.1385H249.039C248.903 83.1385 248.792 83.2491 248.792 83.3854V83.8427C248.792 83.979 248.903 84.0895 249.039 84.0895H250.13C250.267 84.0895 250.377 83.979 250.377 83.8427V83.3854C250.377 83.2491 250.267 83.1385 250.13 83.1385Z" fill="#195155"/>
<path d="M253.3 83.1385H252.209C252.073 83.1385 251.962 83.2491 251.962 83.3854V83.8427C251.962 83.979 252.073 84.0895 252.209 84.0895H253.3C253.437 84.0895 253.547 83.979 253.547 83.8427V83.3854C253.547 83.2491 253.437 83.1385 253.3 83.1385Z" fill="#195155"/>
<path d="M256.47 83.1385H255.379C255.243 83.1385 255.132 83.2491 255.132 83.3854V83.8427C255.132 83.979 255.243 84.0895 255.379 84.0895H256.47C256.607 84.0895 256.717 83.979 256.717 83.8427V83.3854C256.717 83.2491 256.607 83.1385 256.47 83.1385Z" fill="#195155"/>
<path d="M259.64 83.1385H258.549C258.413 83.1385 258.302 83.2491 258.302 83.3854V83.8427C258.302 83.979 258.413 84.0895 258.549 84.0895H259.64C259.776 84.0895 259.887 83.979 259.887 83.8427V83.3854C259.887 83.2491 259.776 83.1385 259.64 83.1385Z" fill="#195155"/>
<path d="M262.81 83.1385H261.719C261.582 83.1385 261.472 83.2491 261.472 83.3854V83.8427C261.472 83.979 261.582 84.0895 261.719 84.0895H262.81C262.946 84.0895 263.057 83.979 263.057 83.8427V83.3854C263.057 83.2491 262.946 83.1385 262.81 83.1385Z" fill="#195155"/>
<path d="M265.98 83.1385H264.889C264.752 83.1385 264.642 83.2491 264.642 83.3854V83.8427C264.642 83.979 264.752 84.0895 264.889 84.0895H265.98C266.116 84.0895 266.227 83.979 266.227 83.8427V83.3854C266.227 83.2491 266.116 83.1385 265.98 83.1385Z" fill="#195155"/>
<path d="M269.15 83.1385H268.059C267.922 83.1385 267.812 83.2491 267.812 83.3854V83.8427C267.812 83.979 267.922 84.0895 268.059 84.0895H269.15C269.286 84.0895 269.397 83.979 269.397 83.8427V83.3854C269.397 83.2491 269.286 83.1385 269.15 83.1385Z" fill="#195155"/>
<path d="M272.32 83.1385H271.228C271.092 83.1385 270.982 83.2491 270.982 83.3854V83.8427C270.982 83.979 271.092 84.0895 271.228 84.0895H272.32C272.456 84.0895 272.567 83.979 272.567 83.8427V83.3854C272.567 83.2491 272.456 83.1385 272.32 83.1385Z" fill="#195155"/>
<path d="M275.49 83.1385H274.398C274.262 83.1385 274.151 83.2491 274.151 83.3854V83.8427C274.151 83.979 274.262 84.0895 274.398 84.0895H275.49C275.626 84.0895 275.736 83.979 275.736 83.8427V83.3854C275.736 83.2491 275.626 83.1385 275.49 83.1385Z" fill="#195155"/>
<path d="M227.904 84.7235H226.813C226.676 84.7235 226.566 84.834 226.566 84.9704V85.4276C226.566 85.564 226.676 85.6745 226.813 85.6745H227.904C228.04 85.6745 228.151 85.564 228.151 85.4276V84.9704C228.151 84.834 228.04 84.7235 227.904 84.7235Z" fill="#195155"/>
<path d="M231.074 84.7235H229.982C229.846 84.7235 229.736 84.834 229.736 84.9704V85.4276C229.736 85.564 229.846 85.6745 229.982 85.6745H231.074C231.21 85.6745 231.321 85.564 231.321 85.4276V84.9704C231.321 84.834 231.21 84.7235 231.074 84.7235Z" fill="#195155"/>
<path d="M234.244 84.7235H233.152C233.016 84.7235 232.905 84.834 232.905 84.9704V85.4276C232.905 85.564 233.016 85.6745 233.152 85.6745H234.244C234.38 85.6745 234.49 85.564 234.49 85.4276V84.9704C234.49 84.834 234.38 84.7235 234.244 84.7235Z" fill="#195155"/>
<path d="M237.413 84.7235H236.322C236.186 84.7235 236.075 84.834 236.075 84.9704V85.4276C236.075 85.564 236.186 85.6745 236.322 85.6745H237.413C237.55 85.6745 237.66 85.564 237.66 85.4276V84.9704C237.66 84.834 237.55 84.7235 237.413 84.7235Z" fill="#195155"/>
<path d="M240.583 84.7235H239.492C239.356 84.7235 239.245 84.834 239.245 84.9704V85.4276C239.245 85.564 239.356 85.6745 239.492 85.6745H240.583C240.72 85.6745 240.83 85.564 240.83 85.4276V84.9704C240.83 84.834 240.72 84.7235 240.583 84.7235Z" fill="#195155"/>
<path d="M243.753 84.7235H242.662C242.526 84.7235 242.415 84.834 242.415 84.9704V85.4276C242.415 85.564 242.526 85.6745 242.662 85.6745H243.753C243.89 85.6745 244 85.564 244 85.4276V84.9704C244 84.834 243.89 84.7235 243.753 84.7235Z" fill="#195155"/>
<path d="M246.923 84.7235H245.832C245.696 84.7235 245.585 84.834 245.585 84.9704V85.4276C245.585 85.564 245.696 85.6745 245.832 85.6745H246.923C247.059 85.6745 247.17 85.564 247.17 85.4276V84.9704C247.17 84.834 247.059 84.7235 246.923 84.7235Z" fill="#195155"/>
<path d="M250.093 84.7235H249.002C248.865 84.7235 248.755 84.834 248.755 84.9704V85.4276C248.755 85.564 248.865 85.6745 249.002 85.6745H250.093C250.229 85.6745 250.34 85.564 250.34 85.4276V84.9704C250.34 84.834 250.229 84.7235 250.093 84.7235Z" fill="#195155"/>
<path d="M253.263 84.7235H252.172C252.035 84.7235 251.925 84.834 251.925 84.9704V85.4276C251.925 85.564 252.035 85.6745 252.172 85.6745H253.263C253.399 85.6745 253.51 85.564 253.51 85.4276V84.9704C253.51 84.834 253.399 84.7235 253.263 84.7235Z" fill="#195155"/>
<path d="M256.433 84.7235H255.342C255.205 84.7235 255.095 84.834 255.095 84.9704V85.4276C255.095 85.564 255.205 85.6745 255.342 85.6745H256.433C256.569 85.6745 256.68 85.564 256.68 85.4276V84.9704C256.68 84.834 256.569 84.7235 256.433 84.7235Z" fill="#195155"/>
<path d="M259.603 84.7235H258.511C258.375 84.7235 258.265 84.834 258.265 84.9704V85.4276C258.265 85.564 258.375 85.6745 258.511 85.6745H259.603C259.739 85.6745 259.85 85.564 259.85 85.4276V84.9704C259.85 84.834 259.739 84.7235 259.603 84.7235Z" fill="#195155"/>
<path d="M262.773 84.7235H261.681C261.545 84.7235 261.434 84.834 261.434 84.9704V85.4276C261.434 85.564 261.545 85.6745 261.681 85.6745H262.773C262.909 85.6745 263.019 85.564 263.019 85.4276V84.9704C263.019 84.834 262.909 84.7235 262.773 84.7235Z" fill="#195155"/>
<path d="M265.942 84.7235H264.851C264.715 84.7235 264.604 84.834 264.604 84.9704V85.4276C264.604 85.564 264.715 85.6745 264.851 85.6745H265.942C266.079 85.6745 266.189 85.564 266.189 85.4276V84.9704C266.189 84.834 266.079 84.7235 265.942 84.7235Z" fill="#195155"/>
<path d="M269.112 84.7235H268.021C267.885 84.7235 267.774 84.834 267.774 84.9704V85.4276C267.774 85.564 267.885 85.6745 268.021 85.6745H269.112C269.249 85.6745 269.359 85.564 269.359 85.4276V84.9704C269.359 84.834 269.249 84.7235 269.112 84.7235Z" fill="#195155"/>
<path d="M272.282 84.7235H271.191C271.055 84.7235 270.944 84.834 270.944 84.9704V85.4276C270.944 85.564 271.055 85.6745 271.191 85.6745H272.282C272.419 85.6745 272.529 85.564 272.529 85.4276V84.9704C272.529 84.834 272.419 84.7235 272.282 84.7235Z" fill="#195155"/>
<path d="M275.452 84.7235H274.361C274.225 84.7235 274.114 84.834 274.114 84.9704V85.4276C274.114 85.564 274.225 85.6745 274.361 85.6745H275.452C275.588 85.6745 275.699 85.564 275.699 85.4276V84.9704C275.699 84.834 275.588 84.7235 275.452 84.7235Z" fill="#195155"/>
<path d="M254.214 86.6254H242.028C241.892 86.6254 241.781 86.7359 241.781 86.8722V87.3295C241.781 87.4658 241.892 87.5763 242.028 87.5763H254.214C254.35 87.5763 254.461 87.4658 254.461 87.3295V86.8722C254.461 86.7359 254.35 86.6254 254.214 86.6254Z" fill="#195155"/>
<path d="M289.4 10.0348H208.466C208.381 10.033 208.301 9.99826 208.243 9.93811C208.184 9.87795 208.151 9.79713 208.151 9.71297C208.151 9.62881 208.184 9.548 208.243 9.48784C208.301 9.42768 208.381 9.39296 208.466 9.39111H289.4C289.484 9.39296 289.564 9.42768 289.623 9.48784C289.682 9.548 289.715 9.62881 289.715 9.71297C289.715 9.79713 289.682 9.87795 289.623 9.93811C289.564 9.99826 289.484 10.033 289.4 10.0348Z" fill="#195155"/>
<path d="M213.975 7.74787C215.017 7.74787 215.861 6.88456 215.861 5.81961C215.861 4.75467 215.017 3.89136 213.975 3.89136C212.933 3.89136 212.089 4.75467 212.089 5.81961C212.089 6.88456 212.933 7.74787 213.975 7.74787Z" fill="#195155"/>
<path d="M220.491 7.74787C221.533 7.74787 222.377 6.88456 222.377 5.81961C222.377 4.75467 221.533 3.89136 220.491 3.89136C219.449 3.89136 218.605 4.75467 218.605 5.81961C218.605 6.88456 219.449 7.74787 220.491 7.74787Z" fill="#195155"/>
<path d="M227.007 7.74787C228.049 7.74787 228.893 6.88456 228.893 5.81961C228.893 4.75467 228.049 3.89136 227.007 3.89136C225.965 3.89136 225.121 4.75467 225.121 5.81961C225.121 6.88456 225.965 7.74787 227.007 7.74787Z" fill="#195155"/>
<path d="M285.477 4.36816H280.849C280.757 4.37025 280.67 4.40806 280.606 4.47353C280.542 4.53899 280.506 4.6269 280.506 4.71844C280.506 4.80998 280.542 4.89788 280.606 4.96334C280.67 5.0288 280.757 5.06662 280.849 5.06871H285.477C285.569 5.06741 285.656 5.02992 285.721 4.96438C285.786 4.89883 285.822 4.81049 285.822 4.71844C285.822 4.62639 285.786 4.53804 285.721 4.47249C285.656 4.40694 285.569 4.36947 285.477 4.36816Z" fill="#195155"/>
<path d="M285.477 5.68359H280.849C280.757 5.68568 280.67 5.72351 280.606 5.78897C280.542 5.85443 280.506 5.94233 280.506 6.03387C280.506 6.1254 280.542 6.21331 280.606 6.27877C280.67 6.34423 280.757 6.38204 280.849 6.38413H285.477C285.569 6.38283 285.656 6.34535 285.721 6.27981C285.786 6.21426 285.822 6.12591 285.822 6.03387C285.822 5.94182 285.786 5.85346 285.721 5.78792C285.656 5.72237 285.569 5.6849 285.477 5.68359Z" fill="#195155"/>
<path d="M285.477 6.99915H280.849C280.757 7.00123 280.67 7.03906 280.606 7.10452C280.542 7.16998 280.506 7.25788 280.506 7.34942C280.506 7.44096 280.542 7.52886 280.606 7.59432C280.67 7.65978 280.757 7.6976 280.849 7.69969H285.477C285.569 7.69839 285.656 7.66092 285.721 7.59537C285.786 7.52982 285.822 7.44147 285.822 7.34942C285.822 7.25737 285.786 7.16902 285.721 7.10347C285.656 7.03792 285.569 7.00045 285.477 6.99915Z" fill="#195155"/>
<path d="M461.166 43.3424H400.663C399.718 43.3435 398.812 43.7195 398.143 44.3879C397.475 45.0563 397.099 45.9625 397.098 46.9078V84.5766C397.099 85.5219 397.475 86.4281 398.143 87.0965C398.812 87.7649 399.718 88.1409 400.663 88.142H461.166C462.111 88.141 463.018 87.765 463.686 87.0966C464.354 86.4282 464.73 85.5219 464.732 84.5766V46.9078C464.731 45.9625 464.355 45.0563 463.686 44.3878C463.018 43.7194 462.111 43.3435 461.166 43.3424Z" fill="#F2F2F2"/>
<path d="M461.166 43.3424H400.663C399.718 43.3435 398.812 43.7195 398.143 44.3879C397.475 45.0563 397.099 45.9625 397.098 46.9078V84.5766C397.099 85.5219 397.475 86.4281 398.143 87.0965C398.812 87.7649 399.718 88.1409 400.663 88.142H461.166C462.111 88.141 463.018 87.765 463.686 87.0966C464.354 86.4282 464.73 85.5219 464.732 84.5766V46.9078C464.731 45.9625 464.355 45.0563 463.686 44.3878C463.018 43.7194 462.111 43.3435 461.166 43.3424ZM462.336 70.4004C462.322 74.2353 460.805 77.9118 458.111 80.6412C455.417 83.3705 451.761 84.9353 447.926 84.9999C441.787 85.0798 451.323 85.111 443.919 85.111C426.988 85.111 409.333 84.9492 402.746 84.8443C401.88 84.8264 401.054 84.4704 400.446 83.8524C399.839 83.2343 399.497 82.4031 399.493 81.5363V46.9106C399.494 46.6002 399.617 46.3025 399.836 46.0827C400.055 45.863 400.353 45.739 400.663 45.7379H461.164C461.474 45.7382 461.772 45.8615 461.991 46.0807C462.211 46.2998 462.335 46.5971 462.336 46.9074L462.336 70.4004Z" fill="#E6E6E6"/>
<path d="M453.718 21.6515H407.621C407.214 21.6521 406.816 21.7785 406.483 22.0136C406.149 22.2486 405.897 22.5808 405.759 22.9648L398.64 42.9385C398.533 43.2366 398.5 43.5559 398.543 43.8695C398.586 44.1831 398.703 44.4818 398.886 44.7406C399.068 44.9994 399.309 45.2107 399.59 45.3566C399.871 45.5026 400.183 45.579 400.499 45.5795L462.323 45.6892H462.326C462.653 45.6892 462.975 45.608 463.263 45.4529C463.551 45.2978 463.796 45.0736 463.976 44.8004C464.156 44.5273 464.266 44.2137 464.295 43.8878C464.324 43.562 464.272 43.234 464.143 42.9332L464.035 42.9794L464.143 42.9332L455.536 22.8498C455.383 22.494 455.13 22.1907 454.807 21.9777C454.484 21.7646 454.105 21.6512 453.718 21.6515Z" fill="#E6E6E6"/>
<path d="M464.303 43.3671C464.303 43.6349 464.248 43.8999 464.143 44.1461L455.536 59.6058C455.383 59.9608 455.129 60.2633 454.806 60.476C454.483 60.6887 454.105 60.8023 453.718 60.8028H407.622C407.214 60.8024 406.816 60.6761 406.483 60.4412C406.149 60.2063 405.896 59.8742 405.758 59.4902L398.64 44.1408C398.553 43.8963 398.515 43.6369 398.528 43.3776C398.541 43.1183 398.605 42.8641 398.716 42.6295C398.828 42.395 398.984 42.1847 399.177 42.0106C399.369 41.8366 399.594 41.7022 399.839 41.6152C400.051 41.5388 400.274 41.4996 400.499 41.4996L408.051 41.4853L411.133 41.48L451.693 41.4088L454.777 41.4035L462.323 41.3893H462.325C462.85 41.3894 463.353 41.5978 463.724 41.9687C464.094 42.3396 464.303 42.8426 464.303 43.3671Z" fill="#E6E6E6"/>
<path d="M405.199 71.5984C406.113 71.5984 418.666 72.3655 418.666 73.2796C418.666 74.1937 406.113 74.9086 405.199 74.9086C404.76 74.9086 404.339 74.7342 404.029 74.4238C403.718 74.1134 403.544 73.6924 403.544 73.2535C403.544 72.8145 403.718 72.3935 404.029 72.0832C404.339 71.7728 404.76 71.5984 405.199 71.5984Z" fill="#E6E6E6"/>
<path d="M450.848 9.50049H411.98C410.938 9.50169 409.939 9.91601 409.203 10.6526C408.466 11.3891 408.052 12.3878 408.051 13.4294V60.8027H453.718C454.093 60.8039 454.461 60.697 454.777 60.4949V13.4294C454.775 12.3878 454.361 11.3891 453.625 10.6526C452.888 9.91603 451.889 9.5017 450.848 9.50049Z" fill="#F2F2F2"/>
<path d="M436.012 12.686H414.712C413.763 12.687 412.854 13.064 412.183 13.7346C411.512 14.4051 411.135 15.3143 411.133 16.2628V60.8027H451.693V28.3662C451.688 24.2091 450.034 20.2235 447.095 17.284C444.155 14.3444 440.17 12.6908 436.012 12.686Z" fill="white"/>
<path d="M444.783 56.847H418.043C417.928 56.8467 417.815 56.869 417.709 56.9127C417.603 56.9563 417.506 57.0205 417.425 57.1014C417.344 57.1824 417.28 57.2786 417.236 57.3845C417.192 57.4904 417.169 57.6039 417.169 57.7186C417.169 57.8332 417.192 57.9468 417.236 58.0527C417.28 58.1586 417.344 58.2547 417.425 58.3357C417.506 58.4167 417.603 58.4808 417.709 58.5245C417.815 58.5681 417.928 58.5904 418.043 58.5901H444.783C444.897 58.5904 445.011 58.5681 445.117 58.5245C445.223 58.4808 445.319 58.4167 445.4 58.3357C445.482 58.2547 445.546 58.1586 445.59 58.0527C445.634 57.9468 445.657 57.8332 445.657 57.7186C445.657 57.6039 445.634 57.4904 445.59 57.3845C445.546 57.2786 445.482 57.1824 445.4 57.1014C445.319 57.0205 445.223 56.9563 445.117 56.9127C445.011 56.869 444.897 56.8467 444.783 56.847Z" fill="#E4E4E4"/>
<path d="M444.783 53.4001H418.043C417.812 53.4008 417.591 53.493 417.428 53.6565C417.265 53.8201 417.173 54.0416 417.173 54.2726C417.173 54.5035 417.265 54.725 417.428 54.8886C417.591 55.0521 417.812 55.1443 418.043 55.145H444.783C444.897 55.1453 445.011 55.123 445.117 55.0793C445.223 55.0356 445.32 54.9714 445.401 54.8903C445.482 54.8093 445.547 54.713 445.591 54.607C445.635 54.501 445.658 54.3873 445.658 54.2726C445.658 54.1578 445.635 54.0441 445.591 53.9381C445.547 53.8321 445.482 53.7358 445.401 53.6548C445.32 53.5738 445.223 53.5095 445.117 53.4658C445.011 53.4221 444.897 53.3998 444.783 53.4001Z" fill="#E4E4E4"/>
<path d="M429.634 49.955H418.043C417.928 49.9546 417.815 49.9769 417.709 50.0206C417.603 50.0642 417.506 50.1284 417.425 50.2093C417.344 50.2903 417.28 50.3865 417.236 50.4924C417.192 50.5983 417.169 50.7118 417.169 50.8265C417.169 50.9411 417.192 51.0547 417.236 51.1606C417.28 51.2665 417.344 51.3627 417.425 51.4436C417.506 51.5246 417.603 51.5887 417.709 51.6324C417.815 51.676 417.928 51.6983 418.043 51.698H429.634C429.749 51.6983 429.863 51.676 429.969 51.6324C430.075 51.5887 430.171 51.5246 430.252 51.4436C430.333 51.3627 430.398 51.2665 430.442 51.1606C430.486 51.0547 430.508 50.9411 430.508 50.8265C430.508 50.7118 430.486 50.5983 430.442 50.4924C430.398 50.3865 430.333 50.2903 430.252 50.2093C430.171 50.1284 430.075 50.0642 429.969 50.0206C429.863 49.9769 429.749 49.9546 429.634 49.955Z" fill="#E4E4E4"/>
<path d="M444.783 42.7374H418.043C417.812 42.7381 417.591 42.8303 417.428 42.9938C417.265 43.1574 417.173 43.3789 417.173 43.6098C417.173 43.8408 417.265 44.0623 417.428 44.2259C417.591 44.3894 417.812 44.4816 418.043 44.4822H444.783C444.897 44.4826 445.011 44.4603 445.117 44.4166C445.223 44.3729 445.32 44.3086 445.401 44.2276C445.482 44.1466 445.547 44.0503 445.591 43.9443C445.635 43.8383 445.658 43.7246 445.658 43.6098C445.658 43.4951 445.635 43.3814 445.591 43.2754C445.547 43.1694 445.482 43.0731 445.401 42.9921C445.32 42.911 445.223 42.8468 445.117 42.8031C445.011 42.7594 444.897 42.7371 444.783 42.7374Z" fill="#E4E4E4"/>
<path d="M444.783 39.2922H418.043C417.928 39.2919 417.815 39.3142 417.709 39.3579C417.603 39.4015 417.506 39.4657 417.425 39.5466C417.344 39.6276 417.28 39.7238 417.236 39.8297C417.192 39.9356 417.169 40.0491 417.169 40.1638C417.169 40.2784 417.192 40.3919 417.236 40.4978C417.28 40.6037 417.344 40.6999 417.425 40.7809C417.506 40.8618 417.603 40.926 417.709 40.9696C417.815 41.0133 417.928 41.0356 418.043 41.0353H444.783C444.897 41.0356 445.011 41.0133 445.117 40.9696C445.223 40.926 445.319 40.8618 445.4 40.7809C445.482 40.6999 445.546 40.6037 445.59 40.4978C445.634 40.3919 445.657 40.2784 445.657 40.1638C445.657 40.0491 445.634 39.9356 445.59 39.8297C445.546 39.7238 445.482 39.6276 445.4 39.5466C445.319 39.4657 445.223 39.4015 445.117 39.3579C445.011 39.3142 444.897 39.2919 444.783 39.2922Z" fill="#E4E4E4"/>
<path d="M429.634 35.8452H418.043C417.812 35.8459 417.591 35.9381 417.428 36.1016C417.265 36.2651 417.173 36.4867 417.173 36.7176C417.173 36.9486 417.265 37.1701 417.428 37.3336C417.591 37.4972 417.812 37.5894 418.043 37.59H429.634C429.749 37.5904 429.863 37.568 429.969 37.5243C430.075 37.4806 430.171 37.4164 430.253 37.3354C430.334 37.2543 430.398 37.1581 430.442 37.0521C430.486 36.946 430.509 36.8324 430.509 36.7176C430.509 36.6028 430.486 36.4892 430.442 36.3832C430.398 36.2772 430.334 36.1809 430.253 36.0999C430.171 36.0188 430.075 35.9546 429.969 35.9109C429.863 35.8672 429.749 35.8449 429.634 35.8452Z" fill="#E4E4E4"/>
<path d="M444.783 28.6277H418.043C417.812 28.6277 417.59 28.7196 417.426 28.8832C417.263 29.0468 417.171 29.2687 417.171 29.5001C417.171 29.7315 417.263 29.9534 417.426 30.117C417.59 30.2806 417.812 30.3725 418.043 30.3725H444.783C445.014 30.3725 445.236 30.2806 445.4 30.117C445.563 29.9534 445.655 29.7315 445.655 29.5001C445.655 29.2687 445.563 29.0468 445.4 28.8832C445.236 28.7196 445.014 28.6277 444.783 28.6277Z" fill="#E4E4E4"/>
<path d="M444.783 25.1825H418.043C417.812 25.1825 417.59 25.2744 417.426 25.438C417.263 25.6016 417.171 25.8235 417.171 26.0549C417.171 26.2863 417.263 26.5082 417.426 26.6718C417.59 26.8354 417.812 26.9273 418.043 26.9273H444.783C445.014 26.9273 445.236 26.8354 445.4 26.6718C445.563 26.5082 445.655 26.2863 445.655 26.0549C445.655 25.8235 445.563 25.6016 445.4 25.438C445.236 25.2744 445.014 25.1825 444.783 25.1825Z" fill="#E4E4E4"/>
<path d="M429.634 21.7356H418.043C417.812 21.7363 417.591 21.8285 417.428 21.992C417.265 22.1555 417.173 22.3771 417.173 22.608C417.173 22.839 417.265 23.0605 417.428 23.224C417.591 23.3876 417.812 23.4798 418.043 23.4804H429.634C429.749 23.4807 429.863 23.4584 429.969 23.4147C430.075 23.371 430.171 23.3068 430.253 23.2258C430.334 23.1447 430.398 23.0484 430.442 22.9424C430.486 22.8364 430.509 22.7228 430.509 22.608C430.509 22.4932 430.486 22.3796 430.442 22.2736C430.398 22.1676 430.334 22.0713 430.253 21.9902C430.171 21.9092 430.075 21.845 429.969 21.8013C429.863 21.7576 429.749 21.7353 429.634 21.7356Z" fill="#E4E4E4"/>
<path d="M276.975 84.906C276.509 85.7416 276.232 86.6692 276.163 87.6235C276.094 88.5778 276.235 89.5356 276.576 90.4294C276.918 91.3232 277.451 92.1313 278.139 92.7967C278.826 93.4622 279.651 93.9688 280.555 94.2809L280.595 117.538L290.673 110.868L289.09 89.8049C289.514 88.2507 289.353 86.5952 288.637 85.152C287.922 83.7088 286.702 82.5781 285.208 81.9743C283.715 81.3705 282.052 81.3354 280.535 81.8757C279.017 82.4161 277.751 83.4943 276.975 84.906Z" fill="#A07061"/>
<path d="M207.144 408.606L214.485 411.735L230.043 384.911L219.209 380.294L207.144 408.606Z" fill="#A07061"/>
<path d="M267.802 415.553L275.78 415.552L279.577 384.776L267.801 384.777L267.802 415.553Z" fill="#A07061"/>
<path d="M267.521 423.876L292.057 423.875V423.565C292.057 421.032 291.051 418.603 289.26 416.812C287.469 415.021 285.04 414.015 282.507 414.015H282.506L278.024 410.615L269.662 414.015L267.521 414.015L267.521 423.876Z" fill="#2F2E41"/>
<path d="M202.681 413.935L225.253 423.554L225.374 423.268C226.367 420.938 226.394 418.309 225.449 415.96C224.503 413.61 222.663 411.732 220.333 410.739L220.333 410.738L217.543 405.853L208.517 405.703L206.546 404.864L202.681 413.935Z" fill="#2F2E41"/>
<path d="M275.629 233.409L287.755 307.247L284.455 318.25L288.785 326.043L282.426 394.481L285.007 400.164L277.795 404.613H263.118L262.34 342.655L258.714 333.558V328.545L251.334 290.765L250.547 337.683L248.191 342.227L227.084 397.481H210.627L211.899 387.676C208.951 386.183 216.326 381.82 217.035 378.592L214.612 373.14L217.035 362.841L222.617 334.199L216.914 300.239L218.956 278.38L217.893 270.903L217.973 268.485C217.973 268.485 220.786 267.399 218.1 264.69C214.381 243.608 218.956 239.032 218.956 239.032L237.268 228.315L275.629 233.409Z" fill="#2F2E41"/>
<path d="M246.098 136.169C255.283 136.169 262.729 128.723 262.729 119.538C262.729 110.353 255.283 102.907 246.098 102.907C236.913 102.907 229.467 110.353 229.467 119.538C229.467 128.723 236.913 136.169 246.098 136.169Z" fill="#A07061"/>
<path d="M225.247 87.635C225.325 88.5886 225.194 89.5477 224.861 90.4449C224.529 91.3421 224.004 92.1555 223.323 92.8278C222.643 93.5001 221.823 94.015 220.921 94.3362C220.02 94.6574 219.059 94.777 218.107 94.6868L208.444 115.841L202.031 105.597L212.19 87.0791C212.448 85.4891 213.28 84.0488 214.529 83.0311C215.778 82.0135 217.356 81.4893 218.966 81.5578C220.575 81.6264 222.103 82.2828 223.261 83.4029C224.419 84.5229 225.125 86.0288 225.247 87.635Z" fill="#A07061"/>
<path d="M210.711 157.33L224.573 150.708C224.716 150.64 224.848 150.55 224.964 150.443L234.641 141.467C234.929 141.2 235.305 141.051 235.697 141.048L253.088 140.918C253.33 140.916 253.57 140.971 253.788 141.077C254.005 141.183 254.196 141.338 254.344 141.531L259.636 148.411C259.825 148.657 260.082 148.841 260.376 148.94L274.799 153.84C275.122 153.95 275.4 154.161 275.592 154.443C275.784 154.725 275.879 155.062 275.862 155.402L273.271 209.007C273.26 209.245 273.302 209.482 273.396 209.701L274.635 212.592C274.762 212.886 274.795 213.213 274.731 213.527C274.666 213.841 274.506 214.127 274.274 214.348C273.906 214.695 273.493 215.098 273.226 215.392C272.69 215.985 273.834 220.628 274.005 221.305C274.019 221.362 274.03 221.42 274.038 221.478L274.678 226.279C274.716 226.561 274.676 226.849 274.562 227.11C274.449 227.372 274.266 227.598 274.034 227.763C273.858 227.889 273.709 228.051 273.598 228.237C273.487 228.424 273.416 228.631 273.389 228.846C273.363 229.062 273.381 229.28 273.443 229.488C273.504 229.696 273.609 229.889 273.749 230.055L275.152 231.712C275.346 231.941 275.47 232.221 275.51 232.519L275.846 235.04C275.88 235.289 275.853 235.543 275.768 235.779C275.683 236.016 275.542 236.229 275.358 236.4C275.173 236.571 274.951 236.695 274.708 236.761C274.466 236.828 274.211 236.835 273.965 236.783C265.251 234.903 232.819 228.921 220.923 241.043C220.698 241.276 220.407 241.434 220.089 241.495C219.77 241.557 219.441 241.518 219.146 241.385C218.85 241.251 218.604 241.03 218.439 240.751C218.275 240.472 218.201 240.149 218.227 239.826C218.313 238.517 218.479 237.215 218.722 235.926L219.883 228.573C219.91 228.403 219.909 228.229 219.879 228.059L218.817 221.973C218.761 221.655 218.609 221.362 218.38 221.133L218.024 220.777C217.878 220.631 217.762 220.458 217.683 220.268C217.605 220.077 217.564 219.873 217.564 219.667C217.564 219.461 217.605 219.257 217.683 219.066C217.762 218.876 217.878 218.703 218.024 218.557L219.412 217.169C219.583 216.998 219.712 216.79 219.789 216.561C219.867 216.332 219.89 216.088 219.858 215.848L218.013 202.197C218.01 202.17 218.005 202.142 218 202.115L209.845 159.038C209.781 158.698 209.831 158.346 209.987 158.037C210.144 157.728 210.398 157.479 210.711 157.33Z" fill="#195155"/>
<path d="M241.844 135.355C241.773 135.199 241.702 135.041 241.631 134.884C241.658 134.884 241.685 134.888 241.712 134.889L241.844 135.355Z" fill="#2F2E41"/>
<path d="M273.432 177.81L290.732 153.918L299.482 140.774L291.372 101.555L279.692 110.528L280.611 132.397L264.974 154.465L273.432 177.81Z" fill="#195155"/>
<path d="M260.577 104.573C260.328 103.192 259.772 101.884 258.949 100.747C258.535 100.254 258.021 99.8542 257.441 99.5737C256.862 99.2931 256.23 99.138 255.586 99.1185C254.943 99.0989 254.302 99.2154 253.707 99.4602C253.111 99.705 252.574 100.073 252.131 100.539C252.391 99.7833 252.466 98.9762 252.351 98.1851C251.137 98.7677 249.837 99.1541 248.502 99.33L251.453 96.2487L236.763 97.5984C235.246 97.7376 233.607 97.935 232.493 99.0868C231.38 100.239 231.318 102.697 232.726 103.339C229.953 102.295 226.768 103.811 224.939 106.35C223.11 108.89 222.436 112.24 222.312 115.489C222.152 119.703 222.937 124.19 225.51 127.292C227.191 129.321 229.485 130.586 231.346 132.411C231.365 132.429 231.384 132.447 231.402 132.466C233.441 134.557 235.996 136.071 238.81 136.855C241.623 137.638 244.593 137.664 247.419 136.928C247.737 136.841 248.052 136.744 248.369 136.653C249.952 137.37 251.923 136.391 252.923 134.799C253.988 133.101 254.199 130.929 254.244 128.86C254.303 126.154 254.136 123.447 253.745 120.769C253.305 117.753 252.908 113.891 255.296 112.376C257.156 111.197 259.467 112.36 261.339 113.515C261.519 110.513 261.262 107.501 260.577 104.573Z" fill="#2F2E41"/>
<path d="M225.114 181.563L214.032 180.764L194.8 157.217L180.524 136.754L183.812 128.435L203.502 94.9811L213.821 103.248L203.969 135.609L223.5 155.14L225.114 181.563Z" fill="#195155"/>
<path d="M320.762 36.2999C330.741 36.2999 338.83 28.2106 338.83 18.2318C338.83 8.25307 330.741 0.163696 320.762 0.163696C310.783 0.163696 302.694 8.25307 302.694 18.2318C302.694 28.2106 310.783 36.2999 320.762 36.2999Z" fill="#4EAB3F"/>
<path d="M318.297 27.6354C317.985 27.6354 317.678 27.5628 317.398 27.4232C317.119 27.2836 316.877 27.081 316.69 26.8313L311.76 20.2589C311.602 20.0477 311.486 19.8074 311.42 19.5516C311.355 19.2958 311.34 19.0295 311.377 18.768C311.414 18.5065 311.503 18.2549 311.637 18.0276C311.772 17.8003 311.95 17.6018 312.161 17.4433C312.372 17.2848 312.613 17.1695 312.869 17.1041C313.124 17.0386 313.391 17.0242 313.652 17.0617C313.914 17.0993 314.165 17.1879 314.392 17.3227C314.619 17.4575 314.818 17.6357 314.976 17.8472L318.201 22.1468L326.484 9.72283C326.63 9.50272 326.818 9.31361 327.037 9.16629C327.257 9.01898 327.503 8.91636 327.762 8.86432C328.021 8.81228 328.288 8.81183 328.547 8.86299C328.806 8.91416 329.053 9.01594 329.273 9.16251C329.493 9.30908 329.681 9.49756 329.828 9.71717C329.975 9.93678 330.077 10.1832 330.129 10.4424C330.181 10.7015 330.181 10.9683 330.129 11.2274C330.077 11.4866 329.975 11.733 329.828 11.9526L319.97 26.7404C319.791 27.0078 319.552 27.2286 319.27 27.3842C318.989 27.5398 318.675 27.6257 318.353 27.6347C318.335 27.6351 318.316 27.6354 318.297 27.6354Z" fill="white"/>
</g>
<defs>
<clipPath id="clip0_291_120">
<rect width="501" height="425.863" fill="white"/>
</clipPath>
</defs>
</svg>
