<svg width="163" height="43" viewBox="0 0 163 43" fill="none" xmlns="http://www.w3.org/2000/svg">
<path d="M68.8383 42.6C67.1583 39.64 65.7583 36.1467 64.6383 32.12C63.5449 28.12 62.9983 24.2933 62.9983 20.64C62.9983 13.6533 64.7716 6.93333 68.3183 0.479998L73.4383 2.36C71.7849 5.98667 70.5583 9.37333 69.7583 12.52C68.9583 15.6667 68.5583 18.76 68.5583 21.8C68.5583 24.8133 68.9583 27.8533 69.7583 30.92C70.5583 34.0133 71.7849 37.2667 73.4383 40.68L68.8383 42.6Z" fill="white"/>
<path d="M68.8383 42.6L66.2292 44.0808L67.5411 46.3923L69.9938 45.3685L68.8383 42.6ZM64.6383 32.12L61.7444 32.911L61.748 32.9239L64.6383 32.12ZM68.3183 0.479998L69.3523 -2.33616L66.9313 -3.22512L65.6892 -0.964924L68.3183 0.479998ZM73.4383 2.36L76.168 3.60443L77.5106 0.659448L74.4723 -0.456155L73.4383 2.36ZM69.7583 12.52L66.8508 11.7808L66.8508 11.7808L69.7583 12.52ZM69.7583 30.92L72.6627 30.1688L72.6611 30.1627L69.7583 30.92ZM73.4383 40.68L74.5938 43.4485L77.5209 42.2268L76.1382 39.3722L73.4383 40.68ZM71.4473 41.1192C69.9122 38.4144 68.5971 35.1579 67.5286 31.3161L61.748 32.9239C62.9194 37.1355 64.4044 40.8656 66.2292 44.0808L71.4473 41.1192ZM67.5321 31.329C66.4999 27.5527 65.9983 23.9929 65.9983 20.64H59.9983C59.9983 24.5937 60.59 28.6873 61.7444 32.911L67.5321 31.329ZM65.9983 20.64C65.9983 14.186 67.6304 7.96025 70.9474 1.92492L65.6892 -0.964924C61.9128 5.90641 59.9983 13.1207 59.9983 20.64H65.9983ZM67.2842 3.29615L72.4042 5.17615L74.4723 -0.456155L69.3523 -2.33616L67.2842 3.29615ZM70.7086 1.11557C68.9971 4.86984 67.7035 8.42694 66.8508 11.7808L72.6658 13.2592C73.4131 10.3197 74.5728 7.10349 76.168 3.60443L70.7086 1.11557ZM66.8508 11.7808C65.9935 15.1527 65.5583 18.4944 65.5583 21.8H71.5583C71.5583 19.0256 71.9231 16.1806 72.6658 13.2592L66.8508 11.7808ZM65.5583 21.8C65.5583 25.0817 65.9943 28.3761 66.8554 31.6773L72.6611 30.1627C71.9223 27.3305 71.5583 24.5449 71.5583 21.8H65.5583ZM66.8538 31.6711C67.7116 34.988 69.0141 38.4282 70.7383 41.9878L76.1382 39.3722C74.5558 36.1052 73.4049 33.0387 72.6627 30.1689L66.8538 31.6711ZM72.2827 37.9115L67.6827 39.8315L69.9938 45.3685L74.5938 43.4485L72.2827 37.9115Z" fill="#4EAB3F"/>
<path d="M151.398 40.68C153.052 37.2667 154.278 34.0133 155.078 30.92C155.878 27.8533 156.278 24.8133 156.278 21.8C156.278 18.76 155.878 15.6667 155.078 12.52C154.278 9.37333 153.052 5.98667 151.398 2.36L156.518 0.479998C160.065 6.93333 161.838 13.6533 161.838 20.64C161.838 24.2933 161.278 28.12 160.158 32.12C159.065 36.1467 157.678 39.64 155.998 42.6L151.398 40.68Z" fill="white"/>
<path d="M151.398 40.68L148.698 39.3722L147.316 42.2268L150.243 43.4485L151.398 40.68ZM155.078 30.92L152.175 30.1627L152.174 30.1689L155.078 30.92ZM155.078 12.52L157.986 11.7808V11.7808L155.078 12.52ZM151.398 2.36L150.364 -0.456155L147.326 0.659448L148.669 3.60443L151.398 2.36ZM156.518 0.479998L159.147 -0.964925L157.905 -3.22512L155.484 -2.33616L156.518 0.479998ZM160.158 32.12L157.269 31.3111L157.266 31.3225L157.263 31.3339L160.158 32.12ZM155.998 42.6L154.843 45.3685L157.295 46.3923L158.607 44.0808L155.998 42.6ZM154.098 41.9878C155.822 38.4282 157.125 34.988 157.983 31.6711L152.174 30.1689C151.432 33.0387 150.281 36.1052 148.698 39.3722L154.098 41.9878ZM157.981 31.6773C158.842 28.3761 159.278 25.0817 159.278 21.8H153.278C153.278 24.5449 152.914 27.3305 152.175 30.1627L157.981 31.6773ZM159.278 21.8C159.278 18.4944 158.843 15.1527 157.986 11.7808L152.171 13.2592C152.914 16.1806 153.278 19.0256 153.278 21.8H159.278ZM157.986 11.7808C157.133 8.42694 155.84 4.86984 154.128 1.11557L148.669 3.60443C150.264 7.1035 151.423 10.3197 152.171 13.2592L157.986 11.7808ZM152.432 5.17615L157.552 3.29615L155.484 -2.33616L150.364 -0.456155L152.432 5.17615ZM153.889 1.92492C157.206 7.96025 158.838 14.186 158.838 20.64H164.838C164.838 13.1207 162.924 5.90641 159.147 -0.964925L153.889 1.92492ZM158.838 20.64C158.838 23.9855 158.326 27.5391 157.269 31.3111L163.047 32.9289C164.231 28.7009 164.838 24.6012 164.838 20.64H158.838ZM157.263 31.3339C156.221 35.1703 154.921 38.4205 153.389 41.1192L158.607 44.0808C160.436 40.8595 161.908 37.1231 163.053 32.9061L157.263 31.3339ZM157.154 39.8315L152.554 37.9115L150.243 43.4485L154.843 45.3685L157.154 39.8315Z" fill="#4EAB3F"/>
<path d="M20.3866 4.72V29H14.7466L14.1866 25.92C13.6532 26.96 12.8666 27.7867 11.8266 28.4C10.7866 29.0133 9.61323 29.32 8.30656 29.32C6.22656 29.32 4.55989 28.5733 3.30656 27.08C2.07989 25.5867 1.46656 23.3467 1.46656 20.36C1.46656 18.0933 1.73323 16.2267 2.26656 14.76C2.79989 13.2933 3.42656 12.24 4.14656 11.6C4.59989 11.2 5.51989 10.8667 6.90656 10.6C8.31989 10.3333 9.57323 10.2 10.6666 10.2C11.6266 10.2 12.6132 10.2933 13.6266 10.48C13.5466 9.2 13.5066 8.49333 13.5066 8.36V5L20.3866 4.72ZM11.3066 23.96C12.0266 23.96 12.7732 23.84 13.5466 23.6V14.92C12.7732 14.8133 11.9199 14.76 10.9866 14.76C10.1866 14.76 9.67989 14.8267 9.46656 14.96C9.17323 15.1733 8.93323 15.7867 8.74656 16.8C8.58656 17.7867 8.50656 18.8267 8.50656 19.92C8.50656 21.5467 8.74656 22.6267 9.22656 23.16C9.73323 23.6933 10.4266 23.96 11.3066 23.96ZM33.6281 24.2C34.2948 24.2 35.5348 24.1333 37.3481 24C37.5881 24 38.0281 23.9733 38.6681 23.92L39.2681 28.04C37.2148 29 34.5481 29.48 31.2681 29.48C28.2015 29.48 25.8415 28.7067 24.1881 27.16C22.5615 25.6133 21.7481 23.28 21.7481 20.16C21.7481 18.56 21.9481 17.0133 22.3481 15.52C22.7748 14.0267 23.2548 12.9867 23.7881 12.4C24.3481 11.8133 25.3881 11.3067 26.9081 10.88C28.4281 10.4533 29.9348 10.24 31.4281 10.24C33.8281 10.24 35.6281 10.6667 36.8281 11.52C38.0281 12.3733 38.8148 13.56 39.1881 15.08C39.5615 16.5733 39.7481 18.5867 39.7481 21.12C37.9348 21.2267 36.1615 21.28 34.4281 21.28H28.7481C28.7481 22.1333 28.9215 22.7733 29.2681 23.2C29.6415 23.6267 30.1615 23.9067 30.8281 24.04C31.4948 24.1467 32.4281 24.2 33.6281 24.2ZM29.1481 15C28.9881 15.08 28.8681 15.4267 28.7881 16.04C28.7081 16.6533 28.6548 17.3467 28.6281 18.12H30.7081C31.9615 18.12 32.8681 18.1067 33.4281 18.08C33.4281 16.8 33.2415 15.8933 32.8681 15.36C32.5215 14.8267 31.9081 14.56 31.0281 14.56C30.3081 14.56 29.6815 14.7067 29.1481 15ZM55.8356 22.76C55.8356 25.1333 55.0756 26.84 53.5556 27.88C52.0623 28.92 49.929 29.44 47.1556 29.44C45.209 29.44 42.969 29.16 40.4356 28.6C40.489 28.0667 40.609 27.3067 40.7956 26.32C41.009 25.3067 41.1823 24.5333 41.3156 24C42.2756 24.16 43.3423 24.2933 44.5156 24.4C45.689 24.48 46.689 24.52 47.5156 24.52C48.2356 24.52 48.6756 24.48 48.8356 24.4C48.8623 24.3733 48.889 24.3067 48.9156 24.2C48.969 24.0667 48.9956 23.9333 48.9956 23.8C48.9956 23.2667 48.6623 22.9067 47.9956 22.72C47.7823 22.6667 46.969 22.44 45.5556 22.04C44.1423 21.64 42.9823 20.92 42.0756 19.88C41.1956 18.8133 40.7556 17.4933 40.7556 15.92C40.7556 15.0933 40.9423 14.1733 41.3156 13.16C41.689 12.1467 42.089 11.5067 42.5156 11.24C42.8356 11.0267 43.609 10.8133 44.8356 10.6C46.0623 10.36 47.1956 10.24 48.2356 10.24C50.449 10.24 52.6756 10.4 54.9156 10.72C54.9156 11.2 54.849 12.0133 54.7156 13.16C54.5823 14.28 54.4623 14.9867 54.3556 15.28C52.089 14.9867 50.2623 14.84 48.8756 14.84C48.1556 14.84 47.689 14.88 47.4756 14.96C47.4223 14.9867 47.369 15.0667 47.3156 15.2C47.2623 15.3067 47.2356 15.4533 47.2356 15.64C47.2356 16.0133 47.3556 16.28 47.5956 16.44C47.8356 16.6267 48.4623 16.8533 49.4756 17.12C50.6756 17.4667 51.7023 17.8267 52.5556 18.2C53.4356 18.5733 54.1956 19.1333 54.8356 19.88C55.5023 20.6267 55.8356 21.5867 55.8356 22.76ZM67.8641 29L67.2241 26.48C65.9974 28.48 64.2907 29.48 62.1041 29.48C60.3174 29.48 58.8507 28.9867 57.7041 28C56.5841 26.9867 56.0241 25.5733 56.0241 23.76C56.0241 22.64 56.3441 21.6667 56.9841 20.84C57.6507 19.9867 58.5574 19.3867 59.7041 19.04C61.1974 18.6133 63.5041 18.3733 66.6241 18.32C66.6241 16.56 66.5441 15.6267 66.3841 15.52C66.2507 15.4133 65.8241 15.36 65.1041 15.36C64.6507 15.36 64.0241 15.3867 63.2241 15.44C61.9441 15.4933 60.2107 15.64 58.0241 15.88C57.8107 14.44 57.6507 12.8933 57.5441 11.24C58.9574 10.9467 60.4374 10.7067 61.9841 10.52C63.5307 10.3067 64.9174 10.2 66.1441 10.2C68.2774 10.2 69.8774 10.56 70.9441 11.28C72.0107 11.9733 72.7041 12.8933 73.0241 14.04C73.3441 15.1867 73.4907 16.64 73.4641 18.4L73.4241 24.28L73.5441 29H67.8641ZM64.4241 25C65.1174 25 65.8507 24.8667 66.6241 24.6V21.64H66.3041C64.3307 21.64 63.2374 21.7467 63.0241 21.96C62.8907 22.0933 62.7841 22.2933 62.7041 22.56C62.6507 22.8267 62.6241 23.08 62.6241 23.32C62.6241 23.96 62.7707 24.4 63.0641 24.64C63.3574 24.88 63.8107 25 64.4241 25ZM87.9925 10.2C89.9125 10.2 91.4325 10.84 92.5525 12.12C93.6992 13.3733 94.2725 15.5733 94.2725 18.72C94.2725 21.0667 94.0458 22.9867 93.5925 24.48C93.1392 25.9467 92.6192 26.92 92.0325 27.4C91.4458 27.88 90.4192 28.2667 88.9525 28.56C87.5125 28.8533 86.0192 29 84.4725 29C84.0192 29 83.2592 28.9733 82.1925 28.92V34.6L75.3525 34.88V10.6H80.9525L81.6325 13.44C82.3258 12.4533 83.2058 11.6667 84.2725 11.08C85.3658 10.4933 86.6058 10.2 87.9925 10.2ZM86.3925 24.12C86.6858 23.9067 86.8992 23.3067 87.0325 22.32C87.1658 21.3067 87.2325 20.3467 87.2325 19.44C87.2325 17.9467 87.0458 16.84 86.6725 16.12C86.2992 15.4 85.5525 15.04 84.4325 15.04C83.6325 15.04 82.8858 15.12 82.1925 15.28V24.16L83.3125 24.28C83.6592 24.3067 84.1525 24.32 84.7925 24.32C85.6992 24.32 86.2325 24.2533 86.3925 24.12ZM106.914 24.2C107.581 24.2 108.821 24.1333 110.634 24C110.874 24 111.314 23.9733 111.954 23.92L112.554 28.04C110.501 29 107.834 29.48 104.554 29.48C101.487 29.48 99.1274 28.7067 97.4741 27.16C95.8474 25.6133 95.0341 23.28 95.0341 20.16C95.0341 18.56 95.2341 17.0133 95.6341 15.52C96.0607 14.0267 96.5407 12.9867 97.0741 12.4C97.6341 11.8133 98.6741 11.3067 100.194 10.88C101.714 10.4533 103.221 10.24 104.714 10.24C107.114 10.24 108.914 10.6667 110.114 11.52C111.314 12.3733 112.101 13.56 112.474 15.08C112.847 16.5733 113.034 18.5867 113.034 21.12C111.221 21.2267 109.447 21.28 107.714 21.28H102.034C102.034 22.1333 102.207 22.7733 102.554 23.2C102.927 23.6267 103.447 23.9067 104.114 24.04C104.781 24.1467 105.714 24.2 106.914 24.2ZM102.434 15C102.274 15.08 102.154 15.4267 102.074 16.04C101.994 16.6533 101.941 17.3467 101.914 18.12H103.994C105.247 18.12 106.154 18.1067 106.714 18.08C106.714 16.8 106.527 15.8933 106.154 15.36C105.807 14.8267 105.194 14.56 104.314 14.56C103.594 14.56 102.967 14.7067 102.434 15ZM123.842 10.28C125.095 10.28 126.402 10.3733 127.762 10.56C129.122 10.72 130.708 10.9467 132.522 11.24V27.16C132.522 30.9733 131.255 33.9333 128.722 36.04C128.402 36.3067 127.682 36.5333 126.562 36.72C125.442 36.9067 124.175 37 122.762 37C119.695 37 117.268 36.6 115.482 35.8C115.455 35.2133 115.495 34.44 115.602 33.48C115.735 32.52 115.868 31.76 116.002 31.2C117.922 31.4933 119.802 31.64 121.642 31.64C122.575 31.64 123.362 31.5867 124.002 31.48C124.668 31.4 125.082 31.2667 125.242 31.08C125.455 30.8667 125.615 30.0667 125.722 28.68C125.748 28.3067 125.762 27.76 125.762 27.04V26.04C125.095 27.0267 124.242 27.7333 123.202 28.16C122.162 28.5867 121.228 28.8 120.402 28.8C118.162 28.8 116.468 28.0667 115.322 26.6C114.175 25.1333 113.602 22.9867 113.602 20.16C113.602 18.2933 113.855 16.5467 114.362 14.92C114.895 13.2667 115.615 12.12 116.522 11.48C117.108 11.08 118.055 10.7867 119.362 10.6C120.695 10.3867 122.188 10.28 123.842 10.28ZM123.002 23.8C123.988 23.8 124.882 23.64 125.682 23.32V14.96C125.388 14.9067 124.948 14.8533 124.362 14.8C124.095 14.7733 123.695 14.76 123.162 14.76C122.335 14.76 121.815 14.84 121.602 15C121.308 15.2133 121.068 15.8133 120.882 16.8C120.722 17.76 120.642 18.7733 120.642 19.84C120.642 21.3067 120.802 22.3333 121.122 22.92C121.468 23.5067 122.095 23.8 123.002 23.8ZM145.525 29L144.885 26.48C143.658 28.48 141.952 29.48 139.765 29.48C137.978 29.48 136.512 28.9867 135.365 28C134.245 26.9867 133.685 25.5733 133.685 23.76C133.685 22.64 134.005 21.6667 134.645 20.84C135.312 19.9867 136.218 19.3867 137.365 19.04C138.858 18.6133 141.165 18.3733 144.285 18.32C144.285 16.56 144.205 15.6267 144.045 15.52C143.912 15.4133 143.485 15.36 142.765 15.36C142.312 15.36 141.685 15.3867 140.885 15.44C139.605 15.4933 137.872 15.64 135.685 15.88C135.472 14.44 135.312 12.8933 135.205 11.24C136.618 10.9467 138.098 10.7067 139.645 10.52C141.192 10.3067 142.578 10.2 143.805 10.2C145.938 10.2 147.538 10.56 148.605 11.28C149.672 11.9733 150.365 12.8933 150.685 14.04C151.005 15.1867 151.152 16.64 151.125 18.4L151.085 24.28L151.205 29H145.525ZM142.085 25C142.778 25 143.512 24.8667 144.285 24.6V21.64H143.965C141.992 21.64 140.898 21.7467 140.685 21.96C140.552 22.0933 140.445 22.2933 140.365 22.56C140.312 22.8267 140.285 23.08 140.285 23.32C140.285 23.96 140.432 24.4 140.725 24.64C141.018 24.88 141.472 25 142.085 25Z" fill="white"/>
<path d="M20.3866 4.72H23.3866V1.59542L20.2646 1.72248L20.3866 4.72ZM20.3866 29V32H23.3866V29H20.3866ZM14.7466 29L11.795 29.5367L12.2428 32H14.7466V29ZM14.1866 25.92L17.1382 25.3833L15.5552 16.6768L11.5171 24.551L14.1866 25.92ZM11.8266 28.4L13.3505 30.9841L13.3505 30.9841L11.8266 28.4ZM3.30656 27.08L0.988381 28.9842L0.998444 28.9965L1.00864 29.0086L3.30656 27.08ZM2.26656 14.76L5.08594 15.7852V15.7852L2.26656 14.76ZM4.14656 11.6L2.16168 9.35047L2.15347 9.35777L4.14656 11.6ZM6.90656 10.6L6.35033 7.652L6.34002 7.65398L6.90656 10.6ZM13.6266 10.48L13.0831 13.4304L16.8603 14.1262L16.6207 10.2929L13.6266 10.48ZM13.5066 5L13.3846 2.00248L10.5066 2.11961V5H13.5066ZM13.5466 23.6L14.4358 26.4652L16.5466 25.8101V23.6H13.5466ZM13.5466 14.92H16.5466V12.3054L13.9565 11.9481L13.5466 14.92ZM9.46656 14.96L7.87656 12.416L7.78724 12.4718L7.70205 12.5338L9.46656 14.96ZM8.74656 16.8L5.7962 16.2565L5.79038 16.2881L5.78524 16.3198L8.74656 16.8ZM9.22656 23.16L6.99668 25.1669L7.02372 25.1969L7.05156 25.2262L9.22656 23.16ZM17.3866 4.72V29H23.3866V4.72H17.3866ZM20.3866 26H14.7466V32H20.3866V26ZM17.6982 28.4633L17.1382 25.3833L11.235 26.4567L11.795 29.5367L17.6982 28.4633ZM11.5171 24.551C11.2518 25.0684 10.8705 25.481 10.3026 25.8159L13.3505 30.9841C14.8626 30.0923 16.0547 28.8516 16.856 27.2889L11.5171 24.551ZM10.3026 25.8159C9.76204 26.1347 9.12277 26.32 8.30656 26.32V32.32C10.1037 32.32 11.8111 31.892 13.3505 30.9841L10.3026 25.8159ZM8.30656 26.32C7.04556 26.32 6.24569 25.9154 5.60448 25.1514L1.00864 29.0086C2.8741 31.2313 5.40756 32.32 8.30656 32.32V26.32ZM5.62474 25.1758C5.02315 24.4434 4.46656 23.0119 4.46656 20.36H-1.53344C-1.53344 23.6814 -0.863368 26.7299 0.988381 28.9842L5.62474 25.1758ZM4.46656 20.36C4.46656 18.2989 4.71303 16.8107 5.08594 15.7852L-0.552821 13.7348C-1.24658 15.6426 -1.53344 17.8878 -1.53344 20.36H4.46656ZM5.08594 15.7852C5.5433 14.5275 5.95425 14.007 6.13965 13.8422L2.15347 9.35777C0.898868 10.473 0.0564872 12.0592 -0.552821 13.7348L5.08594 15.7852ZM6.13142 13.8495C6.02867 13.9402 5.9654 13.9705 5.98716 13.9588C6.00557 13.949 6.0704 13.917 6.1985 13.8706C6.46111 13.7754 6.87309 13.6614 7.4731 13.546L6.34002 7.65398C5.55337 7.80526 4.81201 7.99124 4.15461 8.22943C3.53246 8.45484 2.79133 8.79492 2.1617 9.35048L6.13142 13.8495ZM7.46278 13.548C8.74645 13.3058 9.80755 13.2 10.6666 13.2V7.2C9.33891 7.2 7.89333 7.36088 6.35033 7.65201L7.46278 13.548ZM10.6666 13.2C11.4315 13.2 12.236 13.2743 13.0831 13.4304L14.17 7.52964C12.9904 7.31234 11.8216 7.2 10.6666 7.2V13.2ZM16.6207 10.2929C16.5808 9.65485 16.5513 9.16503 16.5318 8.82046C16.522 8.6476 16.515 8.51688 16.5107 8.4248C16.505 8.30525 16.5066 8.30918 16.5066 8.36H10.5066C10.5066 8.616 10.5574 9.46706 10.6324 10.6671L16.6207 10.2929ZM16.5066 8.36V5H10.5066V8.36H16.5066ZM13.6286 7.99752L20.5086 7.71752L20.2646 1.72248L13.3846 2.00248L13.6286 7.99752ZM11.3066 26.96C12.363 26.96 13.4098 26.7836 14.4358 26.4652L12.6574 20.7348C12.1366 20.8964 11.6902 20.96 11.3066 20.96V26.96ZM16.5466 23.6V14.92H10.5466V23.6H16.5466ZM13.9565 11.9481C13.0241 11.8195 12.0314 11.76 10.9866 11.76V17.76C11.8084 17.76 12.5224 17.8071 13.1366 17.8919L13.9565 11.9481ZM10.9866 11.76C10.5199 11.76 10.0493 11.7785 9.6152 11.8356C9.28603 11.8789 8.55973 11.989 7.87656 12.416L11.0566 17.504C10.9084 17.5966 10.78 17.6557 10.6912 17.6918C10.6007 17.7286 10.5289 17.7507 10.4845 17.7631C10.4006 17.7864 10.3635 17.7889 10.3979 17.7844C10.4271 17.7805 10.49 17.7739 10.5944 17.7686C10.6971 17.7634 10.8268 17.76 10.9866 17.76V11.76ZM7.70205 12.5338C6.84866 13.1544 6.45483 14.0217 6.27283 14.4868C6.0558 15.0414 5.90711 15.6544 5.7962 16.2565L11.6969 17.3435C11.733 17.1477 11.7676 16.9937 11.7984 16.8761C11.8298 16.7564 11.8525 16.6932 11.8603 16.6732C11.8702 16.6479 11.8487 16.711 11.7774 16.8214C11.7104 16.9253 11.5428 17.1595 11.2311 17.3862L7.70205 12.5338ZM5.78524 16.3198C5.59723 17.4792 5.50656 18.6806 5.50656 19.92H11.5066C11.5066 18.9727 11.5759 18.0941 11.7079 17.2802L5.78524 16.3198ZM5.50656 19.92C5.50656 20.8601 5.57401 21.7729 5.758 22.6008C5.9346 23.3955 6.2725 24.3622 6.99668 25.1669L11.4564 21.1531C11.5883 21.2996 11.6417 21.4137 11.6511 21.4349C11.6606 21.4562 11.6419 21.4196 11.6151 21.2992C11.5591 21.0471 11.5066 20.6065 11.5066 19.92H5.50656ZM7.05156 25.2262C8.23441 26.4713 9.77855 26.96 11.3066 26.96V20.96C11.1682 20.96 11.1494 20.9392 11.2035 20.96C11.2303 20.9703 11.2663 20.9876 11.3057 21.0138C11.3451 21.0402 11.3776 21.0685 11.4016 21.0938L7.05156 25.2262ZM37.3481 24V21H37.238L37.1281 21.0081L37.3481 24ZM38.6681 23.92L41.6368 23.4877L41.2303 20.6961L38.419 20.9304L38.6681 23.92ZM39.2681 28.04L40.5387 30.7576L42.5581 29.8135L42.2368 27.6077L39.2681 28.04ZM24.1881 27.16L22.1209 29.3341L22.1298 29.3425L22.1387 29.3508L24.1881 27.16ZM22.3481 15.52L19.4635 14.6958L19.4567 14.7198L19.4503 14.7438L22.3481 15.52ZM23.7881 12.4L21.6181 10.3286L21.5929 10.355L21.5683 10.382L23.7881 12.4ZM26.9081 10.88L27.7189 13.7684L26.9081 10.88ZM36.8281 11.52L35.0896 13.9649V13.9649L36.8281 11.52ZM39.1881 15.08L36.2747 15.7956L36.2777 15.8076L39.1881 15.08ZM39.7481 21.12L39.9243 24.1148L42.7481 23.9487V21.12H39.7481ZM28.7481 21.28V18.28H25.7481V21.28H28.7481ZM29.2681 23.2L26.9398 25.0918L26.9743 25.1343L27.0104 25.1755L29.2681 23.2ZM30.8281 24.04L30.2398 26.9817L30.2968 26.9931L30.3541 27.0023L30.8281 24.04ZM29.1481 15L30.4898 17.6833L30.5424 17.657L30.5939 17.6286L29.1481 15ZM28.7881 16.04L31.7629 16.428V16.428L28.7881 16.04ZM28.6281 18.12L25.6299 18.0166L25.5229 21.12H28.6281V18.12ZM33.4281 18.08L33.5708 21.0766L36.4281 20.9405V18.08H33.4281ZM32.8681 15.36L30.3528 16.995L30.3809 17.0382L30.4104 17.0804L32.8681 15.36ZM33.6281 27.2C34.4205 27.2 35.7652 27.1245 37.5681 26.9919L37.1281 21.0081C35.3044 21.1422 34.1691 21.2 33.6281 21.2V27.2ZM37.3481 27C37.7299 27 38.2873 26.9621 38.9173 26.9096L38.419 20.9304C37.769 20.9845 37.4464 21 37.3481 21V27ZM35.6994 24.3523L36.2994 28.4723L42.2368 27.6077L41.6368 23.4877L35.6994 24.3523ZM37.9975 25.3224C36.4788 26.0324 34.2904 26.48 31.2681 26.48V32.48C34.8058 32.48 37.9508 31.9676 40.5387 30.7576L37.9975 25.3224ZM31.2681 26.48C28.6881 26.48 27.1628 25.8347 26.2376 24.9692L22.1387 29.3508C24.5201 31.5786 27.7148 32.48 31.2681 32.48V26.48ZM26.2553 24.9859C25.4266 24.198 24.7481 22.7869 24.7481 20.16H18.7481C18.7481 23.7731 19.6963 27.0287 22.1209 29.3341L26.2553 24.9859ZM24.7481 20.16C24.7481 18.8129 24.9161 17.5276 25.246 16.2962L19.4503 14.7438C18.9801 16.499 18.7481 18.3071 18.7481 20.16H24.7481ZM25.2327 16.3442C25.4175 15.6974 25.5947 15.2179 25.752 14.8772C25.9155 14.5228 26.0164 14.4087 26.0079 14.418L21.5683 10.382C20.5494 11.5027 19.9179 13.1055 19.4635 14.6958L25.2327 16.3442ZM25.9582 14.4714C25.9115 14.5204 25.977 14.4353 26.302 14.277C26.6141 14.1249 27.0741 13.9493 27.7189 13.7684L26.0974 7.99163C24.4655 8.44969 22.7606 9.13166 21.6181 10.3286L25.9582 14.4714ZM27.7189 13.7684C28.9901 13.4115 30.2241 13.24 31.4281 13.24V7.24C29.6455 7.24 27.8662 7.49513 26.0974 7.99163L27.7189 13.7684ZM31.4281 13.24C33.5635 13.24 34.6271 13.636 35.0896 13.9649L38.5667 9.07513C36.6291 7.69732 34.0927 7.24 31.4281 7.24V13.24ZM35.0896 13.9649C35.6644 14.3737 36.0613 14.9265 36.2747 15.7956L42.1015 14.3644C41.5683 12.1935 40.3918 10.373 38.5667 9.07513L35.0896 13.9649ZM36.2777 15.8076C36.5658 16.9599 36.7481 18.6961 36.7481 21.12H42.7481C42.7481 18.4772 42.5571 16.1868 42.0985 14.3524L36.2777 15.8076ZM39.572 18.1252C37.8145 18.2286 36.1 18.28 34.4281 18.28V24.28C36.2229 24.28 38.0551 24.2248 39.9243 24.1148L39.572 18.1252ZM34.4281 18.28H28.7481V24.28H34.4281V18.28ZM25.7481 21.28C25.7481 22.4621 25.9758 23.9053 26.9398 25.0918L31.5965 21.3082C31.7362 21.4803 31.773 21.6128 31.7738 21.6158C31.7742 21.6171 31.7673 21.592 31.7606 21.5341C31.7539 21.4764 31.7481 21.3929 31.7481 21.28H25.7481ZM27.0104 25.1755C27.9003 26.1925 29.0585 26.7455 30.2398 26.9817L31.4165 21.0983C31.3314 21.0812 31.3228 21.0683 31.3604 21.0886C31.3792 21.0987 31.4059 21.1152 31.4368 21.1397C31.4679 21.1642 31.4982 21.1929 31.5259 21.2245L27.0104 25.1755ZM30.3541 27.0023C31.2534 27.1462 32.3711 27.2 33.6281 27.2V21.2C32.4851 21.2 31.7362 21.1471 31.3021 21.0777L30.3541 27.0023ZM27.8065 12.3167C26.5806 12.9297 26.1895 14.0893 26.1032 14.3387C25.9466 14.7909 25.8644 15.2605 25.8133 15.652L31.7629 16.428C31.7919 16.2061 31.8096 16.1957 31.7731 16.3013C31.7541 16.3562 31.6897 16.5336 31.5438 16.756C31.4052 16.9671 31.0832 17.3866 30.4898 17.6833L27.8065 12.3167ZM25.8133 15.652C25.7184 16.3797 25.6591 17.1705 25.6299 18.0166L31.6263 18.2234C31.6505 17.5228 31.6978 16.927 31.7629 16.428L25.8133 15.652ZM28.6281 21.12H30.7081V15.12H28.6281V21.12ZM30.7081 21.12C31.9657 21.12 32.9339 21.1069 33.5708 21.0766L33.2854 15.0834C32.8023 15.1064 31.9572 15.12 30.7081 15.12V21.12ZM36.4281 18.08C36.4281 16.6824 36.2579 14.9711 35.3258 13.6396L30.4104 17.0804C30.2855 16.902 30.3067 16.8358 30.3498 17.045C30.3899 17.24 30.4281 17.5721 30.4281 18.08H36.4281ZM35.3835 13.725C34.285 12.0351 32.496 11.56 31.0281 11.56V17.56C31.1803 17.56 31.1217 17.585 30.9519 17.5112C30.8622 17.4722 30.7514 17.4096 30.6376 17.3147C30.5227 17.219 30.4268 17.1088 30.3528 16.995L35.3835 13.725ZM31.0281 11.56C29.8952 11.56 28.7532 11.7934 27.7024 12.3714L30.5939 17.6286C30.6097 17.62 30.7211 17.56 31.0281 17.56V11.56ZM53.5556 27.88L51.8616 25.4041L51.8513 25.4111L51.8411 25.4182L53.5556 27.88ZM40.4356 28.6L37.4505 28.3015L37.1853 30.9539L39.7881 31.5293L40.4356 28.6ZM40.7956 26.32L37.86 25.702L37.8536 25.7321L37.8479 25.7623L40.7956 26.32ZM41.3156 24L41.8088 21.0408L39.0769 20.5855L38.4052 23.2724L41.3156 24ZM44.5156 24.4L44.244 27.3877L44.2778 27.3907L44.3116 27.3931L44.5156 24.4ZM48.8356 24.4L50.1773 27.0833L50.6127 26.8656L50.9569 26.5213L48.8356 24.4ZM48.9156 24.2L46.1302 23.0858L46.0546 23.2749L46.0052 23.4724L48.9156 24.2ZM47.9956 22.72L48.8045 19.8311L48.764 19.8198L48.7232 19.8096L47.9956 22.72ZM45.5556 22.04L44.7387 24.9266L45.5556 22.04ZM42.0756 19.88L39.7615 21.7891L39.7875 21.8206L39.8143 21.8514L42.0756 19.88ZM41.3156 13.16L38.5006 12.1229V12.1229L41.3156 13.16ZM42.5156 11.24L44.1056 13.784L44.143 13.7606L44.1797 13.7362L42.5156 11.24ZM44.8356 10.6L45.3496 13.5556L45.3807 13.5502L45.4117 13.5442L44.8356 10.6ZM54.9156 10.72H57.9156V8.11811L55.3399 7.75015L54.9156 10.72ZM54.7156 13.16L57.6946 13.5146L57.6955 13.5065L54.7156 13.16ZM54.3556 15.28L53.9706 18.2552L56.3538 18.5636L57.175 16.3052L54.3556 15.28ZM47.4756 14.96L46.4223 12.151L46.2748 12.2063L46.134 12.2767L47.4756 14.96ZM47.3156 15.2L49.9989 16.5416L50.0547 16.43L50.1011 16.3142L47.3156 15.2ZM47.5956 16.44L49.4374 14.0719L49.3509 14.0047L49.2597 13.9439L47.5956 16.44ZM49.4756 17.12L50.3082 14.2379L50.2738 14.2279L50.2391 14.2188L49.4756 17.12ZM52.5556 18.2L51.3532 20.9485L51.3685 20.9552L51.384 20.9617L52.5556 18.2ZM54.8356 19.88L52.5578 21.8324L52.5776 21.8554L52.5978 21.878L54.8356 19.88ZM52.8356 22.76C52.8356 24.4621 52.3322 25.0821 51.8616 25.4041L55.2497 30.3559C57.8191 28.5979 58.8356 25.8045 58.8356 22.76H52.8356ZM51.8411 25.4182C51.0514 25.9682 49.6168 26.44 47.1556 26.44V32.44C50.2411 32.44 53.0732 31.8718 55.2701 30.3418L51.8411 25.4182ZM47.1556 26.44C45.4849 26.44 43.4694 26.1982 41.0831 25.6707L39.7881 31.5293C42.4685 32.1218 44.933 32.44 47.1556 32.44V26.44ZM43.4207 28.8985C43.4609 28.4969 43.5615 27.8387 43.7433 26.8777L37.8479 25.7623C37.6564 26.7746 37.517 27.6364 37.4505 28.3015L43.4207 28.8985ZM43.7313 26.938C43.9423 25.9354 44.1065 25.2057 44.226 24.7276L38.4052 23.2724C38.258 23.861 38.0756 24.6779 37.86 25.702L43.7313 26.938ZM40.8224 26.9592C41.8693 27.1337 43.0113 27.2756 44.244 27.3877L44.7872 21.4123C43.6733 21.3111 42.682 21.1863 41.8088 21.0408L40.8224 26.9592ZM44.3116 27.3931C45.527 27.4759 46.5992 27.52 47.5156 27.52V21.52C46.7787 21.52 45.8509 21.4841 44.7197 21.4069L44.3116 27.3931ZM47.5156 27.52C47.9176 27.52 48.3088 27.5094 48.6572 27.4777C48.8585 27.4594 49.5339 27.4049 50.1773 27.0833L47.494 21.7167C47.5832 21.6721 47.662 21.6389 47.7254 21.6145C47.7892 21.5899 47.8447 21.5716 47.889 21.5581C47.9753 21.5319 48.0406 21.5176 48.0748 21.5108C48.1108 21.5036 48.1325 21.5006 48.1357 21.5001C48.1397 21.4996 48.1331 21.5006 48.114 21.5023C48.0741 21.5059 48.0048 21.5107 47.8997 21.5143C47.7962 21.5179 47.669 21.52 47.5156 21.52V27.52ZM50.9569 26.5213C51.413 26.0652 51.6086 25.5754 51.661 25.4442C51.7437 25.2375 51.7951 25.0513 51.826 24.9276L46.0052 23.4724C46.0094 23.4554 46.0342 23.3558 46.0902 23.2158C46.1191 23.1436 46.1703 23.0251 46.2509 22.8841C46.3254 22.7537 46.4713 22.5217 46.7143 22.2787L50.9569 26.5213ZM51.701 25.3142C51.8851 24.854 51.9956 24.3435 51.9956 23.8H45.9956C45.9956 23.5231 46.0528 23.2793 46.1302 23.0858L51.701 25.3142ZM51.9956 23.8C51.9956 22.8492 51.6737 21.8768 50.9469 21.0918C50.2793 20.3707 49.4626 20.0154 48.8045 19.8311L47.1867 25.6089C47.1793 25.6068 47.106 25.586 46.9941 25.5248C46.8795 25.4622 46.7136 25.3511 46.5443 25.1682C46.1508 24.7432 45.9956 24.2174 45.9956 23.8H51.9956ZM48.7232 19.8096C48.5677 19.7707 47.8164 19.562 46.3726 19.1534L44.7387 24.9266C46.1215 25.318 46.9969 25.5626 47.268 25.6304L48.7232 19.8096ZM46.3726 19.1534C45.4814 18.9011 44.836 18.4811 44.3369 17.9086L39.8143 21.8514C41.1286 23.3589 42.8032 24.3789 44.7387 24.9266L46.3726 19.1534ZM44.3897 17.9708C44.0137 17.5151 43.7556 16.8982 43.7556 15.92H37.7556C37.7556 18.0885 38.3775 20.1116 39.7615 21.7891L44.3897 17.9708ZM43.7556 15.92C43.7556 15.5371 43.8442 14.9747 44.1306 14.1971L38.5006 12.1229C38.0404 13.372 37.7556 14.6496 37.7556 15.92H43.7556ZM44.1306 14.1971C44.1999 14.0092 44.263 13.8588 44.3181 13.7411C44.3736 13.6223 44.4154 13.5487 44.4396 13.51C44.4647 13.4698 44.46 13.4847 44.4175 13.5313C44.3754 13.5774 44.2749 13.6782 44.1056 13.784L40.9256 8.69601C40.1815 9.16107 39.6827 9.80023 39.3516 10.33C39.007 10.8813 38.7307 11.4982 38.5006 12.1229L44.1306 14.1971ZM44.1797 13.7362C44.0122 13.8478 43.9026 13.8859 43.9312 13.8747C43.9445 13.8695 44.0061 13.8471 44.1334 13.812C44.3904 13.7411 44.786 13.6537 45.3496 13.5556L44.3216 7.64436C43.6586 7.75967 43.0541 7.88559 42.5378 8.02802C42.1026 8.1481 41.4343 8.35532 40.8515 8.74385L44.1797 13.7362ZM45.4117 13.5442C46.4852 13.3341 47.423 13.24 48.2356 13.24V7.24C46.9682 7.24 45.6394 7.38586 44.2596 7.65582L45.4117 13.5442ZM48.2356 13.24C50.3039 13.24 52.3888 13.3895 54.4914 13.6898L55.3399 7.75015C52.9625 7.41052 50.594 7.24 48.2356 7.24V13.24ZM51.9156 10.72C51.9156 11.0082 51.869 11.6671 51.7357 12.8135L57.6955 13.5065C57.8289 12.3596 57.9156 11.3918 57.9156 10.72H51.9156ZM51.7367 12.8054C51.673 13.3405 51.6163 13.7429 51.568 14.0278C51.5438 14.1699 51.5249 14.2639 51.5123 14.3193C51.4966 14.3887 51.5014 14.3505 51.5362 14.2548L57.175 16.3052C57.3293 15.8809 57.4217 15.3951 57.4833 15.0322C57.5549 14.6105 57.625 14.0995 57.6946 13.5146L51.7367 12.8054ZM54.7406 12.3048C52.4167 12.0041 50.4465 11.84 48.8756 11.84V17.84C50.0781 17.84 51.7612 17.9693 53.9706 18.2552L54.7406 12.3048ZM48.8756 11.84C48.4702 11.84 48.0803 11.8509 47.7294 11.881C47.4472 11.9051 46.9336 11.9593 46.4223 12.151L48.529 17.769C48.4297 17.8062 48.3508 17.8282 48.3033 17.8402C48.2542 17.8527 48.2197 17.8592 48.2045 17.8619C48.177 17.8667 48.185 17.8639 48.2418 17.859C48.3576 17.8491 48.561 17.84 48.8756 17.84V11.84ZM46.134 12.2767C45.4373 12.6251 45.0564 13.1405 44.8995 13.3759C44.7162 13.6508 44.6002 13.9109 44.5302 14.0858L50.1011 16.3142C50.0844 16.3558 50.0217 16.5092 49.8918 16.7041C49.7882 16.8595 49.4606 17.3216 48.8172 17.6433L46.134 12.2767ZM44.6323 13.8584C44.2858 14.5515 44.2356 15.2246 44.2356 15.64H50.2356C50.2356 15.6838 50.2329 15.7853 50.2072 15.9267C50.1818 16.0664 50.1265 16.2865 49.9989 16.5416L44.6323 13.8584ZM44.2356 15.64C44.2356 16.6858 44.6149 18.0584 45.9315 18.9361L49.2597 13.9439C49.6155 14.181 49.8935 14.5158 50.0614 14.8889C50.2167 15.234 50.2356 15.5154 50.2356 15.64H44.2356ZM45.7538 18.8081C46.2756 19.2139 46.8826 19.4472 47.2252 19.5711C47.6564 19.7271 48.1617 19.8764 48.7121 20.0212L50.2391 14.2188C49.7762 14.097 49.4615 13.9996 49.266 13.9289C49.1691 13.8938 49.133 13.8766 49.1395 13.8797C49.1444 13.882 49.1726 13.8955 49.217 13.9215C49.2591 13.9461 49.3386 13.9951 49.4374 14.0719L45.7538 18.8081ZM48.643 20.0021C49.7565 20.3238 50.6526 20.642 51.3532 20.9485L53.7581 15.4515C52.7519 15.0113 51.5948 14.6095 50.3082 14.2379L48.643 20.0021ZM51.384 20.9617C51.8253 21.149 52.2102 21.4268 52.5578 21.8324L57.1134 17.9276C56.181 16.8399 55.046 15.9977 53.7273 15.4383L51.384 20.9617ZM52.5978 21.878C52.6908 21.9822 52.8356 22.1892 52.8356 22.76H58.8356C58.8356 20.9842 58.3137 19.2711 57.0734 17.882L52.5978 21.878ZM67.8641 29L64.9564 29.7385L65.5307 32H67.8641V29ZM67.2241 26.48L70.1318 25.7415L68.3824 18.8534L64.6667 24.9115L67.2241 26.48ZM57.7041 28L55.6913 30.2246L55.719 30.2497L55.7473 30.274L57.7041 28ZM56.9841 20.84L54.62 18.993L54.6119 19.0035L56.9841 20.84ZM59.7041 19.04L58.8799 16.1554L58.8578 16.1617L58.8359 16.1684L59.7041 19.04ZM66.6241 18.32L66.6753 21.3196L69.6241 21.2692V18.32H66.6241ZM66.3841 15.52L64.51 17.8626L64.6116 17.9439L64.72 18.0161L66.3841 15.52ZM63.2241 15.44L63.349 18.4374L63.3863 18.4358L63.4236 18.4334L63.2241 15.44ZM58.0241 15.88L55.0564 16.3196L55.4798 19.1773L58.3514 18.8621L58.0241 15.88ZM57.5441 11.24L56.9344 8.3026L54.3825 8.83224L54.5503 11.4331L57.5441 11.24ZM61.9841 10.52L62.3435 13.4984L62.3688 13.4953L62.394 13.4919L61.9841 10.52ZM70.9441 11.28L69.2656 13.7665L69.2872 13.7811L69.3091 13.7953L70.9441 11.28ZM73.0241 14.04L75.9137 13.2336V13.2336L73.0241 14.04ZM73.4641 18.4L70.4644 18.3545L70.4642 18.3671L70.4641 18.3796L73.4641 18.4ZM73.4241 24.28L70.4241 24.2596L70.4238 24.3079L70.425 24.3562L73.4241 24.28ZM73.5441 29V32H76.6213L76.5431 28.9238L73.5441 29ZM66.6241 24.6L67.602 27.4361L69.6241 26.7389V24.6H66.6241ZM66.6241 21.64H69.6241V18.64H66.6241V21.64ZM63.0241 21.96L60.9027 19.8387L60.9027 19.8387L63.0241 21.96ZM62.7041 22.56L59.8306 21.698L59.79 21.8332L59.7623 21.9717L62.7041 22.56ZM63.0641 24.64L61.1643 26.9619V26.9619L63.0641 24.64ZM70.7718 28.2615L70.1318 25.7415L64.3164 27.2185L64.9564 29.7385L70.7718 28.2615ZM64.6667 24.9115C63.9375 26.1004 63.1586 26.48 62.1041 26.48V32.48C65.4228 32.48 68.0572 30.8596 69.7814 28.0485L64.6667 24.9115ZM62.1041 26.48C60.8987 26.48 60.1677 26.1621 59.6608 25.726L55.7473 30.274C57.5338 31.8112 59.7361 32.48 62.1041 32.48V26.48ZM59.7168 25.7754C59.3506 25.4441 59.0241 24.9106 59.0241 23.76H53.0241C53.0241 26.2361 53.8175 28.5293 55.6913 30.2246L59.7168 25.7754ZM59.0241 23.76C59.0241 23.2542 59.1531 22.9388 59.3562 22.6765L54.6119 19.0035C53.535 20.3945 53.0241 22.0258 53.0241 23.76H59.0241ZM59.3481 22.6869C59.5935 22.3728 59.9521 22.0991 60.5722 21.9116L58.8359 16.1684C57.1627 16.6742 55.7079 17.6005 54.62 18.9931L59.3481 22.6869ZM60.5282 21.9246C61.6279 21.6104 63.6096 21.372 66.6753 21.3196L66.5728 15.3204C63.3985 15.3747 60.7668 15.6163 58.8799 16.1554L60.5282 21.9246ZM69.6241 18.32C69.6241 17.4147 69.6042 16.6398 69.5531 16.0438C69.5286 15.7577 69.4891 15.4136 69.4122 15.0804C69.3748 14.9183 69.3066 14.6597 69.1793 14.3749C69.088 14.1706 68.781 13.5124 68.0482 13.0239L64.72 18.0161C64.3435 17.7652 64.106 17.4811 63.9719 17.2934C63.8341 17.1004 63.7493 16.93 63.7013 16.8226C63.609 16.6161 63.5733 16.4617 63.5659 16.4296C63.549 16.3564 63.5595 16.3756 63.575 16.5562C63.6039 16.8935 63.6241 17.4653 63.6241 18.32H69.6241ZM68.2581 13.1774C67.7693 12.7863 67.2738 12.6284 67.0532 12.5654C66.7834 12.4883 66.5309 12.4475 66.3362 12.4232C65.9448 12.3742 65.5176 12.36 65.1041 12.36V18.36C65.4105 18.36 65.5566 18.3724 65.592 18.3768C65.6105 18.3792 65.5347 18.3717 65.4049 18.3346C65.3368 18.3151 65.2239 18.2791 65.0856 18.2166C64.9525 18.1565 64.7411 18.0475 64.51 17.8626L68.2581 13.1774ZM65.1041 12.36C64.5523 12.36 63.8489 12.3917 63.0245 12.4466L63.4236 18.4334C64.1992 18.3816 64.7492 18.36 65.1041 18.36V12.36ZM63.0992 12.4426C61.7205 12.5 59.9105 12.6549 57.6968 12.8979L58.3514 18.8621C60.511 18.6251 62.1676 18.4866 63.349 18.4374L63.0992 12.4426ZM60.9917 15.4404C60.792 14.0924 60.6399 12.6287 60.5378 11.0469L54.5503 11.4331C54.6616 13.158 54.8295 14.7876 55.0564 16.3196L60.9917 15.4404ZM58.1537 14.1774C59.4781 13.9025 60.8743 13.6757 62.3435 13.4984L61.6246 7.54161C60.0005 7.73762 58.4367 7.9908 56.9344 8.3026L58.1537 14.1774ZM62.394 13.4919C63.8395 13.2925 65.0856 13.2 66.1441 13.2V7.2C64.7492 7.2 63.222 7.32085 61.5742 7.54814L62.394 13.4919ZM66.1441 13.2C68.034 13.2 68.9241 13.536 69.2656 13.7665L72.6225 8.79345C70.8307 7.58397 68.5208 7.2 66.1441 7.2V13.2ZM69.3091 13.7953C69.8092 14.1204 70.0249 14.4538 70.1345 14.8464L75.9137 13.2336C75.3832 11.3328 74.2123 9.82628 72.579 8.76467L69.3091 13.7953ZM70.1345 14.8464C70.3497 15.6177 70.4886 16.7586 70.4644 18.3545L76.4637 18.4454C76.4929 16.5214 76.3384 14.7557 75.9137 13.2336L70.1345 14.8464ZM70.4641 18.3796L70.4241 24.2596L76.424 24.3004L76.464 18.4204L70.4641 18.3796ZM70.425 24.3562L70.545 29.0762L76.5431 28.9238L76.4231 24.2038L70.425 24.3562ZM73.5441 26H67.8641V32H73.5441V26ZM64.4241 28C65.504 28 66.5692 27.7923 67.602 27.4361L65.6461 21.7639C65.1322 21.9411 64.7308 22 64.4241 22V28ZM69.6241 24.6V21.64H63.6241V24.6H69.6241ZM66.6241 18.64H66.3041V24.64H66.6241V18.64ZM66.3041 18.64C65.2835 18.64 64.4036 18.6668 63.7128 18.7342C63.3741 18.7672 62.9966 18.8177 62.6355 18.9061C62.4473 18.9522 61.5958 19.1456 60.9027 19.8387L65.1454 24.0813C64.7956 24.4311 64.452 24.5886 64.3322 24.6402C64.184 24.7041 64.0808 24.7295 64.0627 24.7339C64.0282 24.7423 64.0874 24.7261 64.2954 24.7058C64.6978 24.6666 65.3513 24.64 66.3041 24.64V18.64ZM60.9027 19.8387C60.2906 20.4508 59.9903 21.1656 59.8306 21.698L65.5775 23.422C65.5728 23.4377 65.5496 23.5121 65.4911 23.6218C65.4324 23.732 65.3253 23.9014 65.1454 24.0813L60.9027 19.8387ZM59.7623 21.9717C59.6753 22.4069 59.6241 22.8584 59.6241 23.32H65.6241C65.6241 23.3016 65.6262 23.2464 65.6458 23.1483L59.7623 21.9717ZM59.6241 23.32C59.6241 24.2584 59.8145 25.8574 61.1643 26.9619L64.9638 22.3181C65.3451 22.6301 65.5144 22.9841 65.5801 23.1813C65.6393 23.3588 65.6241 23.4309 65.6241 23.32H59.6241ZM61.1643 26.9619C62.2372 27.8397 63.517 28 64.4241 28V22C64.3018 22 64.3047 21.9869 64.3917 22.0099C64.4836 22.0342 64.7098 22.1103 64.9638 22.3181L61.1643 26.9619ZM92.5525 12.12L90.2948 14.0955L90.3167 14.1205L90.3391 14.145L92.5525 12.12ZM93.5925 24.48L96.4587 25.3659L96.4609 25.3587L96.4631 25.3514L93.5925 24.48ZM92.0325 27.4L93.9322 29.7219L93.9322 29.7219L92.0325 27.4ZM88.9525 28.56L88.3641 25.6182L88.3537 25.6204L88.9525 28.56ZM82.1925 28.92L82.3423 25.9237L79.1925 25.7663V28.92H82.1925ZM82.1925 34.6L82.3152 37.5975L85.1925 37.4797V34.6H82.1925ZM75.3525 34.88H72.3525V38.0053L75.4752 37.8775L75.3525 34.88ZM75.3525 10.6V7.6H72.3525V10.6H75.3525ZM80.9525 10.6L83.87 9.90143L83.319 7.6H80.9525V10.6ZM81.6325 13.44L78.715 14.1386L80.2635 20.6061L84.0871 15.1648L81.6325 13.44ZM84.2725 11.08L82.854 8.43652L82.8403 8.44386L82.8267 8.45135L84.2725 11.08ZM86.3925 24.12L84.628 21.6938L84.548 21.752L84.4719 21.8153L86.3925 24.12ZM87.0325 22.32L90.0055 22.7218L90.0069 22.7114L87.0325 22.32ZM86.6725 16.12L84.0092 17.501V17.501L86.6725 16.12ZM82.1925 15.28L81.5179 12.3568L79.1925 12.8935V15.28H82.1925ZM82.1925 24.16H79.1925V26.8557L81.8729 27.1429L82.1925 24.16ZM83.3125 24.28L82.9929 27.2629L83.0376 27.2677L83.0824 27.2712L83.3125 24.28ZM87.9925 13.2C89.1717 13.2 89.8214 13.5546 90.2948 14.0955L94.8102 10.1445C93.0435 8.12542 90.6533 7.2 87.9925 7.2V13.2ZM90.3391 14.145C90.6955 14.5346 91.2725 15.7545 91.2725 18.72H97.2725C97.2725 15.3922 96.7028 12.212 94.7659 10.095L90.3391 14.145ZM91.2725 18.72C91.2725 20.9042 91.0579 22.5016 90.7219 23.6086L96.4631 25.3514C97.0338 23.4717 97.2725 21.2291 97.2725 18.72H91.2725ZM90.7263 23.5941C90.5359 24.2099 90.3592 24.6291 90.2164 24.8964C90.065 25.1797 90.0137 25.1755 90.1328 25.0781L93.9322 29.7219C95.2481 28.6453 95.9778 26.9219 96.4587 25.3659L90.7263 23.5941ZM90.1328 25.0781C90.1775 25.0416 90.0974 25.1174 89.7651 25.2425C89.4477 25.3621 88.9909 25.4929 88.3641 25.6183L89.5408 31.5017C91.1065 31.1886 92.7488 30.6902 93.9322 29.7219L90.1328 25.0781ZM88.3537 25.6204C87.1208 25.8715 85.8285 26 84.4725 26V32C86.2098 32 87.9042 31.8351 89.5513 31.4996L88.3537 25.6204ZM84.4725 26C84.1013 26 83.4076 25.977 82.3423 25.9237L82.0427 31.9163C83.1108 31.9697 83.937 32 84.4725 32V26ZM79.1925 28.92V34.6H85.1925V28.92H79.1925ZM82.0698 31.6025L75.2298 31.8825L75.4752 37.8775L82.3152 37.5975L82.0698 31.6025ZM78.3525 34.88V10.6H72.3525V34.88H78.3525ZM75.3525 13.6H80.9525V7.6H75.3525V13.6ZM78.035 11.2986L78.715 14.1386L84.55 12.7414L83.87 9.90143L78.035 11.2986ZM84.0871 15.1648C84.5148 14.5561 85.0484 14.0771 85.7182 13.7086L82.8267 8.45135C81.3632 9.25627 80.1368 10.3506 79.1779 11.7152L84.0871 15.1648ZM85.6909 13.7235C86.2988 13.3973 87.0417 13.2 87.9925 13.2V7.2C86.17 7.2 84.4328 7.58936 82.854 8.43652L85.6909 13.7235ZM88.157 26.5462C89.0401 25.9039 89.4247 25.0056 89.5991 24.515C89.8027 23.9424 89.9247 23.3196 90.0055 22.7218L84.0595 21.9182C84.0347 22.102 84.0094 22.243 83.9866 22.3471C83.9754 22.3985 83.9656 22.4372 83.958 22.4647C83.9503 22.4923 83.9458 22.505 83.9458 22.505C83.9459 22.5047 83.9475 22.5003 83.9508 22.4922C83.954 22.4842 83.9593 22.4716 83.967 22.4551C83.9817 22.4234 84.0085 22.3697 84.0512 22.3013C84.1299 22.1748 84.3064 21.9276 84.628 21.6938L88.157 26.5462ZM90.0069 22.7114C90.1552 21.5843 90.2325 20.4928 90.2325 19.44H84.2325C84.2325 20.2006 84.1765 21.029 84.0581 21.9286L90.0069 22.7114ZM90.2325 19.44C90.2325 17.8063 90.0466 16.11 89.3358 14.739L84.0092 17.501C84.0091 17.5006 84.0744 17.6342 84.1343 17.989C84.1924 18.3338 84.2325 18.8095 84.2325 19.44H90.2325ZM89.3358 14.739C88.2547 12.6542 86.1836 12.04 84.4325 12.04V18.04C84.6917 18.04 84.6793 18.0845 84.5296 18.0123C84.4481 17.973 84.344 17.9073 84.2401 17.807C84.1356 17.7063 84.0595 17.5979 84.0092 17.501L89.3358 14.739ZM84.4325 12.04C83.4331 12.04 82.4579 12.1399 81.5179 12.3568L82.8671 18.2032C83.3138 18.1001 83.8319 18.04 84.4325 18.04V12.04ZM79.1925 15.28V24.16H85.1925V15.28H79.1925ZM81.8729 27.1429L82.9929 27.2629L83.6321 21.2971L82.5121 21.1771L81.8729 27.1429ZM83.0824 27.2712C83.5443 27.3067 84.1279 27.32 84.7925 27.32V21.32C84.177 21.32 83.774 21.3066 83.5426 21.2888L83.0824 27.2712ZM84.7925 27.32C85.2983 27.32 85.7993 27.3025 86.2446 27.2468C86.4659 27.2192 86.7433 27.1738 87.034 27.09C87.2696 27.022 87.8011 26.8512 88.313 26.4247L84.4719 21.8153C84.7096 21.6173 84.9278 21.5029 85.0601 21.4419C85.1984 21.3783 85.3091 21.3429 85.371 21.325C85.4884 21.2912 85.5458 21.2875 85.5004 21.2932C85.4655 21.2975 85.3902 21.3049 85.2638 21.3107C85.1399 21.3164 84.9841 21.32 84.7925 21.32V27.32ZM110.634 24V21H110.524L110.414 21.0081L110.634 24ZM111.954 23.92L114.923 23.4877L114.516 20.6961L111.705 20.9304L111.954 23.92ZM112.554 28.04L113.825 30.7576L115.844 29.8135L115.523 27.6077L112.554 28.04ZM97.4741 27.16L95.4069 29.3341L95.4157 29.3425L95.4246 29.3508L97.4741 27.16ZM95.6341 15.52L92.7495 14.6958L92.7427 14.7198L92.7362 14.7438L95.6341 15.52ZM97.0741 12.4L94.904 10.3286L94.8788 10.355L94.8542 10.382L97.0741 12.4ZM100.194 10.88L101.005 13.7684L100.194 10.88ZM110.114 11.52L108.375 13.9649V13.9649L110.114 11.52ZM112.474 15.08L109.561 15.7956L109.564 15.8076L112.474 15.08ZM113.034 21.12L113.21 24.1148L116.034 23.9487V21.12H113.034ZM102.034 21.28V18.28H99.0341V21.28H102.034ZM102.554 23.2L100.226 25.0918L100.26 25.1343L100.296 25.1755L102.554 23.2ZM104.114 24.04L103.526 26.9817L103.583 26.9931L103.64 27.0023L104.114 24.04ZM102.434 15L103.776 17.6833L103.828 17.657L103.88 17.6286L102.434 15ZM102.074 16.04L105.049 16.428V16.428L102.074 16.04ZM101.914 18.12L98.9158 18.0166L98.8088 21.12H101.914V18.12ZM106.714 18.08L106.857 21.0766L109.714 20.9405V18.08H106.714ZM106.154 15.36L103.639 16.995L103.667 17.0382L103.696 17.0804L106.154 15.36ZM106.914 27.2C107.706 27.2 109.051 27.1245 110.854 26.9919L110.414 21.0081C108.59 21.1422 107.455 21.2 106.914 21.2V27.2ZM110.634 27C111.016 27 111.573 26.9621 112.203 26.9096L111.705 20.9304C111.055 20.9845 110.732 21 110.634 21V27ZM108.985 24.3523L109.585 28.4723L115.523 27.6077L114.923 23.4877L108.985 24.3523ZM111.283 25.3224C109.765 26.0324 107.576 26.48 104.554 26.48V32.48C108.092 32.48 111.237 31.9676 113.825 30.7576L111.283 25.3224ZM104.554 26.48C101.974 26.48 100.449 25.8347 99.5235 24.9692L95.4246 29.3508C97.8061 31.5786 101.001 32.48 104.554 32.48V26.48ZM99.5412 24.9859C98.7126 24.198 98.0341 22.7869 98.0341 20.16H92.0341C92.0341 23.7731 92.9822 27.0287 95.4069 29.3341L99.5412 24.9859ZM98.0341 20.16C98.0341 18.8129 98.2021 17.5276 98.5319 16.2962L92.7362 14.7438C92.2661 16.499 92.0341 18.3071 92.0341 20.16H98.0341ZM98.5186 16.3442C98.7034 15.6974 98.8807 15.2179 99.0379 14.8772C99.2015 14.5228 99.3023 14.4087 99.2939 14.418L94.8542 10.382C93.8354 11.5027 93.2039 13.1055 92.7495 14.6958L98.5186 16.3442ZM99.2441 14.4714C99.1974 14.5204 99.2629 14.4353 99.588 14.277C99.9 14.1249 100.36 13.9493 101.005 13.7684L99.3833 7.99163C97.7515 8.44969 96.0465 9.13166 94.904 10.3286L99.2441 14.4714ZM101.005 13.7684C102.276 13.4115 103.51 13.24 104.714 13.24V7.24C102.931 7.24 101.152 7.49513 99.3833 7.99163L101.005 13.7684ZM104.714 13.24C106.849 13.24 107.913 13.636 108.375 13.9649L111.853 9.07513C109.915 7.69732 107.379 7.24 104.714 7.24V13.24ZM108.375 13.9649C108.95 14.3737 109.347 14.9265 109.561 15.7956L115.387 14.3644C114.854 12.1935 113.678 10.373 111.853 9.07513L108.375 13.9649ZM109.564 15.8076C109.852 16.9599 110.034 18.6961 110.034 21.12H116.034C116.034 18.4772 115.843 16.1868 115.384 14.3524L109.564 15.8076ZM112.858 18.1252C111.1 18.2286 109.386 18.28 107.714 18.28V24.28C109.509 24.28 111.341 24.2248 113.21 24.1148L112.858 18.1252ZM107.714 18.28H102.034V24.28H107.714V18.28ZM99.0341 21.28C99.0341 22.4621 99.2617 23.9053 100.226 25.0918L104.882 21.3082C105.022 21.4803 105.059 21.6128 105.06 21.6158C105.06 21.6171 105.053 21.592 105.047 21.5341C105.04 21.4764 105.034 21.3929 105.034 21.28H99.0341ZM100.296 25.1755C101.186 26.1925 102.344 26.7455 103.526 26.9817L104.702 21.0983C104.617 21.0812 104.609 21.0683 104.646 21.0886C104.665 21.0987 104.692 21.1152 104.723 21.1397C104.754 21.1642 104.784 21.1929 104.812 21.2245L100.296 25.1755ZM103.64 27.0023C104.539 27.1462 105.657 27.2 106.914 27.2V21.2C105.771 21.2 105.022 21.1471 104.588 21.0777L103.64 27.0023ZM101.092 12.3167C99.8665 12.9297 99.4754 14.0893 99.3891 14.3387C99.2325 14.7909 99.1503 15.2605 99.0993 15.652L105.049 16.428C105.078 16.2061 105.096 16.1957 105.059 16.3013C105.04 16.3562 104.976 16.5336 104.83 16.756C104.691 16.9671 104.369 17.3866 103.776 17.6833L101.092 12.3167ZM99.0993 15.652C99.0043 16.3797 98.945 17.1705 98.9158 18.0166L104.912 18.2234C104.936 17.5228 104.984 16.927 105.049 16.428L99.0993 15.652ZM101.914 21.12H103.994V15.12H101.914V21.12ZM103.994 21.12C105.252 21.12 106.22 21.1069 106.857 21.0766L106.571 15.0834C106.088 15.1064 105.243 15.12 103.994 15.12V21.12ZM109.714 18.08C109.714 16.6824 109.544 14.9711 108.612 13.6396L103.696 17.0804C103.571 16.902 103.593 16.8358 103.636 17.045C103.676 17.24 103.714 17.5721 103.714 18.08H109.714ZM108.669 13.725C107.571 12.0351 105.782 11.56 104.314 11.56V17.56C104.466 17.56 104.408 17.585 104.238 17.5112C104.148 17.4722 104.037 17.4096 103.924 17.3147C103.809 17.219 103.713 17.1088 103.639 16.995L108.669 13.725ZM104.314 11.56C103.181 11.56 102.039 11.7934 100.988 12.3714L103.88 17.6286C103.896 17.62 104.007 17.56 104.314 17.56V11.56ZM127.762 10.56L127.354 13.5321L127.382 13.5361L127.411 13.5395L127.762 10.56ZM132.522 11.24H135.522V8.68629L133.001 8.2785L132.522 11.24ZM128.722 36.04L126.803 33.7333L126.801 33.7353L128.722 36.04ZM126.562 36.72L126.068 33.7608L126.562 36.72ZM115.482 35.8L112.485 35.9362L112.569 37.7827L114.256 38.5381L115.482 35.8ZM115.602 33.48L112.63 33.0673L112.624 33.1079L112.62 33.1487L115.602 33.48ZM116.002 31.2L116.455 28.2344L113.723 27.8171L113.083 30.5051L116.002 31.2ZM124.002 31.48L123.644 28.5014L123.576 28.5095L123.508 28.5208L124.002 31.48ZM125.242 31.08L123.12 28.9587L123.039 29.0401L122.964 29.1276L125.242 31.08ZM125.722 28.68L128.713 28.9101L128.713 28.9019L128.714 28.8937L125.722 28.68ZM125.762 26.04H128.762V16.2415L123.276 24.3604L125.762 26.04ZM123.202 28.16L122.063 25.3845L123.202 28.16ZM115.322 26.6L112.958 28.4478L115.322 26.6ZM114.362 14.92L111.506 13.999L111.502 14.0134L111.497 14.0278L114.362 14.92ZM116.522 11.48L114.832 9.00132L114.811 9.01504L114.792 9.0291L116.522 11.48ZM119.362 10.6L119.786 13.5698L119.811 13.5663L119.836 13.5623L119.362 10.6ZM125.682 23.32L126.796 26.1054L128.682 25.3511V23.32H125.682ZM125.682 14.96H128.682V12.4563L126.218 12.0084L125.682 14.96ZM124.362 14.8L124.063 17.7851L124.076 17.7865L124.09 17.7877L124.362 14.8ZM121.602 15L123.366 17.4262L123.384 17.4132L123.402 17.4L121.602 15ZM120.882 16.8L117.934 16.2423L117.928 16.2745L117.922 16.3068L120.882 16.8ZM121.122 22.92L118.488 24.3566L118.513 24.4018L118.539 24.4462L121.122 22.92ZM123.842 13.28C124.946 13.28 126.116 13.3623 127.354 13.5321L128.17 7.58786C126.687 7.38437 125.244 7.28 123.842 7.28V13.28ZM127.411 13.5395C128.716 13.693 130.259 13.9129 132.042 14.2015L133.001 8.2785C131.158 7.98042 129.527 7.74697 128.112 7.58055L127.411 13.5395ZM129.522 11.24V27.16H135.522V11.24H129.522ZM129.522 27.16C129.522 30.2385 128.539 32.2897 126.803 33.7333L130.64 38.3467C133.97 35.577 135.522 31.7082 135.522 27.16H129.522ZM126.801 33.7353C126.973 33.5924 127.103 33.5305 127.121 33.522C127.147 33.5096 127.127 33.5213 127.041 33.5485C126.863 33.6045 126.552 33.6803 126.068 33.7608L127.055 39.6792C127.691 39.5731 128.3 39.4422 128.842 39.2715C129.322 39.1205 130.029 38.8554 130.642 38.3447L126.801 33.7353ZM126.068 33.7608C125.145 33.9147 124.048 34 122.762 34V40C124.302 40 125.738 39.8986 127.055 39.6792L126.068 33.7608ZM122.762 34C119.903 34 117.952 33.6192 116.708 33.0619L114.256 38.5381C116.584 39.5808 119.486 40 122.762 40V34ZM118.478 35.6638C118.462 35.3002 118.484 34.7014 118.583 33.8113L112.62 33.1487C112.505 34.1786 112.448 35.1265 112.485 35.9362L118.478 35.6638ZM118.573 33.8927C118.701 32.973 118.819 32.3202 118.92 31.8949L113.083 30.5051C112.918 31.1998 112.769 32.067 112.63 33.0673L118.573 33.8927ZM115.548 34.1656C117.61 34.4806 119.642 34.64 121.642 34.64V28.64C119.961 28.64 118.233 28.5061 116.455 28.2344L115.548 34.1656ZM121.642 34.64C122.675 34.64 123.638 34.582 124.495 34.4392L123.508 28.5208C123.085 28.5914 122.475 28.64 121.642 28.64V34.64ZM124.359 34.4586C124.792 34.4066 125.272 34.3238 125.733 34.1751C126.115 34.0517 126.897 33.758 127.519 33.0324L122.964 29.1276C123.217 28.8322 123.472 28.6686 123.612 28.5904C123.757 28.5093 123.862 28.4739 123.891 28.4649C123.938 28.4495 123.878 28.4734 123.644 28.5014L124.359 34.4586ZM127.363 33.2013C127.877 32.6867 128.11 32.1089 128.207 31.8471C128.327 31.5207 128.407 31.1923 128.463 30.9083C128.578 30.3363 128.656 29.6527 128.713 28.9101L122.73 28.4499C122.681 29.094 122.625 29.5037 122.58 29.7317C122.557 29.8477 122.55 29.8459 122.577 29.7729C122.591 29.7333 122.628 29.6394 122.697 29.5156C122.761 29.3991 122.893 29.1861 123.12 28.9587L127.363 33.2013ZM128.714 28.8937C128.748 28.4114 128.762 27.7791 128.762 27.04H122.762C122.762 27.7409 122.748 28.2019 122.729 28.4663L128.714 28.8937ZM128.762 27.04V26.04H122.762V27.04H128.762ZM123.276 24.3604C122.92 24.8875 122.522 25.196 122.063 25.3845L124.34 30.9355C125.961 30.2707 127.27 29.1658 128.247 27.7196L123.276 24.3604ZM122.063 25.3845C121.262 25.713 120.725 25.8 120.402 25.8V31.8C121.732 31.8 123.061 31.4604 124.34 30.9355L122.063 25.3845ZM120.402 25.8C118.876 25.8 118.146 25.3414 117.685 24.7522L112.958 28.4478C114.791 30.7919 117.448 31.8 120.402 31.8V25.8ZM117.685 24.7522C117.116 24.0247 116.602 22.647 116.602 20.16H110.602C110.602 23.3264 111.234 26.242 112.958 28.4478L117.685 24.7522ZM116.602 20.16C116.602 18.5671 116.817 17.1238 117.226 15.8121L111.497 14.0278C110.892 15.9696 110.602 18.0195 110.602 20.16H116.602ZM117.217 15.841C117.656 14.4793 118.101 14.0375 118.252 13.9309L114.792 9.0291C113.129 10.2025 112.134 12.054 111.506 13.999L117.217 15.841ZM118.212 13.9587C118.182 13.9786 118.268 13.916 118.559 13.8256C118.841 13.7384 119.241 13.6476 119.786 13.5698L118.937 7.63015C117.502 7.83516 115.998 8.20612 114.832 9.00132L118.212 13.9587ZM119.836 13.5623C120.982 13.3789 122.313 13.28 123.842 13.28V7.28C122.063 7.28 120.408 7.39444 118.888 7.63768L119.836 13.5623ZM123.002 26.8C124.315 26.8 125.594 26.5862 126.796 26.1054L124.567 20.5346C124.169 20.6938 123.661 20.8 123.002 20.8V26.8ZM128.682 23.32V14.96H122.682V23.32H128.682ZM126.218 12.0084C125.789 11.9303 125.241 11.8676 124.633 11.8123L124.09 17.7877C124.656 17.8391 124.988 17.883 125.145 17.9116L126.218 12.0084ZM124.66 11.8149C124.239 11.7728 123.718 11.76 123.162 11.76V17.76C123.672 17.76 123.95 17.7739 124.063 17.7851L124.66 11.8149ZM123.162 11.76C122.671 11.76 122.166 11.7825 121.695 11.8549C121.335 11.9103 120.528 12.0549 119.802 12.6L123.402 17.4C123.245 17.5173 123.104 17.5953 123 17.6454C122.895 17.696 122.809 17.7275 122.752 17.7462C122.644 17.7817 122.586 17.7885 122.608 17.7851C122.624 17.7826 122.677 17.7756 122.777 17.7697C122.875 17.7639 123.002 17.76 123.162 17.76V11.76ZM119.837 12.5738C118.999 13.1829 118.604 14.027 118.416 14.4958C118.196 15.0457 118.046 15.6508 117.934 16.2423L123.829 17.3577C123.865 17.1698 123.899 17.0228 123.929 16.9115C123.959 16.7981 123.981 16.7401 123.987 16.7242C123.995 16.7033 123.972 16.7677 123.9 16.8776C123.832 16.9821 123.667 17.2073 123.366 17.4262L119.837 12.5738ZM117.922 16.3068C117.733 17.4445 117.642 18.6237 117.642 19.84H123.642C123.642 18.923 123.71 18.0755 123.841 17.2932L117.922 16.3068ZM117.642 19.84C117.642 21.3436 117.775 23.0494 118.488 24.3566L123.755 21.4834C123.826 21.6136 123.779 21.5879 123.726 21.248C123.677 20.9355 123.642 20.4762 123.642 19.84H117.642ZM118.539 24.4462C119.601 26.2435 121.432 26.8 123.002 26.8V20.8C122.857 20.8 122.935 20.7748 123.123 20.8629C123.222 20.9089 123.335 20.9793 123.446 21.0797C123.557 21.1803 123.643 21.2901 123.704 21.3938L118.539 24.4462ZM145.525 29L142.617 29.7385L143.192 32H145.525V29ZM144.885 26.48L147.793 25.7415L146.043 18.8534L142.328 24.9115L144.885 26.48ZM135.365 28L133.352 30.2246L133.38 30.2497L133.408 30.274L135.365 28ZM134.645 20.84L132.281 18.993L132.273 19.0035L134.645 20.84ZM137.365 19.04L136.541 16.1554L136.519 16.1617L136.497 16.1684L137.365 19.04ZM144.285 18.32L144.336 21.3196L147.285 21.2692V18.32H144.285ZM144.045 15.52L142.171 17.8626L142.273 17.9439L142.381 18.0161L144.045 15.52ZM140.885 15.44L141.01 18.4374L141.047 18.4358L141.085 18.4334L140.885 15.44ZM135.685 15.88L132.717 16.3196L133.141 19.1773L136.012 18.8621L135.685 15.88ZM135.205 11.24L134.595 8.3026L132.043 8.83224L132.211 11.4331L135.205 11.24ZM139.645 10.52L140.004 13.4984L140.03 13.4953L140.055 13.4919L139.645 10.52ZM148.605 11.28L146.927 13.7665L146.948 13.7811L146.97 13.7953L148.605 11.28ZM150.685 14.04L153.575 13.2336V13.2336L150.685 14.04ZM151.125 18.4L148.125 18.3545L148.125 18.3671L148.125 18.3796L151.125 18.4ZM151.085 24.28L148.085 24.2596L148.085 24.3079L148.086 24.3562L151.085 24.28ZM151.205 29V32H154.282L154.204 28.9238L151.205 29ZM144.285 24.6L145.263 27.4361L147.285 26.7389V24.6H144.285ZM144.285 21.64H147.285V18.64H144.285V21.64ZM140.685 21.96L138.564 19.8387L138.564 19.8387L140.685 21.96ZM140.365 22.56L137.492 21.698L137.451 21.8332L137.423 21.9717L140.365 22.56ZM140.725 24.64L138.825 26.9619V26.9619L140.725 24.64ZM148.433 28.2615L147.793 25.7415L141.977 27.2185L142.617 29.7385L148.433 28.2615ZM142.328 24.9115C141.598 26.1004 140.82 26.48 139.765 26.48V32.48C143.084 32.48 145.718 30.8596 147.442 28.0485L142.328 24.9115ZM139.765 26.48C138.56 26.48 137.829 26.1621 137.322 25.726L133.408 30.274C135.195 31.8112 137.397 32.48 139.765 32.48V26.48ZM137.378 25.7754C137.012 25.4441 136.685 24.9106 136.685 23.76H130.685C130.685 26.2361 131.478 28.5293 133.352 30.2246L137.378 25.7754ZM136.685 23.76C136.685 23.2542 136.814 22.9388 137.017 22.6765L132.273 19.0035C131.196 20.3945 130.685 22.0258 130.685 23.76H136.685ZM137.009 22.6869C137.254 22.3728 137.613 22.0991 138.233 21.9116L136.497 16.1684C134.824 16.6742 133.369 17.6005 132.281 18.9931L137.009 22.6869ZM138.189 21.9246C139.289 21.6104 141.271 21.372 144.336 21.3196L144.234 15.3204C141.059 15.3747 138.428 15.6163 136.541 16.1554L138.189 21.9246ZM147.285 18.32C147.285 17.4147 147.265 16.6398 147.214 16.0438C147.19 15.7577 147.15 15.4136 147.073 15.0804C147.036 14.9183 146.968 14.6597 146.84 14.3749C146.749 14.1706 146.442 13.5124 145.709 13.0239L142.381 18.0161C142.004 17.7652 141.767 17.4811 141.633 17.2934C141.495 17.1004 141.41 16.93 141.362 16.8226C141.27 16.6161 141.234 16.4617 141.227 16.4296C141.21 16.3564 141.22 16.3756 141.236 16.5562C141.265 16.8935 141.285 17.4653 141.285 18.32H147.285ZM145.919 13.1774C145.43 12.7863 144.935 12.6284 144.714 12.5654C144.444 12.4883 144.192 12.4475 143.997 12.4232C143.606 12.3742 143.179 12.36 142.765 12.36V18.36C143.071 18.36 143.218 18.3724 143.253 18.3768C143.271 18.3792 143.196 18.3717 143.066 18.3346C142.998 18.3151 142.885 18.2791 142.746 18.2166C142.613 18.1565 142.402 18.0475 142.171 17.8626L145.919 13.1774ZM142.765 12.36C142.213 12.36 141.51 12.3917 140.685 12.4466L141.085 18.4334C141.86 18.3816 142.41 18.36 142.765 18.36V12.36ZM140.76 12.4426C139.381 12.5 137.571 12.6549 135.358 12.8979L136.012 18.8621C138.172 18.6251 139.829 18.4866 141.01 18.4374L140.76 12.4426ZM138.653 15.4404C138.453 14.0924 138.301 12.6287 138.199 11.0469L132.211 11.4331C132.323 13.158 132.49 14.7876 132.717 16.3196L138.653 15.4404ZM135.815 14.1774C137.139 13.9025 138.535 13.6757 140.004 13.4984L139.286 7.54161C137.661 7.73762 136.098 7.9908 134.595 8.3026L135.815 14.1774ZM140.055 13.4919C141.5 13.2925 142.747 13.2 143.805 13.2V7.2C142.41 7.2 140.883 7.32085 139.235 7.54814L140.055 13.4919ZM143.805 13.2C145.695 13.2 146.585 13.536 146.927 13.7665L150.283 8.79345C148.492 7.58397 146.182 7.2 143.805 7.2V13.2ZM146.97 13.7953C147.47 14.1204 147.686 14.4538 147.795 14.8464L153.575 13.2336C153.044 11.3328 151.873 9.82628 150.24 8.76467L146.97 13.7953ZM147.795 14.8464C148.011 15.6177 148.15 16.7586 148.125 18.3545L154.125 18.4454C154.154 16.5214 153.999 14.7557 153.575 13.2336L147.795 14.8464ZM148.125 18.3796L148.085 24.2596L154.085 24.3004L154.125 18.4204L148.125 18.3796ZM148.086 24.3562L148.206 29.0762L154.204 28.9238L154.084 24.2038L148.086 24.3562ZM151.205 26H145.525V32H151.205V26ZM142.085 28C143.165 28 144.23 27.7923 145.263 27.4361L143.307 21.7639C142.793 21.9411 142.392 22 142.085 22V28ZM147.285 24.6V21.64H141.285V24.6H147.285ZM144.285 18.64H143.965V24.64H144.285V18.64ZM143.965 18.64C142.944 18.64 142.065 18.6668 141.374 18.7342C141.035 18.7672 140.658 18.8177 140.296 18.9061C140.108 18.9522 139.257 19.1456 138.564 19.8387L142.806 24.0813C142.457 24.4311 142.113 24.5886 141.993 24.6402C141.845 24.7041 141.742 24.7295 141.724 24.7339C141.689 24.7423 141.748 24.7261 141.956 24.7058C142.359 24.6666 143.012 24.64 143.965 24.64V18.64ZM138.564 19.8387C137.952 20.4508 137.651 21.1656 137.492 21.698L143.238 23.422C143.234 23.4377 143.211 23.5121 143.152 23.6218C143.093 23.732 142.986 23.9014 142.806 24.0813L138.564 19.8387ZM137.423 21.9717C137.336 22.4069 137.285 22.8584 137.285 23.32H143.285C143.285 23.3016 143.287 23.2464 143.307 23.1483L137.423 21.9717ZM137.285 23.32C137.285 24.2584 137.475 25.8574 138.825 26.9619L142.625 22.3181C143.006 22.6301 143.175 22.9841 143.241 23.1813C143.3 23.3588 143.285 23.4309 143.285 23.32H137.285ZM138.825 26.9619C139.898 27.8397 141.178 28 142.085 28V22C141.963 22 141.966 21.9869 142.053 22.0099C142.145 22.0342 142.371 22.1103 142.625 22.3181L138.825 26.9619Z" fill="#4EAB3F"/>
</svg>
