<svg width="171" height="43" viewBox="0 0 171 43" fill="none" xmlns="http://www.w3.org/2000/svg">
<path d="M72.8383 42.6C71.1583 39.64 69.7583 36.1467 68.6383 32.12C67.5449 28.12 66.9983 24.2933 66.9983 20.64C66.9983 13.6533 68.7716 6.93333 72.3183 0.479998L77.4383 2.36C75.7849 5.98667 74.5583 9.37333 73.7583 12.52C72.9583 15.6667 72.5583 18.76 72.5583 21.8C72.5583 24.8133 72.9583 27.8533 73.7583 30.92C74.5583 34.0133 75.7849 37.2667 77.4383 40.68L72.8383 42.6Z" fill="#4EAB3F"/>
<path d="M72.8383 42.6L70.2292 44.0808L71.5411 46.3923L73.9938 45.3685L72.8383 42.6ZM68.6383 32.12L65.7444 32.911L65.748 32.9239L68.6383 32.12ZM72.3183 0.479998L73.3523 -2.33616L70.9313 -3.22512L69.6892 -0.964924L72.3183 0.479998ZM77.4383 2.36L80.168 3.60443L81.5106 0.659448L78.4723 -0.456155L77.4383 2.36ZM73.7583 12.52L70.8508 11.7808L70.8508 11.7808L73.7583 12.52ZM73.7583 30.92L76.6627 30.1688L76.6611 30.1627L73.7583 30.92ZM77.4383 40.68L78.5938 43.4485L81.5209 42.2268L80.1382 39.3722L77.4383 40.68ZM75.4473 41.1192C73.9122 38.4144 72.5971 35.1579 71.5286 31.3161L65.748 32.9239C66.9194 37.1355 68.4044 40.8656 70.2292 44.0808L75.4473 41.1192ZM71.5321 31.329C70.4999 27.5527 69.9983 23.9929 69.9983 20.64H63.9983C63.9983 24.5937 64.59 28.6873 65.7444 32.911L71.5321 31.329ZM69.9983 20.64C69.9983 14.186 71.6304 7.96025 74.9474 1.92492L69.6892 -0.964924C65.9128 5.90641 63.9983 13.1207 63.9983 20.64H69.9983ZM71.2842 3.29615L76.4042 5.17615L78.4723 -0.456155L73.3523 -2.33616L71.2842 3.29615ZM74.7086 1.11557C72.9971 4.86984 71.7035 8.42694 70.8508 11.7808L76.6658 13.2592C77.4131 10.3197 78.5728 7.10349 80.168 3.60443L74.7086 1.11557ZM70.8508 11.7808C69.9935 15.1527 69.5583 18.4944 69.5583 21.8H75.5583C75.5583 19.0256 75.9231 16.1806 76.6658 13.2592L70.8508 11.7808ZM69.5583 21.8C69.5583 25.0817 69.9943 28.3761 70.8554 31.6773L76.6611 30.1627C75.9223 27.3305 75.5583 24.5449 75.5583 21.8H69.5583ZM70.8538 31.6711C71.7116 34.988 73.0141 38.4282 74.7383 41.9878L80.1382 39.3722C78.5558 36.1052 77.4049 33.0387 76.6627 30.1689L70.8538 31.6711ZM76.2827 37.9115L71.6827 39.8315L73.9938 45.3685L78.5938 43.4485L76.2827 37.9115Z" fill="#195155"/>
<path d="M159.398 40.68C161.052 37.2667 162.278 34.0133 163.078 30.92C163.878 27.8533 164.278 24.8133 164.278 21.8C164.278 18.76 163.878 15.6667 163.078 12.52C162.278 9.37333 161.052 5.98667 159.398 2.36L164.518 0.479998C168.065 6.93333 169.838 13.6533 169.838 20.64C169.838 24.2933 169.278 28.12 168.158 32.12C167.065 36.1467 165.678 39.64 163.998 42.6L159.398 40.68Z" fill="#4EAB3F"/>
<path d="M159.398 40.68L156.698 39.3722L155.316 42.2268L158.243 43.4485L159.398 40.68ZM163.078 30.92L160.175 30.1627L160.174 30.1689L163.078 30.92ZM163.078 12.52L165.986 11.7808V11.7808L163.078 12.52ZM159.398 2.36L158.364 -0.456155L155.326 0.659448L156.669 3.60443L159.398 2.36ZM164.518 0.479998L167.147 -0.964925L165.905 -3.22512L163.484 -2.33616L164.518 0.479998ZM168.158 32.12L165.269 31.3111L165.266 31.3225L165.263 31.3339L168.158 32.12ZM163.998 42.6L162.843 45.3685L165.295 46.3923L166.607 44.0808L163.998 42.6ZM162.098 41.9878C163.822 38.4282 165.125 34.988 165.983 31.6711L160.174 30.1689C159.432 33.0387 158.281 36.1052 156.698 39.3722L162.098 41.9878ZM165.981 31.6773C166.842 28.3761 167.278 25.0817 167.278 21.8H161.278C161.278 24.5449 160.914 27.3305 160.175 30.1627L165.981 31.6773ZM167.278 21.8C167.278 18.4944 166.843 15.1527 165.986 11.7808L160.171 13.2592C160.914 16.1806 161.278 19.0256 161.278 21.8H167.278ZM165.986 11.7808C165.133 8.42694 163.84 4.86984 162.128 1.11557L156.669 3.60443C158.264 7.1035 159.423 10.3197 160.171 13.2592L165.986 11.7808ZM160.432 5.17615L165.552 3.29615L163.484 -2.33616L158.364 -0.456155L160.432 5.17615ZM161.889 1.92492C165.206 7.96025 166.838 14.186 166.838 20.64H172.838C172.838 13.1207 170.924 5.90641 167.147 -0.964925L161.889 1.92492ZM166.838 20.64C166.838 23.9855 166.326 27.5391 165.269 31.3111L171.047 32.9289C172.231 28.7009 172.838 24.6012 172.838 20.64H166.838ZM165.263 31.3339C164.221 35.1703 162.921 38.4205 161.389 41.1192L166.607 44.0808C168.436 40.8595 169.908 37.1231 171.053 32.9061L165.263 31.3339ZM165.154 39.8315L160.554 37.9115L158.243 43.4485L162.843 45.3685L165.154 39.8315Z" fill="#195155"/>
<path d="M20.1866 4.72V29H14.5466L13.9866 25.92C13.4532 26.96 12.6666 27.7867 11.6266 28.4C10.5866 29.0133 9.41323 29.32 8.10656 29.32C6.02656 29.32 4.3599 28.5733 3.10656 27.08C1.8799 25.5867 1.26656 23.3467 1.26656 20.36C1.26656 18.0933 1.53323 16.2267 2.06656 14.76C2.5999 13.2933 3.22656 12.24 3.94656 11.6C4.3999 11.2 5.3199 10.8667 6.70656 10.6C8.1199 10.3333 9.37323 10.2 10.4666 10.2C11.4266 10.2 12.4132 10.2933 13.4266 10.48C13.3466 9.2 13.3066 8.49333 13.3066 8.36V5L20.1866 4.72ZM11.1066 23.96C11.8266 23.96 12.5732 23.84 13.3466 23.6V14.92C12.5732 14.8133 11.7199 14.76 10.7866 14.76C9.98656 14.76 9.4799 14.8267 9.26656 14.96C8.97323 15.1733 8.73323 15.7867 8.54656 16.8C8.38656 17.7867 8.30656 18.8267 8.30656 19.92C8.30656 21.5467 8.54656 22.6267 9.02656 23.16C9.53323 23.6933 10.2266 23.96 11.1066 23.96ZM34.6281 24.2C35.2948 24.2 36.5348 24.1333 38.3481 24C38.5881 24 39.0281 23.9733 39.6681 23.92L40.2681 28.04C38.2148 29 35.5481 29.48 32.2681 29.48C29.2015 29.48 26.8415 28.7067 25.1881 27.16C23.5615 25.6133 22.7481 23.28 22.7481 20.16C22.7481 18.56 22.9481 17.0133 23.3481 15.52C23.7748 14.0267 24.2548 12.9867 24.7881 12.4C25.3481 11.8133 26.3881 11.3067 27.9081 10.88C29.4281 10.4533 30.9348 10.24 32.4281 10.24C34.8281 10.24 36.6281 10.6667 37.8281 11.52C39.0281 12.3733 39.8148 13.56 40.1881 15.08C40.5615 16.5733 40.7481 18.5867 40.7481 21.12C38.9348 21.2267 37.1615 21.28 35.4281 21.28H29.7481C29.7481 22.1333 29.9215 22.7733 30.2681 23.2C30.6415 23.6267 31.1615 23.9067 31.8281 24.04C32.4948 24.1467 33.4281 24.2 34.6281 24.2ZM30.1481 15C29.9881 15.08 29.8681 15.4267 29.7881 16.04C29.7081 16.6533 29.6548 17.3467 29.6281 18.12H31.7081C32.9615 18.12 33.8681 18.1067 34.4281 18.08C34.4281 16.8 34.2415 15.8933 33.8681 15.36C33.5215 14.8267 32.9081 14.56 32.0281 14.56C31.3081 14.56 30.6815 14.7067 30.1481 15ZM58.0356 22.76C58.0356 25.1333 57.2756 26.84 55.7556 27.88C54.2623 28.92 52.129 29.44 49.3556 29.44C47.409 29.44 45.169 29.16 42.6356 28.6C42.689 28.0667 42.809 27.3067 42.9956 26.32C43.209 25.3067 43.3823 24.5333 43.5156 24C44.4756 24.16 45.5423 24.2933 46.7156 24.4C47.889 24.48 48.889 24.52 49.7156 24.52C50.4356 24.52 50.8756 24.48 51.0356 24.4C51.0623 24.3733 51.089 24.3067 51.1156 24.2C51.169 24.0667 51.1956 23.9333 51.1956 23.8C51.1956 23.2667 50.8623 22.9067 50.1956 22.72C49.9823 22.6667 49.169 22.44 47.7556 22.04C46.3423 21.64 45.1823 20.92 44.2756 19.88C43.3956 18.8133 42.9556 17.4933 42.9556 15.92C42.9556 15.0933 43.1423 14.1733 43.5156 13.16C43.889 12.1467 44.289 11.5067 44.7156 11.24C45.0356 11.0267 45.809 10.8133 47.0356 10.6C48.2623 10.36 49.3956 10.24 50.4356 10.24C52.649 10.24 54.8756 10.4 57.1156 10.72C57.1156 11.2 57.049 12.0133 56.9156 13.16C56.7823 14.28 56.6623 14.9867 56.5556 15.28C54.289 14.9867 52.4623 14.84 51.0756 14.84C50.3556 14.84 49.889 14.88 49.6756 14.96C49.6223 14.9867 49.569 15.0667 49.5156 15.2C49.4623 15.3067 49.4356 15.4533 49.4356 15.64C49.4356 16.0133 49.5556 16.28 49.7956 16.44C50.0356 16.6267 50.6623 16.8533 51.6756 17.12C52.8756 17.4667 53.9023 17.8267 54.7556 18.2C55.6356 18.5733 56.3956 19.1333 57.0356 19.88C57.7023 20.6267 58.0356 21.5867 58.0356 22.76ZM71.2641 29L70.6241 26.48C69.3974 28.48 67.6907 29.48 65.5041 29.48C63.7174 29.48 62.2507 28.9867 61.1041 28C59.9841 26.9867 59.4241 25.5733 59.4241 23.76C59.4241 22.64 59.7441 21.6667 60.3841 20.84C61.0507 19.9867 61.9574 19.3867 63.1041 19.04C64.5974 18.6133 66.9041 18.3733 70.0241 18.32C70.0241 16.56 69.9441 15.6267 69.7841 15.52C69.6507 15.4133 69.2241 15.36 68.5041 15.36C68.0507 15.36 67.4241 15.3867 66.6241 15.44C65.3441 15.4933 63.6107 15.64 61.4241 15.88C61.2107 14.44 61.0507 12.8933 60.9441 11.24C62.3574 10.9467 63.8374 10.7067 65.3841 10.52C66.9307 10.3067 68.3174 10.2 69.5441 10.2C71.6774 10.2 73.2774 10.56 74.3441 11.28C75.4107 11.9733 76.1041 12.8933 76.4241 14.04C76.7441 15.1867 76.8907 16.64 76.8641 18.4L76.8241 24.28L76.9441 29H71.2641ZM67.8241 25C68.5174 25 69.2507 24.8667 70.0241 24.6V21.64H69.7041C67.7307 21.64 66.6374 21.7467 66.4241 21.96C66.2907 22.0933 66.1841 22.2933 66.1041 22.56C66.0507 22.8267 66.0241 23.08 66.0241 23.32C66.0241 23.96 66.1707 24.4 66.4641 24.64C66.7574 24.88 67.2107 25 67.8241 25ZM92.5925 10.2C94.5125 10.2 96.0325 10.84 97.1525 12.12C98.2992 13.3733 98.8725 15.5733 98.8725 18.72C98.8725 21.0667 98.6458 22.9867 98.1925 24.48C97.7392 25.9467 97.2192 26.92 96.6325 27.4C96.0458 27.88 95.0192 28.2667 93.5525 28.56C92.1125 28.8533 90.6192 29 89.0725 29C88.6192 29 87.8592 28.9733 86.7925 28.92V34.6L79.9525 34.88V10.6H85.5525L86.2325 13.44C86.9258 12.4533 87.8058 11.6667 88.8725 11.08C89.9658 10.4933 91.2058 10.2 92.5925 10.2ZM90.9925 24.12C91.2858 23.9067 91.4992 23.3067 91.6325 22.32C91.7658 21.3067 91.8325 20.3467 91.8325 19.44C91.8325 17.9467 91.6458 16.84 91.2725 16.12C90.8992 15.4 90.1525 15.04 89.0325 15.04C88.2325 15.04 87.4858 15.12 86.7925 15.28V24.16L87.9125 24.28C88.2592 24.3067 88.7525 24.32 89.3925 24.32C90.2992 24.32 90.8325 24.2533 90.9925 24.12ZM112.714 24.2C113.381 24.2 114.621 24.1333 116.434 24C116.674 24 117.114 23.9733 117.754 23.92L118.354 28.04C116.301 29 113.634 29.48 110.354 29.48C107.287 29.48 104.927 28.7067 103.274 27.16C101.647 25.6133 100.834 23.28 100.834 20.16C100.834 18.56 101.034 17.0133 101.434 15.52C101.861 14.0267 102.341 12.9867 102.874 12.4C103.434 11.8133 104.474 11.3067 105.994 10.88C107.514 10.4533 109.021 10.24 110.514 10.24C112.914 10.24 114.714 10.6667 115.914 11.52C117.114 12.3733 117.901 13.56 118.274 15.08C118.647 16.5733 118.834 18.5867 118.834 21.12C117.021 21.2267 115.247 21.28 113.514 21.28H107.834C107.834 22.1333 108.007 22.7733 108.354 23.2C108.727 23.6267 109.247 23.9067 109.914 24.04C110.581 24.1467 111.514 24.2 112.714 24.2ZM108.234 15C108.074 15.08 107.954 15.4267 107.874 16.04C107.794 16.6533 107.741 17.3467 107.714 18.12H109.794C111.047 18.12 111.954 18.1067 112.514 18.08C112.514 16.8 112.327 15.8933 111.954 15.36C111.607 14.8267 110.994 14.56 110.114 14.56C109.394 14.56 108.767 14.7067 108.234 15ZM130.842 10.28C132.095 10.28 133.402 10.3733 134.762 10.56C136.122 10.72 137.708 10.9467 139.522 11.24V27.16C139.522 30.9733 138.255 33.9333 135.722 36.04C135.402 36.3067 134.682 36.5333 133.562 36.72C132.442 36.9067 131.175 37 129.762 37C126.695 37 124.268 36.6 122.482 35.8C122.455 35.2133 122.495 34.44 122.602 33.48C122.735 32.52 122.868 31.76 123.002 31.2C124.922 31.4933 126.802 31.64 128.642 31.64C129.575 31.64 130.362 31.5867 131.002 31.48C131.668 31.4 132.082 31.2667 132.242 31.08C132.455 30.8667 132.615 30.0667 132.722 28.68C132.748 28.3067 132.762 27.76 132.762 27.04V26.04C132.095 27.0267 131.242 27.7333 130.202 28.16C129.162 28.5867 128.228 28.8 127.402 28.8C125.162 28.8 123.468 28.0667 122.322 26.6C121.175 25.1333 120.602 22.9867 120.602 20.16C120.602 18.2933 120.855 16.5467 121.362 14.92C121.895 13.2667 122.615 12.12 123.522 11.48C124.108 11.08 125.055 10.7867 126.362 10.6C127.695 10.3867 129.188 10.28 130.842 10.28ZM130.002 23.8C130.988 23.8 131.882 23.64 132.682 23.32V14.96C132.388 14.9067 131.948 14.8533 131.362 14.8C131.095 14.7733 130.695 14.76 130.162 14.76C129.335 14.76 128.815 14.84 128.602 15C128.308 15.2133 128.068 15.8133 127.882 16.8C127.722 17.76 127.642 18.7733 127.642 19.84C127.642 21.3067 127.802 22.3333 128.122 22.92C128.468 23.5067 129.095 23.8 130.002 23.8ZM153.725 29L153.085 26.48C151.858 28.48 150.152 29.48 147.965 29.48C146.178 29.48 144.712 28.9867 143.565 28C142.445 26.9867 141.885 25.5733 141.885 23.76C141.885 22.64 142.205 21.6667 142.845 20.84C143.512 19.9867 144.418 19.3867 145.565 19.04C147.058 18.6133 149.365 18.3733 152.485 18.32C152.485 16.56 152.405 15.6267 152.245 15.52C152.112 15.4133 151.685 15.36 150.965 15.36C150.512 15.36 149.885 15.3867 149.085 15.44C147.805 15.4933 146.072 15.64 143.885 15.88C143.672 14.44 143.512 12.8933 143.405 11.24C144.818 10.9467 146.298 10.7067 147.845 10.52C149.392 10.3067 150.778 10.2 152.005 10.2C154.138 10.2 155.738 10.56 156.805 11.28C157.872 11.9733 158.565 12.8933 158.885 14.04C159.205 15.1867 159.352 16.64 159.325 18.4L159.285 24.28L159.405 29H153.725ZM150.285 25C150.978 25 151.712 24.8667 152.485 24.6V21.64H152.165C150.192 21.64 149.098 21.7467 148.885 21.96C148.752 22.0933 148.645 22.2933 148.565 22.56C148.512 22.8267 148.485 23.08 148.485 23.32C148.485 23.96 148.632 24.4 148.925 24.64C149.218 24.88 149.672 25 150.285 25Z" fill="white"/>
<path d="M20.1866 4.72H23.1866V1.59542L20.0646 1.72248L20.1866 4.72ZM20.1866 29V32H23.1866V29H20.1866ZM14.5466 29L11.595 29.5367L12.0428 32H14.5466V29ZM13.9866 25.92L16.9382 25.3833L15.3552 16.6768L11.3171 24.551L13.9866 25.92ZM11.6266 28.4L13.1505 30.9841L13.1505 30.9841L11.6266 28.4ZM3.10656 27.08L0.788384 28.9842L0.798447 28.9965L0.80864 29.0086L3.10656 27.08ZM2.06656 14.76L4.88594 15.7852V15.7852L2.06656 14.76ZM3.94656 11.6L1.96169 9.35047L1.95347 9.35777L3.94656 11.6ZM6.70656 10.6L6.15033 7.652L6.14002 7.65398L6.70656 10.6ZM13.4266 10.48L12.8831 13.4304L16.6603 14.1262L16.4207 10.2929L13.4266 10.48ZM13.3066 5L13.1846 2.00248L10.3066 2.11961V5H13.3066ZM13.3466 23.6L14.2358 26.4652L16.3466 25.8101V23.6H13.3466ZM13.3466 14.92H16.3466V12.3054L13.7565 11.9481L13.3466 14.92ZM9.26656 14.96L7.67657 12.416L7.58724 12.4718L7.50205 12.5338L9.26656 14.96ZM8.54656 16.8L5.5962 16.2565L5.59039 16.2881L5.58525 16.3198L8.54656 16.8ZM9.02656 23.16L6.79668 25.1669L6.82372 25.1969L6.85156 25.2262L9.02656 23.16ZM17.1866 4.72V29H23.1866V4.72H17.1866ZM20.1866 26H14.5466V32H20.1866V26ZM17.4982 28.4633L16.9382 25.3833L11.035 26.4567L11.595 29.5367L17.4982 28.4633ZM11.3171 24.551C11.0518 25.0684 10.6705 25.481 10.1026 25.8159L13.1505 30.9841C14.6626 30.0923 15.8547 28.8516 16.656 27.2889L11.3171 24.551ZM10.1026 25.8159C9.56205 26.1347 8.92278 26.32 8.10656 26.32V32.32C9.90368 32.32 11.6111 31.892 13.1505 30.9841L10.1026 25.8159ZM8.10656 26.32C6.84556 26.32 6.04569 25.9154 5.40449 25.1514L0.80864 29.0086C2.6741 31.2313 5.20756 32.32 8.10656 32.32V26.32ZM5.42474 25.1758C4.82316 24.4434 4.26656 23.0119 4.26656 20.36H-1.73344C-1.73344 23.6814 -1.06336 26.7299 0.788384 28.9842L5.42474 25.1758ZM4.26656 20.36C4.26656 18.2989 4.51303 16.8107 4.88594 15.7852L-0.752817 13.7348C-1.44657 15.6426 -1.73344 17.8878 -1.73344 20.36H4.26656ZM4.88594 15.7852C5.3433 14.5275 5.75425 14.007 5.93965 13.8422L1.95347 9.35777C0.698871 10.473 -0.14351 12.0592 -0.752818 13.7348L4.88594 15.7852ZM5.93143 13.8495C5.82867 13.9402 5.76541 13.9705 5.78716 13.9588C5.80558 13.949 5.8704 13.917 5.99851 13.8706C6.26111 13.7754 6.67309 13.6614 7.2731 13.546L6.14002 7.65398C5.35337 7.80526 4.61201 7.99124 3.95462 8.22943C3.33247 8.45484 2.59134 8.79492 1.9617 9.35048L5.93143 13.8495ZM7.26279 13.548C8.54646 13.3058 9.60755 13.2 10.4666 13.2V7.2C9.13891 7.2 7.69333 7.36088 6.15034 7.65201L7.26279 13.548ZM10.4666 13.2C11.2315 13.2 12.036 13.2743 12.8831 13.4304L13.9701 7.52964C12.7904 7.31234 11.6216 7.2 10.4666 7.2V13.2ZM16.4207 10.2929C16.3808 9.65485 16.3513 9.16503 16.3318 8.82046C16.322 8.6476 16.3151 8.51688 16.3107 8.4248C16.305 8.30525 16.3066 8.30918 16.3066 8.36H10.3066C10.3066 8.616 10.3574 9.46706 10.4324 10.6671L16.4207 10.2929ZM16.3066 8.36V5H10.3066V8.36H16.3066ZM13.4286 7.99752L20.3086 7.71752L20.0646 1.72248L13.1846 2.00248L13.4286 7.99752ZM11.1066 26.96C12.163 26.96 13.2098 26.7836 14.2358 26.4652L12.4574 20.7348C11.9366 20.8964 11.4902 20.96 11.1066 20.96V26.96ZM16.3466 23.6V14.92H10.3466V23.6H16.3466ZM13.7565 11.9481C12.8241 11.8195 11.8314 11.76 10.7866 11.76V17.76C11.6084 17.76 12.3224 17.8071 12.9367 17.8919L13.7565 11.9481ZM10.7866 11.76C10.3199 11.76 9.84934 11.7785 9.4152 11.8356C9.08603 11.8789 8.35973 11.989 7.67657 12.416L10.8566 17.504C10.7084 17.5966 10.58 17.6557 10.4912 17.6918C10.4007 17.7286 10.3289 17.7507 10.2845 17.7631C10.2006 17.7864 10.1635 17.7889 10.1979 17.7844C10.2271 17.7805 10.29 17.7739 10.3944 17.7686C10.4971 17.7634 10.6268 17.76 10.7866 17.76V11.76ZM7.50205 12.5338C6.64866 13.1544 6.25484 14.0217 6.07283 14.4868C5.8558 15.0414 5.70711 15.6544 5.5962 16.2565L11.4969 17.3435C11.533 17.1477 11.5676 16.9937 11.5984 16.8761C11.6298 16.7564 11.6525 16.6932 11.6603 16.6732C11.6702 16.6479 11.6487 16.711 11.5775 16.8214C11.5104 16.9253 11.3428 17.1595 11.0311 17.3862L7.50205 12.5338ZM5.58525 16.3198C5.39723 17.4792 5.30656 18.6806 5.30656 19.92H11.3066C11.3066 18.9727 11.3759 18.0941 11.5079 17.2802L5.58525 16.3198ZM5.30656 19.92C5.30656 20.8601 5.37401 21.7729 5.558 22.6008C5.7346 23.3955 6.0725 24.3622 6.79668 25.1669L11.2564 21.1531C11.3883 21.2996 11.4417 21.4137 11.4511 21.4349C11.4606 21.4562 11.4419 21.4196 11.4151 21.2992C11.3591 21.0471 11.3066 20.6065 11.3066 19.92H5.30656ZM6.85156 25.2262C8.03441 26.4713 9.57855 26.96 11.1066 26.96V20.96C10.9682 20.96 10.9494 20.9392 11.0035 20.96C11.0303 20.9703 11.0663 20.9876 11.1057 21.0138C11.1452 21.0402 11.1776 21.0685 11.2016 21.0938L6.85156 25.2262ZM38.3481 24V21H38.238L38.1281 21.0081L38.3481 24ZM39.6681 23.92L42.6368 23.4877L42.2303 20.6961L39.419 20.9304L39.6681 23.92ZM40.2681 28.04L41.5387 30.7576L43.5581 29.8135L43.2368 27.6077L40.2681 28.04ZM25.1881 27.16L23.1209 29.3341L23.1298 29.3425L23.1387 29.3508L25.1881 27.16ZM23.3481 15.52L20.4636 14.6958L20.4567 14.7198L20.4503 14.7438L23.3481 15.52ZM24.7881 12.4L22.6181 10.3286L22.5929 10.355L22.5683 10.382L24.7881 12.4ZM27.9081 10.88L28.7189 13.7684L27.9081 10.88ZM37.8281 11.52L36.0896 13.9649V13.9649L37.8281 11.52ZM40.1881 15.08L37.2747 15.7956L37.2777 15.8076L40.1881 15.08ZM40.7481 21.12L40.9243 24.1148L43.7481 23.9487V21.12H40.7481ZM29.7481 21.28V18.28H26.7481V21.28H29.7481ZM30.2681 23.2L27.9398 25.0918L27.9743 25.1343L28.0104 25.1755L30.2681 23.2ZM31.8281 24.04L31.2398 26.9817L31.2968 26.9931L31.3542 27.0023L31.8281 24.04ZM30.1481 15L31.4898 17.6833L31.5424 17.657L31.5939 17.6286L30.1481 15ZM29.7881 16.04L32.7629 16.428V16.428L29.7881 16.04ZM29.6281 18.12L26.6299 18.0166L26.5229 21.12H29.6281V18.12ZM34.4281 18.08L34.5708 21.0766L37.4281 20.9405V18.08H34.4281ZM33.8681 15.36L31.3528 16.995L31.3809 17.0382L31.4104 17.0804L33.8681 15.36ZM34.6281 27.2C35.4205 27.2 36.7652 27.1245 38.5681 26.9919L38.1281 21.0081C36.3044 21.1422 35.1691 21.2 34.6281 21.2V27.2ZM38.3481 27C38.7299 27 39.2873 26.9621 39.9173 26.9096L39.419 20.9304C38.769 20.9845 38.4464 21 38.3481 21V27ZM36.6994 24.3523L37.2994 28.4723L43.2368 27.6077L42.6368 23.4877L36.6994 24.3523ZM38.9975 25.3224C37.4788 26.0324 35.2904 26.48 32.2681 26.48V32.48C35.8058 32.48 38.9508 31.9676 41.5387 30.7576L38.9975 25.3224ZM32.2681 26.48C29.6881 26.48 28.1628 25.8347 27.2376 24.9692L23.1387 29.3508C25.5201 31.5786 28.7148 32.48 32.2681 32.48V26.48ZM27.2553 24.9859C26.4266 24.198 25.7481 22.7869 25.7481 20.16H19.7481C19.7481 23.7731 20.6963 27.0287 23.1209 29.3341L27.2553 24.9859ZM25.7481 20.16C25.7481 18.8129 25.9161 17.5276 26.246 16.2962L20.4503 14.7438C19.9801 16.499 19.7481 18.3071 19.7481 20.16H25.7481ZM26.2327 16.3442C26.4175 15.6974 26.5947 15.2179 26.752 14.8772C26.9155 14.5228 27.0164 14.4087 27.0079 14.418L22.5683 10.382C21.5494 11.5027 20.9179 13.1055 20.4636 14.6958L26.2327 16.3442ZM26.9582 14.4714C26.9115 14.5204 26.977 14.4353 27.302 14.277C27.6141 14.1249 28.0741 13.9493 28.7189 13.7684L27.0974 7.99163C25.4655 8.44969 23.7606 9.13166 22.6181 10.3286L26.9582 14.4714ZM28.7189 13.7684C29.9901 13.4115 31.2241 13.24 32.4281 13.24V7.24C30.6455 7.24 28.8662 7.49513 27.0974 7.99163L28.7189 13.7684ZM32.4281 13.24C34.5635 13.24 35.6271 13.636 36.0896 13.9649L39.5667 9.07513C37.6291 7.69732 35.0928 7.24 32.4281 7.24V13.24ZM36.0896 13.9649C36.6644 14.3737 37.0613 14.9265 37.2747 15.7956L43.1015 14.3644C42.5683 12.1935 41.3918 10.373 39.5667 9.07513L36.0896 13.9649ZM37.2777 15.8076C37.5658 16.9599 37.7481 18.6961 37.7481 21.12H43.7481C43.7481 18.4772 43.5572 16.1868 43.0986 14.3524L37.2777 15.8076ZM40.572 18.1252C38.8145 18.2286 37.1 18.28 35.4281 18.28V24.28C37.2229 24.28 39.0551 24.2248 40.9243 24.1148L40.572 18.1252ZM35.4281 18.28H29.7481V24.28H35.4281V18.28ZM26.7481 21.28C26.7481 22.4621 26.9758 23.9053 27.9398 25.0918L32.5965 21.3082C32.7363 21.4803 32.773 21.6128 32.7738 21.6158C32.7742 21.6171 32.7673 21.592 32.7606 21.5341C32.7539 21.4764 32.7481 21.3929 32.7481 21.28H26.7481ZM28.0104 25.1755C28.9003 26.1925 30.0585 26.7455 31.2398 26.9817L32.4165 21.0983C32.3314 21.0812 32.3228 21.0683 32.3604 21.0886C32.3792 21.0987 32.4059 21.1152 32.4368 21.1397C32.4679 21.1642 32.4982 21.1929 32.5259 21.2245L28.0104 25.1755ZM31.3542 27.0023C32.2534 27.1462 33.3711 27.2 34.6281 27.2V21.2C33.4851 21.2 32.7362 21.1471 32.3021 21.0777L31.3542 27.0023ZM28.8065 12.3167C27.5806 12.9297 27.1895 14.0893 27.1032 14.3387C26.9466 14.7909 26.8644 15.2605 26.8133 15.652L32.7629 16.428C32.7919 16.2061 32.8096 16.1957 32.7731 16.3013C32.7541 16.3562 32.6897 16.5336 32.5438 16.756C32.4052 16.9671 32.0832 17.3866 31.4898 17.6833L28.8065 12.3167ZM26.8133 15.652C26.7184 16.3797 26.6591 17.1705 26.6299 18.0166L32.6263 18.2234C32.6505 17.5228 32.6978 16.927 32.7629 16.428L26.8133 15.652ZM29.6281 21.12H31.7081V15.12H29.6281V21.12ZM31.7081 21.12C32.9657 21.12 33.9339 21.1069 34.5708 21.0766L34.2854 15.0834C33.8023 15.1064 32.9572 15.12 31.7081 15.12V21.12ZM37.4281 18.08C37.4281 16.6824 37.2579 14.9711 36.3258 13.6396L31.4104 17.0804C31.2855 16.902 31.3067 16.8358 31.3498 17.045C31.3899 17.24 31.4281 17.5721 31.4281 18.08H37.4281ZM36.3835 13.725C35.285 12.0351 33.496 11.56 32.0281 11.56V17.56C32.1803 17.56 32.1217 17.585 31.9519 17.5112C31.8622 17.4722 31.7514 17.4096 31.6376 17.3147C31.5227 17.219 31.4268 17.1088 31.3528 16.995L36.3835 13.725ZM32.0281 11.56C30.8952 11.56 29.7532 11.7934 28.7024 12.3714L31.5939 17.6286C31.6097 17.62 31.7211 17.56 32.0281 17.56V11.56ZM55.7556 27.88L54.0616 25.4041L54.0513 25.4111L54.0411 25.4182L55.7556 27.88ZM42.6356 28.6L39.6505 28.3015L39.3853 30.9539L41.9881 31.5293L42.6356 28.6ZM42.9956 26.32L40.06 25.702L40.0536 25.7321L40.0479 25.7623L42.9956 26.32ZM43.5156 24L44.0088 21.0408L41.2769 20.5855L40.6052 23.2724L43.5156 24ZM46.7156 24.4L46.444 27.3877L46.4778 27.3907L46.5116 27.3931L46.7156 24.4ZM51.0356 24.4L52.3773 27.0833L52.8127 26.8656L53.1569 26.5213L51.0356 24.4ZM51.1156 24.2L48.3302 23.0858L48.2546 23.2749L48.2052 23.4724L51.1156 24.2ZM50.1956 22.72L51.0045 19.8311L50.964 19.8198L50.9232 19.8096L50.1956 22.72ZM47.7556 22.04L46.9387 24.9266L47.7556 22.04ZM44.2756 19.88L41.9615 21.7891L41.9875 21.8206L42.0143 21.8514L44.2756 19.88ZM43.5156 13.16L40.7006 12.1229V12.1229L43.5156 13.16ZM44.7156 11.24L46.3056 13.784L46.343 13.7606L46.3797 13.7362L44.7156 11.24ZM47.0356 10.6L47.5496 13.5556L47.5807 13.5502L47.6117 13.5442L47.0356 10.6ZM57.1156 10.72H60.1156V8.11811L57.5399 7.75015L57.1156 10.72ZM56.9156 13.16L59.8946 13.5146L59.8955 13.5065L56.9156 13.16ZM56.5556 15.28L56.1706 18.2552L58.5538 18.5636L59.375 16.3052L56.5556 15.28ZM49.6756 14.96L48.6223 12.151L48.4748 12.2063L48.334 12.2767L49.6756 14.96ZM49.5156 15.2L52.1989 16.5416L52.2547 16.43L52.3011 16.3142L49.5156 15.2ZM49.7956 16.44L51.6374 14.0719L51.5509 14.0047L51.4597 13.9439L49.7956 16.44ZM51.6756 17.12L52.5082 14.2379L52.4738 14.2279L52.4391 14.2188L51.6756 17.12ZM54.7556 18.2L53.5532 20.9485L53.5685 20.9552L53.584 20.9617L54.7556 18.2ZM57.0356 19.88L54.7579 21.8324L54.7776 21.8554L54.7978 21.878L57.0356 19.88ZM55.0356 22.76C55.0356 24.4621 54.5322 25.0821 54.0616 25.4041L57.4497 30.3559C60.0191 28.5979 61.0356 25.8045 61.0356 22.76H55.0356ZM54.0411 25.4182C53.2514 25.9682 51.8168 26.44 49.3556 26.44V32.44C52.4411 32.44 55.2732 31.8718 57.4701 30.3418L54.0411 25.4182ZM49.3556 26.44C47.6849 26.44 45.6694 26.1982 43.2831 25.6707L41.9881 31.5293C44.6685 32.1218 47.133 32.44 49.3556 32.44V26.44ZM45.6207 28.8985C45.6609 28.4969 45.7615 27.8387 45.9433 26.8777L40.0479 25.7623C39.8564 26.7746 39.717 27.6364 39.6505 28.3015L45.6207 28.8985ZM45.9313 26.938C46.1423 25.9354 46.3065 25.2057 46.4261 24.7276L40.6052 23.2724C40.4581 23.861 40.2756 24.6779 40.06 25.702L45.9313 26.938ZM43.0224 26.9592C44.0693 27.1337 45.2113 27.2756 46.444 27.3877L46.9872 21.4123C45.8733 21.3111 44.882 21.1863 44.0088 21.0408L43.0224 26.9592ZM46.5116 27.3931C47.727 27.4759 48.7992 27.52 49.7156 27.52V21.52C48.9787 21.52 48.0509 21.4841 46.9197 21.4069L46.5116 27.3931ZM49.7156 27.52C50.1176 27.52 50.5088 27.5094 50.8572 27.4777C51.0585 27.4594 51.7339 27.4049 52.3773 27.0833L49.694 21.7167C49.7832 21.6721 49.8621 21.6389 49.9254 21.6145C49.9892 21.5899 50.0447 21.5716 50.089 21.5581C50.1753 21.5319 50.2406 21.5176 50.2748 21.5108C50.3108 21.5036 50.3325 21.5006 50.3357 21.5001C50.3397 21.4996 50.3331 21.5006 50.314 21.5023C50.2741 21.5059 50.2048 21.5107 50.0997 21.5143C49.9962 21.5179 49.869 21.52 49.7156 21.52V27.52ZM53.1569 26.5213C53.613 26.0652 53.8086 25.5754 53.8611 25.4442C53.9437 25.2375 53.9951 25.0513 54.0261 24.9276L48.2052 23.4724C48.2094 23.4554 48.2342 23.3558 48.2902 23.2158C48.3191 23.1436 48.3703 23.0251 48.4509 22.8841C48.5254 22.7537 48.6713 22.5217 48.9143 22.2787L53.1569 26.5213ZM53.9011 25.3142C54.0851 24.854 54.1956 24.3435 54.1956 23.8H48.1956C48.1956 23.5231 48.2528 23.2793 48.3302 23.0858L53.9011 25.3142ZM54.1956 23.8C54.1956 22.8492 53.8738 21.8768 53.1469 21.0918C52.4793 20.3707 51.6626 20.0154 51.0045 19.8311L49.3867 25.6089C49.3793 25.6068 49.306 25.586 49.1941 25.5248C49.0796 25.4622 48.9136 25.3511 48.7443 25.1682C48.3508 24.7432 48.1956 24.2174 48.1956 23.8H54.1956ZM50.9232 19.8096C50.7677 19.7707 50.0164 19.562 48.5726 19.1534L46.9387 24.9266C48.3215 25.318 49.1969 25.5626 49.468 25.6304L50.9232 19.8096ZM48.5726 19.1534C47.6814 18.9011 47.036 18.4811 46.5369 17.9086L42.0143 21.8514C43.3286 23.3589 45.0032 24.3789 46.9387 24.9266L48.5726 19.1534ZM46.5897 17.9708C46.2137 17.5151 45.9556 16.8982 45.9556 15.92H39.9556C39.9556 18.0885 40.5775 20.1116 41.9615 21.7891L46.5897 17.9708ZM45.9556 15.92C45.9556 15.5371 46.0442 14.9747 46.3307 14.1971L40.7006 12.1229C40.2404 13.372 39.9556 14.6496 39.9556 15.92H45.9556ZM46.3307 14.1971C46.3999 14.0092 46.463 13.8588 46.5181 13.7411C46.5736 13.6223 46.6154 13.5487 46.6396 13.51C46.6647 13.4698 46.66 13.4847 46.6175 13.5313C46.5754 13.5774 46.4749 13.6782 46.3056 13.784L43.1256 8.69601C42.3815 9.16107 41.8827 9.80023 41.5516 10.33C41.207 10.8813 40.9307 11.4982 40.7006 12.1229L46.3307 14.1971ZM46.3797 13.7362C46.2122 13.8478 46.1026 13.8859 46.1313 13.8747C46.1446 13.8695 46.2061 13.8471 46.3334 13.812C46.5904 13.7411 46.986 13.6537 47.5496 13.5556L46.5216 7.64436C45.8586 7.75967 45.2541 7.88559 44.7378 8.02802C44.3026 8.1481 43.6343 8.35532 43.0515 8.74385L46.3797 13.7362ZM47.6117 13.5442C48.6852 13.3341 49.6231 13.24 50.4356 13.24V7.24C49.1682 7.24 47.8394 7.38586 46.4596 7.65582L47.6117 13.5442ZM50.4356 13.24C52.5039 13.24 54.5888 13.3895 56.6914 13.6898L57.5399 7.75015C55.1625 7.41052 52.794 7.24 50.4356 7.24V13.24ZM54.1156 10.72C54.1156 11.0082 54.069 11.6671 53.9357 12.8135L59.8955 13.5065C60.0289 12.3596 60.1156 11.3918 60.1156 10.72H54.1156ZM53.9367 12.8054C53.873 13.3405 53.8163 13.7429 53.768 14.0278C53.7438 14.1699 53.7249 14.2639 53.7123 14.3193C53.6966 14.3887 53.7015 14.3505 53.7362 14.2548L59.375 16.3052C59.5293 15.8809 59.6217 15.3951 59.6833 15.0322C59.7549 14.6105 59.825 14.0995 59.8946 13.5146L53.9367 12.8054ZM56.9407 12.3048C54.6167 12.0041 52.6465 11.84 51.0756 11.84V17.84C52.2781 17.84 53.9612 17.9693 56.1706 18.2552L56.9407 12.3048ZM51.0756 11.84C50.6702 11.84 50.2803 11.8509 49.9294 11.881C49.6472 11.9051 49.1336 11.9593 48.6223 12.151L50.729 17.769C50.6297 17.8062 50.5508 17.8282 50.5033 17.8402C50.4542 17.8527 50.4197 17.8592 50.4045 17.8619C50.377 17.8667 50.385 17.8639 50.4418 17.859C50.5577 17.8491 50.761 17.84 51.0756 17.84V11.84ZM48.334 12.2767C47.6373 12.6251 47.2564 13.1405 47.0995 13.3759C46.9162 13.6508 46.8002 13.9109 46.7302 14.0858L52.3011 16.3142C52.2844 16.3558 52.2217 16.5092 52.0918 16.7041C51.9882 16.8595 51.6606 17.3216 51.0173 17.6433L48.334 12.2767ZM46.8323 13.8584C46.4858 14.5515 46.4356 15.2246 46.4356 15.64H52.4356C52.4356 15.6838 52.4329 15.7853 52.4072 15.9267C52.3818 16.0664 52.3265 16.2865 52.1989 16.5416L46.8323 13.8584ZM46.4356 15.64C46.4356 16.6858 46.815 18.0584 48.1315 18.9361L51.4597 13.9439C51.8155 14.181 52.0935 14.5158 52.2614 14.8889C52.4167 15.234 52.4356 15.5154 52.4356 15.64H46.4356ZM47.9538 18.8081C48.4756 19.2139 49.0826 19.4472 49.4252 19.5711C49.8564 19.7271 50.3617 19.8764 50.9121 20.0212L52.4391 14.2188C51.9762 14.097 51.6615 13.9996 51.466 13.9289C51.3691 13.8938 51.333 13.8766 51.3395 13.8797C51.3444 13.882 51.3726 13.8955 51.417 13.9215C51.4591 13.9461 51.5386 13.9951 51.6374 14.0719L47.9538 18.8081ZM50.843 20.0021C51.9565 20.3238 52.8526 20.642 53.5532 20.9485L55.9581 15.4515C54.9519 15.0113 53.7948 14.6095 52.5082 14.2379L50.843 20.0021ZM53.584 20.9617C54.0253 21.149 54.4102 21.4268 54.7579 21.8324L59.3134 17.9276C58.381 16.8399 57.246 15.9977 55.9273 15.4383L53.584 20.9617ZM54.7978 21.878C54.8908 21.9822 55.0356 22.1892 55.0356 22.76H61.0356C61.0356 20.9842 60.5137 19.2711 59.2734 17.882L54.7978 21.878ZM71.2641 29L68.3564 29.7385L68.9307 32H71.2641V29ZM70.6241 26.48L73.5318 25.7415L71.7824 18.8534L68.0667 24.9115L70.6241 26.48ZM61.1041 28L59.0913 30.2246L59.119 30.2497L59.1473 30.274L61.1041 28ZM60.3841 20.84L58.02 18.993L58.0119 19.0035L60.3841 20.84ZM63.1041 19.04L62.2799 16.1554L62.2578 16.1617L62.2359 16.1684L63.1041 19.04ZM70.0241 18.32L70.0753 21.3196L73.0241 21.2692V18.32H70.0241ZM69.7841 15.52L67.91 17.8626L68.0116 17.9439L68.12 18.0161L69.7841 15.52ZM66.6241 15.44L66.749 18.4374L66.7863 18.4358L66.8236 18.4334L66.6241 15.44ZM61.4241 15.88L58.4565 16.3196L58.8798 19.1773L61.7514 18.8621L61.4241 15.88ZM60.9441 11.24L60.3344 8.3026L57.7825 8.83224L57.9503 11.4331L60.9441 11.24ZM65.3841 10.52L65.7435 13.4984L65.7688 13.4953L65.794 13.4919L65.3841 10.52ZM74.3441 11.28L72.6656 13.7665L72.6872 13.7811L72.7091 13.7953L74.3441 11.28ZM76.4241 14.04L79.3137 13.2336V13.2336L76.4241 14.04ZM76.8641 18.4L73.8644 18.3545L73.8642 18.3671L73.8641 18.3796L76.8641 18.4ZM76.8241 24.28L73.8241 24.2596L73.8238 24.3079L73.825 24.3562L76.8241 24.28ZM76.9441 29V32H80.0213L79.9431 28.9238L76.9441 29ZM70.0241 24.6L71.002 27.4361L73.0241 26.7389V24.6H70.0241ZM70.0241 21.64H73.0241V18.64H70.0241V21.64ZM66.4241 21.96L64.3027 19.8387V19.8387L66.4241 21.96ZM66.1041 22.56L63.2306 21.698L63.19 21.8332L63.1623 21.9717L66.1041 22.56ZM66.4641 24.64L64.5643 26.9619V26.9619L66.4641 24.64ZM74.1718 28.2615L73.5318 25.7415L67.7164 27.2185L68.3564 29.7385L74.1718 28.2615ZM68.0667 24.9115C67.3375 26.1004 66.5586 26.48 65.5041 26.48V32.48C68.8228 32.48 71.4572 30.8596 73.1814 28.0485L68.0667 24.9115ZM65.5041 26.48C64.2987 26.48 63.5677 26.1621 63.0608 25.726L59.1473 30.274C60.9338 31.8112 63.1361 32.48 65.5041 32.48V26.48ZM63.1168 25.7754C62.7506 25.4441 62.4241 24.9106 62.4241 23.76H56.4241C56.4241 26.2361 57.2175 28.5293 59.0913 30.2246L63.1168 25.7754ZM62.4241 23.76C62.4241 23.2542 62.5532 22.9388 62.7562 22.6765L58.0119 19.0035C56.935 20.3945 56.4241 22.0258 56.4241 23.76H62.4241ZM62.7481 22.6869C62.9935 22.3728 63.3521 22.0991 63.9722 21.9116L62.2359 16.1684C60.5627 16.6742 59.1079 17.6005 58.02 18.9931L62.7481 22.6869ZM63.9282 21.9246C65.0279 21.6104 67.0096 21.372 70.0753 21.3196L69.9728 15.3204C66.7985 15.3747 64.1668 15.6163 62.2799 16.1554L63.9282 21.9246ZM73.0241 18.32C73.0241 17.4147 73.0042 16.6398 72.9531 16.0438C72.9286 15.7577 72.8891 15.4136 72.8122 15.0804C72.7748 14.9183 72.7066 14.6597 72.5793 14.3749C72.488 14.1706 72.181 13.5124 71.4482 13.0239L68.12 18.0161C67.7435 17.7652 67.506 17.4811 67.3719 17.2934C67.2341 17.1004 67.1493 16.93 67.1013 16.8226C67.009 16.6161 66.9733 16.4617 66.9659 16.4296C66.949 16.3564 66.9595 16.3756 66.975 16.5562C67.0039 16.8935 67.0241 17.4653 67.0241 18.32H73.0241ZM71.6581 13.1774C71.1693 12.7863 70.6738 12.6284 70.4532 12.5654C70.1834 12.4883 69.9309 12.4475 69.7362 12.4232C69.3448 12.3742 68.9176 12.36 68.5041 12.36V18.36C68.8105 18.36 68.9566 18.3724 68.992 18.3768C69.0106 18.3792 68.9347 18.3717 68.8049 18.3346C68.7368 18.3151 68.6239 18.2791 68.4856 18.2166C68.3525 18.1565 68.1411 18.0475 67.91 17.8626L71.6581 13.1774ZM68.5041 12.36C67.9523 12.36 67.2489 12.3917 66.4245 12.4466L66.8236 18.4334C67.5992 18.3816 68.1492 18.36 68.5041 18.36V12.36ZM66.4992 12.4426C65.1205 12.5 63.3105 12.6549 61.0968 12.8979L61.7514 18.8621C63.911 18.6251 65.5676 18.4866 66.749 18.4374L66.4992 12.4426ZM64.3917 15.4404C64.192 14.0924 64.0399 12.6287 63.9378 11.0469L57.9503 11.4331C58.0616 13.158 58.2295 14.7876 58.4565 16.3196L64.3917 15.4404ZM61.5537 14.1774C62.8781 13.9025 64.2743 13.6757 65.7435 13.4984L65.0246 7.54161C63.4005 7.73762 61.8367 7.9908 60.3344 8.3026L61.5537 14.1774ZM65.794 13.4919C67.2395 13.2925 68.4856 13.2 69.5441 13.2V7.2C68.1492 7.2 66.622 7.32085 64.9742 7.54814L65.794 13.4919ZM69.5441 13.2C71.434 13.2 72.3241 13.536 72.6656 13.7665L76.0225 8.79345C74.2307 7.58397 71.9208 7.2 69.5441 7.2V13.2ZM72.7091 13.7953C73.2092 14.1204 73.4249 14.4538 73.5345 14.8464L79.3137 13.2336C78.7832 11.3328 77.6123 9.82628 75.979 8.76467L72.7091 13.7953ZM73.5345 14.8464C73.7497 15.6177 73.8886 16.7586 73.8644 18.3545L79.8637 18.4454C79.8929 16.5214 79.7384 14.7557 79.3137 13.2336L73.5345 14.8464ZM73.8641 18.3796L73.8241 24.2596L79.824 24.3004L79.864 18.4204L73.8641 18.3796ZM73.825 24.3562L73.945 29.0762L79.9431 28.9238L79.8231 24.2038L73.825 24.3562ZM76.9441 26H71.2641V32H76.9441V26ZM67.8241 28C68.904 28 69.9692 27.7923 71.002 27.4361L69.0461 21.7639C68.5322 21.9411 68.1308 22 67.8241 22V28ZM73.0241 24.6V21.64H67.0241V24.6H73.0241ZM70.0241 18.64H69.7041V24.64H70.0241V18.64ZM69.7041 18.64C68.6835 18.64 67.8036 18.6668 67.1128 18.7342C66.7741 18.7672 66.3966 18.8177 66.0355 18.9061C65.8473 18.9522 64.9958 19.1456 64.3027 19.8387L68.5454 24.0813C68.1956 24.4311 67.852 24.5886 67.7322 24.6402C67.584 24.7041 67.4808 24.7295 67.4627 24.7339C67.4282 24.7423 67.4874 24.7261 67.6954 24.7058C68.0978 24.6666 68.7513 24.64 69.7041 24.64V18.64ZM64.3027 19.8387C63.6906 20.4508 63.3903 21.1656 63.2306 21.698L68.9775 23.422C68.9728 23.4377 68.9496 23.5121 68.8911 23.6218C68.8324 23.732 68.7253 23.9014 68.5454 24.0813L64.3027 19.8387ZM63.1623 21.9717C63.0753 22.4069 63.0241 22.8584 63.0241 23.32H69.0241C69.0241 23.3016 69.0262 23.2464 69.0458 23.1483L63.1623 21.9717ZM63.0241 23.32C63.0241 24.2584 63.2145 25.8574 64.5643 26.9619L68.3638 22.3181C68.7451 22.6301 68.9144 22.9841 68.9801 23.1813C69.0393 23.3588 69.0241 23.4309 69.0241 23.32H63.0241ZM64.5643 26.9619C65.6372 27.8397 66.917 28 67.8241 28V22C67.7019 22 67.7047 21.9869 67.7917 22.0099C67.8836 22.0342 68.1098 22.1103 68.3638 22.3181L64.5643 26.9619ZM97.1525 12.12L94.8948 14.0955L94.9167 14.1205L94.9391 14.145L97.1525 12.12ZM98.1925 24.48L101.059 25.3659L101.061 25.3587L101.063 25.3514L98.1925 24.48ZM96.6325 27.4L98.5322 29.7219L98.5322 29.7219L96.6325 27.4ZM93.5525 28.56L92.9641 25.6182L92.9537 25.6204L93.5525 28.56ZM86.7925 28.92L86.9423 25.9237L83.7925 25.7663V28.92H86.7925ZM86.7925 34.6L86.9152 37.5975L89.7925 37.4797V34.6H86.7925ZM79.9525 34.88H76.9525V38.0053L80.0752 37.8775L79.9525 34.88ZM79.9525 10.6V7.6H76.9525V10.6H79.9525ZM85.5525 10.6L88.47 9.90143L87.919 7.6H85.5525V10.6ZM86.2325 13.44L83.315 14.1386L84.8635 20.6061L88.6871 15.1648L86.2325 13.44ZM88.8725 11.08L87.454 8.43652L87.4404 8.44386L87.4267 8.45135L88.8725 11.08ZM90.9925 24.12L89.228 21.6938L89.148 21.752L89.0719 21.8153L90.9925 24.12ZM91.6325 22.32L94.6055 22.7218L94.6069 22.7114L91.6325 22.32ZM91.2725 16.12L88.6092 17.501V17.501L91.2725 16.12ZM86.7925 15.28L86.1179 12.3568L83.7925 12.8935V15.28H86.7925ZM86.7925 24.16H83.7925V26.8557L86.4729 27.1429L86.7925 24.16ZM87.9125 24.28L87.5929 27.2629L87.6376 27.2677L87.6824 27.2712L87.9125 24.28ZM92.5925 13.2C93.7717 13.2 94.4215 13.5546 94.8948 14.0955L99.4102 10.1445C97.6435 8.12542 95.2533 7.2 92.5925 7.2V13.2ZM94.9391 14.145C95.2955 14.5346 95.8725 15.7545 95.8725 18.72H101.872C101.872 15.3922 101.303 12.212 99.3659 10.095L94.9391 14.145ZM95.8725 18.72C95.8725 20.9042 95.6579 22.5016 95.3219 23.6086L101.063 25.3514C101.634 23.4717 101.872 21.2291 101.872 18.72H95.8725ZM95.3263 23.5941C95.1359 24.2099 94.9592 24.6291 94.8164 24.8964C94.6651 25.1797 94.6137 25.1755 94.7328 25.0781L98.5322 29.7219C99.8481 28.6453 100.578 26.9219 101.059 25.3659L95.3263 23.5941ZM94.7328 25.0781C94.7775 25.0416 94.6974 25.1174 94.3651 25.2425C94.0477 25.3621 93.5909 25.4929 92.9641 25.6183L94.1408 31.5017C95.7065 31.1886 97.3488 30.6902 98.5322 29.7219L94.7328 25.0781ZM92.9537 25.6204C91.7208 25.8715 90.4285 26 89.0725 26V32C90.8098 32 92.5042 31.8351 94.1513 31.4996L92.9537 25.6204ZM89.0725 26C88.7014 26 88.0076 25.977 86.9423 25.9237L86.6427 31.9163C87.7108 31.9697 88.537 32 89.0725 32V26ZM83.7925 28.92V34.6H89.7925V28.92H83.7925ZM86.6698 31.6025L79.8298 31.8825L80.0752 37.8775L86.9152 37.5975L86.6698 31.6025ZM82.9525 34.88V10.6H76.9525V34.88H82.9525ZM79.9525 13.6H85.5525V7.6H79.9525V13.6ZM82.635 11.2986L83.315 14.1386L89.15 12.7414L88.47 9.90143L82.635 11.2986ZM88.6871 15.1648C89.1149 14.5561 89.6484 14.0771 90.3183 13.7086L87.4267 8.45135C85.9632 9.25627 84.7368 10.3506 83.7779 11.7152L88.6871 15.1648ZM90.291 13.7235C90.8988 13.3973 91.6417 13.2 92.5925 13.2V7.2C90.77 7.2 89.0328 7.58936 87.454 8.43652L90.291 13.7235ZM92.757 26.5462C93.6401 25.9039 94.0247 25.0056 94.1991 24.515C94.4027 23.9424 94.5247 23.3196 94.6055 22.7218L88.6595 21.9182C88.6347 22.102 88.6094 22.243 88.5866 22.3471C88.5754 22.3985 88.5656 22.4372 88.558 22.4647C88.5503 22.4923 88.5458 22.505 88.5459 22.505C88.546 22.5047 88.5475 22.5003 88.5508 22.4922C88.5541 22.4842 88.5593 22.4716 88.567 22.4551C88.5817 22.4234 88.6086 22.3697 88.6512 22.3013C88.7299 22.1748 88.9065 21.9276 89.228 21.6938L92.757 26.5462ZM94.6069 22.7114C94.7552 21.5843 94.8325 20.4928 94.8325 19.44H88.8325C88.8325 20.2006 88.7765 21.029 88.6581 21.9286L94.6069 22.7114ZM94.8325 19.44C94.8325 17.8063 94.6466 16.11 93.9358 14.739L88.6092 17.501C88.6091 17.5006 88.6745 17.6342 88.7343 17.989C88.7924 18.3338 88.8325 18.8095 88.8325 19.44H94.8325ZM93.9358 14.739C92.8547 12.6542 90.7836 12.04 89.0325 12.04V18.04C89.2917 18.04 89.2793 18.0845 89.1296 18.0123C89.0481 17.973 88.9441 17.9073 88.8401 17.807C88.7356 17.7063 88.6595 17.5979 88.6092 17.501L93.9358 14.739ZM89.0325 12.04C88.0331 12.04 87.0579 12.1399 86.1179 12.3568L87.4671 18.2032C87.9138 18.1001 88.4319 18.04 89.0325 18.04V12.04ZM83.7925 15.28V24.16H89.7925V15.28H83.7925ZM86.4729 27.1429L87.5929 27.2629L88.2321 21.2971L87.1121 21.1771L86.4729 27.1429ZM87.6824 27.2712C88.1443 27.3067 88.7279 27.32 89.3925 27.32V21.32C88.7771 21.32 88.3741 21.3066 88.1426 21.2888L87.6824 27.2712ZM89.3925 27.32C89.8983 27.32 90.3993 27.3025 90.8446 27.2468C91.0659 27.2192 91.3433 27.1738 91.634 27.09C91.8696 27.022 92.4012 26.8512 92.9131 26.4247L89.0719 21.8153C89.3096 21.6173 89.5278 21.5029 89.6601 21.4419C89.7984 21.3783 89.9091 21.3429 89.971 21.325C90.0884 21.2912 90.1458 21.2875 90.1004 21.2932C90.0655 21.2975 89.9902 21.3049 89.8638 21.3107C89.7399 21.3164 89.5841 21.32 89.3925 21.32V27.32ZM116.434 24V21H116.324L116.214 21.0081L116.434 24ZM117.754 23.92L120.723 23.4877L120.316 20.6961L117.505 20.9304L117.754 23.92ZM118.354 28.04L119.625 30.7576L121.644 29.8135L121.323 27.6077L118.354 28.04ZM103.274 27.16L101.207 29.3341L101.216 29.3425L101.225 29.3508L103.274 27.16ZM101.434 15.52L98.5495 14.6958L98.5427 14.7198L98.5362 14.7438L101.434 15.52ZM102.874 12.4L100.704 10.3286L100.679 10.355L100.654 10.382L102.874 12.4ZM105.994 10.88L106.805 13.7684L105.994 10.88ZM115.914 11.52L114.175 13.9649V13.9649L115.914 11.52ZM118.274 15.08L115.361 15.7956L115.364 15.8076L118.274 15.08ZM118.834 21.12L119.01 24.1148L121.834 23.9487V21.12H118.834ZM107.834 21.28V18.28H104.834V21.28H107.834ZM108.354 23.2L106.026 25.0918L106.06 25.1343L106.096 25.1755L108.354 23.2ZM109.914 24.04L109.326 26.9817L109.383 26.9931L109.44 27.0023L109.914 24.04ZM108.234 15L109.576 17.6833L109.628 17.657L109.68 17.6286L108.234 15ZM107.874 16.04L110.849 16.428V16.428L107.874 16.04ZM107.714 18.12L104.716 18.0166L104.609 21.12H107.714V18.12ZM112.514 18.08L112.657 21.0766L115.514 20.9405V18.08H112.514ZM111.954 15.36L109.439 16.995L109.467 17.0382L109.496 17.0804L111.954 15.36ZM112.714 27.2C113.506 27.2 114.851 27.1245 116.654 26.9919L116.214 21.0081C114.39 21.1422 113.255 21.2 112.714 21.2V27.2ZM116.434 27C116.816 27 117.373 26.9621 118.003 26.9096L117.505 20.9304C116.855 20.9845 116.532 21 116.434 21V27ZM114.785 24.3523L115.385 28.4723L121.323 27.6077L120.723 23.4877L114.785 24.3523ZM117.083 25.3224C115.565 26.0324 113.376 26.48 110.354 26.48V32.48C113.892 32.48 117.037 31.9676 119.625 30.7576L117.083 25.3224ZM110.354 26.48C107.774 26.48 106.249 25.8347 105.324 24.9692L101.225 29.3508C103.606 31.5786 106.801 32.48 110.354 32.48V26.48ZM105.341 24.9859C104.513 24.198 103.834 22.7869 103.834 20.16H97.8341C97.8341 23.7731 98.7822 27.0287 101.207 29.3341L105.341 24.9859ZM103.834 20.16C103.834 18.8129 104.002 17.5276 104.332 16.2962L98.5362 14.7438C98.0661 16.499 97.8341 18.3071 97.8341 20.16H103.834ZM104.319 16.3442C104.503 15.6974 104.681 15.2179 104.838 14.8772C105.001 14.5228 105.102 14.4087 105.094 14.418L100.654 10.382C99.6354 11.5027 99.0039 13.1055 98.5495 14.6958L104.319 16.3442ZM105.044 14.4714C104.997 14.5204 105.063 14.4353 105.388 14.277C105.7 14.1249 106.16 13.9493 106.805 13.7684L105.183 7.99163C103.551 8.44969 101.847 9.13166 100.704 10.3286L105.044 14.4714ZM106.805 13.7684C108.076 13.4115 109.31 13.24 110.514 13.24V7.24C108.731 7.24 106.952 7.49513 105.183 7.99163L106.805 13.7684ZM110.514 13.24C112.649 13.24 113.713 13.636 114.175 13.9649L117.653 9.07513C115.715 7.69732 113.179 7.24 110.514 7.24V13.24ZM114.175 13.9649C114.75 14.3737 115.147 14.9265 115.361 15.7956L121.187 14.3644C120.654 12.1935 119.478 10.373 117.653 9.07513L114.175 13.9649ZM115.364 15.8076C115.652 16.9599 115.834 18.6961 115.834 21.12H121.834C121.834 18.4772 121.643 16.1868 121.184 14.3524L115.364 15.8076ZM118.658 18.1252C116.9 18.2286 115.186 18.28 113.514 18.28V24.28C115.309 24.28 117.141 24.2248 119.01 24.1148L118.658 18.1252ZM113.514 18.28H107.834V24.28H113.514V18.28ZM104.834 21.28C104.834 22.4621 105.062 23.9053 106.026 25.0918L110.682 21.3082C110.822 21.4803 110.859 21.6128 110.86 21.6158C110.86 21.6171 110.853 21.592 110.847 21.5341C110.84 21.4764 110.834 21.3929 110.834 21.28H104.834ZM106.096 25.1755C106.986 26.1925 108.144 26.7455 109.326 26.9817L110.502 21.0983C110.417 21.0812 110.409 21.0683 110.446 21.0886C110.465 21.0987 110.492 21.1152 110.523 21.1397C110.554 21.1642 110.584 21.1929 110.612 21.2245L106.096 25.1755ZM109.44 27.0023C110.339 27.1462 111.457 27.2 112.714 27.2V21.2C111.571 21.2 110.822 21.1471 110.388 21.0777L109.44 27.0023ZM106.892 12.3167C105.667 12.9297 105.275 14.0893 105.189 14.3387C105.033 14.7909 104.95 15.2605 104.899 15.652L110.849 16.428C110.878 16.2061 110.896 16.1957 110.859 16.3013C110.84 16.3562 110.776 16.5336 110.63 16.756C110.491 16.9671 110.169 17.3866 109.576 17.6833L106.892 12.3167ZM104.899 15.652C104.804 16.3797 104.745 17.1705 104.716 18.0166L110.712 18.2234C110.736 17.5228 110.784 16.927 110.849 16.428L104.899 15.652ZM107.714 21.12H109.794V15.12H107.714V21.12ZM109.794 21.12C111.052 21.12 112.02 21.1069 112.657 21.0766L112.371 15.0834C111.888 15.1064 111.043 15.12 109.794 15.12V21.12ZM115.514 18.08C115.514 16.6824 115.344 14.9711 114.412 13.6396L109.496 17.0804C109.371 16.902 109.393 16.8358 109.436 17.045C109.476 17.24 109.514 17.5721 109.514 18.08H115.514ZM114.469 13.725C113.371 12.0351 111.582 11.56 110.114 11.56V17.56C110.266 17.56 110.208 17.585 110.038 17.5112C109.948 17.4722 109.837 17.4096 109.724 17.3147C109.609 17.219 109.513 17.1088 109.439 16.995L114.469 13.725ZM110.114 11.56C108.981 11.56 107.839 11.7934 106.788 12.3714L109.68 17.6286C109.696 17.62 109.807 17.56 110.114 17.56V11.56ZM134.762 10.56L134.354 13.5321L134.382 13.5361L134.411 13.5395L134.762 10.56ZM139.522 11.24H142.522V8.68629L140.001 8.2785L139.522 11.24ZM135.722 36.04L133.803 33.7333L133.801 33.7353L135.722 36.04ZM133.562 36.72L133.068 33.7608L133.562 36.72ZM122.482 35.8L119.485 35.9362L119.569 37.7827L121.256 38.5381L122.482 35.8ZM122.602 33.48L119.63 33.0673L119.624 33.1079L119.62 33.1487L122.602 33.48ZM123.002 31.2L123.455 28.2344L120.723 27.8171L120.083 30.5051L123.002 31.2ZM131.002 31.48L130.644 28.5014L130.576 28.5095L130.508 28.5208L131.002 31.48ZM132.242 31.08L130.12 28.9587L130.039 29.0401L129.964 29.1276L132.242 31.08ZM132.722 28.68L135.713 28.9101L135.713 28.9019L135.714 28.8937L132.722 28.68ZM132.762 26.04H135.762V16.2415L130.276 24.3604L132.762 26.04ZM130.202 28.16L129.063 25.3845L130.202 28.16ZM122.322 26.6L119.958 28.4478L122.322 26.6ZM121.362 14.92L118.506 13.999L118.502 14.0134L118.497 14.0278L121.362 14.92ZM123.522 11.48L121.832 9.00132L121.811 9.01504L121.792 9.0291L123.522 11.48ZM126.362 10.6L126.786 13.5698L126.811 13.5663L126.836 13.5623L126.362 10.6ZM132.682 23.32L133.796 26.1054L135.682 25.3511V23.32H132.682ZM132.682 14.96H135.682V12.4563L133.218 12.0084L132.682 14.96ZM131.362 14.8L131.063 17.7851L131.076 17.7865L131.09 17.7877L131.362 14.8ZM128.602 15L130.366 17.4262L130.384 17.4132L130.402 17.4L128.602 15ZM127.882 16.8L124.934 16.2423L124.928 16.2745L124.922 16.3068L127.882 16.8ZM128.122 22.92L125.488 24.3566L125.513 24.4018L125.539 24.4462L128.122 22.92ZM130.842 13.28C131.946 13.28 133.116 13.3623 134.354 13.5321L135.17 7.58786C133.687 7.38437 132.244 7.28 130.842 7.28V13.28ZM134.411 13.5395C135.716 13.693 137.259 13.9129 139.042 14.2015L140.001 8.2785C138.158 7.98042 136.527 7.74697 135.112 7.58055L134.411 13.5395ZM136.522 11.24V27.16H142.522V11.24H136.522ZM136.522 27.16C136.522 30.2385 135.539 32.2897 133.803 33.7333L137.64 38.3467C140.97 35.577 142.522 31.7082 142.522 27.16H136.522ZM133.801 33.7353C133.973 33.5924 134.103 33.5305 134.121 33.522C134.147 33.5096 134.127 33.5213 134.041 33.5485C133.863 33.6045 133.552 33.6803 133.068 33.7608L134.055 39.6792C134.691 39.5731 135.3 39.4422 135.842 39.2715C136.322 39.1205 137.029 38.8554 137.642 38.3447L133.801 33.7353ZM133.068 33.7608C132.145 33.9147 131.048 34 129.762 34V40C131.302 40 132.738 39.8986 134.055 39.6792L133.068 33.7608ZM129.762 34C126.903 34 124.952 33.6192 123.708 33.0619L121.256 38.5381C123.584 39.5808 126.486 40 129.762 40V34ZM125.478 35.6638C125.462 35.3002 125.484 34.7014 125.583 33.8113L119.62 33.1487C119.505 34.1786 119.448 35.1265 119.485 35.9362L125.478 35.6638ZM125.573 33.8927C125.701 32.973 125.819 32.3202 125.92 31.8949L120.083 30.5051C119.918 31.1998 119.769 32.067 119.63 33.0673L125.573 33.8927ZM122.548 34.1656C124.61 34.4806 126.642 34.64 128.642 34.64V28.64C126.961 28.64 125.233 28.5061 123.455 28.2344L122.548 34.1656ZM128.642 34.64C129.675 34.64 130.638 34.582 131.495 34.4392L130.508 28.5208C130.085 28.5914 129.475 28.64 128.642 28.64V34.64ZM131.359 34.4586C131.792 34.4066 132.272 34.3238 132.733 34.1751C133.115 34.0517 133.897 33.758 134.519 33.0324L129.964 29.1276C130.217 28.8322 130.472 28.6686 130.612 28.5904C130.757 28.5093 130.862 28.4739 130.891 28.4649C130.938 28.4495 130.878 28.4734 130.644 28.5014L131.359 34.4586ZM134.363 33.2013C134.877 32.6867 135.11 32.1089 135.207 31.8471C135.327 31.5207 135.407 31.1923 135.463 30.9083C135.578 30.3363 135.656 29.6527 135.713 28.9101L129.73 28.4499C129.681 29.094 129.625 29.5037 129.58 29.7317C129.557 29.8477 129.55 29.8459 129.577 29.7729C129.591 29.7333 129.628 29.6394 129.697 29.5156C129.761 29.3991 129.893 29.1861 130.12 28.9587L134.363 33.2013ZM135.714 28.8937C135.748 28.4114 135.762 27.7791 135.762 27.04H129.762C129.762 27.7409 129.748 28.2019 129.729 28.4663L135.714 28.8937ZM135.762 27.04V26.04H129.762V27.04H135.762ZM130.276 24.3604C129.92 24.8875 129.522 25.196 129.063 25.3845L131.34 30.9355C132.961 30.2707 134.27 29.1658 135.247 27.7196L130.276 24.3604ZM129.063 25.3845C128.262 25.713 127.725 25.8 127.402 25.8V31.8C128.732 31.8 130.061 31.4604 131.34 30.9355L129.063 25.3845ZM127.402 25.8C125.876 25.8 125.146 25.3414 124.685 24.7522L119.958 28.4478C121.791 30.7919 124.448 31.8 127.402 31.8V25.8ZM124.685 24.7522C124.116 24.0247 123.602 22.647 123.602 20.16H117.602C117.602 23.3264 118.234 26.242 119.958 28.4478L124.685 24.7522ZM123.602 20.16C123.602 18.5671 123.817 17.1238 124.226 15.8121L118.497 14.0278C117.892 15.9696 117.602 18.0195 117.602 20.16H123.602ZM124.217 15.841C124.656 14.4793 125.101 14.0375 125.252 13.9309L121.792 9.0291C120.129 10.2025 119.134 12.054 118.506 13.999L124.217 15.841ZM125.212 13.9587C125.182 13.9786 125.268 13.916 125.559 13.8256C125.841 13.7384 126.241 13.6476 126.786 13.5698L125.937 7.63015C124.502 7.83516 122.998 8.20612 121.832 9.00132L125.212 13.9587ZM126.836 13.5623C127.982 13.3789 129.313 13.28 130.842 13.28V7.28C129.063 7.28 127.408 7.39444 125.888 7.63768L126.836 13.5623ZM130.002 26.8C131.315 26.8 132.594 26.5862 133.796 26.1054L131.567 20.5346C131.169 20.6938 130.661 20.8 130.002 20.8V26.8ZM135.682 23.32V14.96H129.682V23.32H135.682ZM133.218 12.0084C132.789 11.9303 132.241 11.8676 131.633 11.8123L131.09 17.7877C131.656 17.8391 131.988 17.883 132.145 17.9116L133.218 12.0084ZM131.66 11.8149C131.239 11.7728 130.717 11.76 130.162 11.76V17.76C130.672 17.76 130.95 17.7739 131.063 17.7851L131.66 11.8149ZM130.162 11.76C129.671 11.76 129.166 11.7825 128.695 11.8549C128.335 11.9103 127.528 12.0549 126.802 12.6L130.402 17.4C130.245 17.5173 130.104 17.5953 130 17.6454C129.895 17.696 129.809 17.7275 129.752 17.7462C129.644 17.7817 129.586 17.7885 129.608 17.7851C129.624 17.7826 129.677 17.7756 129.777 17.7697C129.875 17.7639 130.002 17.76 130.162 17.76V11.76ZM126.837 12.5738C125.999 13.1829 125.604 14.027 125.416 14.4958C125.196 15.0457 125.046 15.6508 124.934 16.2423L130.829 17.3577C130.865 17.1698 130.899 17.0228 130.929 16.9115C130.959 16.7981 130.981 16.7401 130.987 16.7242C130.995 16.7033 130.972 16.7677 130.9 16.8776C130.832 16.9821 130.667 17.2073 130.366 17.4262L126.837 12.5738ZM124.922 16.3068C124.733 17.4445 124.642 18.6237 124.642 19.84H130.642C130.642 18.923 130.71 18.0755 130.841 17.2932L124.922 16.3068ZM124.642 19.84C124.642 21.3436 124.775 23.0494 125.488 24.3566L130.755 21.4834C130.826 21.6136 130.779 21.5879 130.726 21.248C130.677 20.9355 130.642 20.4762 130.642 19.84H124.642ZM125.539 24.4462C126.601 26.2435 128.432 26.8 130.002 26.8V20.8C129.857 20.8 129.935 20.7748 130.123 20.8629C130.222 20.9089 130.335 20.9793 130.446 21.0797C130.557 21.1803 130.643 21.2901 130.704 21.3938L125.539 24.4462ZM153.725 29L150.817 29.7385L151.392 32H153.725V29ZM153.085 26.48L155.993 25.7415L154.243 18.8534L150.528 24.9115L153.085 26.48ZM143.565 28L141.552 30.2246L141.58 30.2497L141.608 30.274L143.565 28ZM142.845 20.84L140.481 18.993L140.473 19.0035L142.845 20.84ZM145.565 19.04L144.741 16.1554L144.719 16.1617L144.697 16.1684L145.565 19.04ZM152.485 18.32L152.536 21.3196L155.485 21.2692V18.32H152.485ZM152.245 15.52L150.371 17.8626L150.473 17.9439L150.581 18.0161L152.245 15.52ZM149.085 15.44L149.21 18.4374L149.247 18.4358L149.285 18.4334L149.085 15.44ZM143.885 15.88L140.917 16.3196L141.341 19.1773L144.212 18.8621L143.885 15.88ZM143.405 11.24L142.795 8.3026L140.243 8.83224L140.411 11.4331L143.405 11.24ZM147.845 10.52L148.204 13.4984L148.23 13.4953L148.255 13.4919L147.845 10.52ZM156.805 11.28L155.127 13.7665L155.148 13.7811L155.17 13.7953L156.805 11.28ZM158.885 14.04L161.775 13.2336V13.2336L158.885 14.04ZM159.325 18.4L156.325 18.3545L156.325 18.3671L156.325 18.3796L159.325 18.4ZM159.285 24.28L156.285 24.2596L156.285 24.3079L156.286 24.3562L159.285 24.28ZM159.405 29V32H162.482L162.404 28.9238L159.405 29ZM152.485 24.6L153.463 27.4361L155.485 26.7389V24.6H152.485ZM152.485 21.64H155.485V18.64H152.485V21.64ZM148.885 21.96L146.764 19.8387L146.764 19.8387L148.885 21.96ZM148.565 22.56L145.692 21.698L145.651 21.8332L145.623 21.9717L148.565 22.56ZM148.925 24.64L147.025 26.9619V26.9619L148.925 24.64ZM156.633 28.2615L155.993 25.7415L150.177 27.2185L150.817 29.7385L156.633 28.2615ZM150.528 24.9115C149.798 26.1004 149.02 26.48 147.965 26.48V32.48C151.284 32.48 153.918 30.8596 155.642 28.0485L150.528 24.9115ZM147.965 26.48C146.76 26.48 146.029 26.1621 145.522 25.726L141.608 30.274C143.395 31.8112 145.597 32.48 147.965 32.48V26.48ZM145.578 25.7754C145.212 25.4441 144.885 24.9106 144.885 23.76H138.885C138.885 26.2361 139.678 28.5293 141.552 30.2246L145.578 25.7754ZM144.885 23.76C144.885 23.2542 145.014 22.9388 145.217 22.6765L140.473 19.0035C139.396 20.3945 138.885 22.0258 138.885 23.76H144.885ZM145.209 22.6869C145.454 22.3728 145.813 22.0991 146.433 21.9116L144.697 16.1684C143.024 16.6742 141.569 17.6005 140.481 18.9931L145.209 22.6869ZM146.389 21.9246C147.489 21.6104 149.471 21.372 152.536 21.3196L152.434 15.3204C149.259 15.3747 146.628 15.6163 144.741 16.1554L146.389 21.9246ZM155.485 18.32C155.485 17.4147 155.465 16.6398 155.414 16.0438C155.39 15.7577 155.35 15.4136 155.273 15.0804C155.236 14.9183 155.168 14.6597 155.04 14.3749C154.949 14.1706 154.642 13.5124 153.909 13.0239L150.581 18.0161C150.204 17.7652 149.967 17.4811 149.833 17.2934C149.695 17.1004 149.61 16.93 149.562 16.8226C149.47 16.6161 149.434 16.4617 149.427 16.4296C149.41 16.3564 149.42 16.3756 149.436 16.5562C149.465 16.8935 149.485 17.4653 149.485 18.32H155.485ZM154.119 13.1774C153.63 12.7863 153.135 12.6284 152.914 12.5654C152.644 12.4883 152.392 12.4475 152.197 12.4232C151.806 12.3742 151.379 12.36 150.965 12.36V18.36C151.271 18.36 151.418 18.3724 151.453 18.3768C151.471 18.3792 151.396 18.3717 151.266 18.3346C151.198 18.3151 151.085 18.2791 150.946 18.2166C150.813 18.1565 150.602 18.0475 150.371 17.8626L154.119 13.1774ZM150.965 12.36C150.413 12.36 149.71 12.3917 148.885 12.4466L149.285 18.4334C150.06 18.3816 150.61 18.36 150.965 18.36V12.36ZM148.96 12.4426C147.581 12.5 145.771 12.6549 143.558 12.8979L144.212 18.8621C146.372 18.6251 148.029 18.4866 149.21 18.4374L148.96 12.4426ZM146.853 15.4404C146.653 14.0924 146.501 12.6287 146.399 11.0469L140.411 11.4331C140.523 13.158 140.69 14.7876 140.917 16.3196L146.853 15.4404ZM144.015 14.1774C145.339 13.9025 146.735 13.6757 148.204 13.4984L147.486 7.54161C145.861 7.73762 144.298 7.9908 142.795 8.3026L144.015 14.1774ZM148.255 13.4919C149.7 13.2925 150.947 13.2 152.005 13.2V7.2C150.61 7.2 149.083 7.32085 147.435 7.54814L148.255 13.4919ZM152.005 13.2C153.895 13.2 154.785 13.536 155.127 13.7665L158.483 8.79345C156.692 7.58397 154.382 7.2 152.005 7.2V13.2ZM155.17 13.7953C155.67 14.1204 155.886 14.4538 155.995 14.8464L161.775 13.2336C161.244 11.3328 160.073 9.82628 158.44 8.76467L155.17 13.7953ZM155.995 14.8464C156.211 15.6177 156.35 16.7586 156.325 18.3545L162.325 18.4454C162.354 16.5214 162.199 14.7557 161.775 13.2336L155.995 14.8464ZM156.325 18.3796L156.285 24.2596L162.285 24.3004L162.325 18.4204L156.325 18.3796ZM156.286 24.3562L156.406 29.0762L162.404 28.9238L162.284 24.2038L156.286 24.3562ZM159.405 26H153.725V32H159.405V26ZM150.285 28C151.365 28 152.43 27.7923 153.463 27.4361L151.507 21.7639C150.993 21.9411 150.592 22 150.285 22V28ZM155.485 24.6V21.64H149.485V24.6H155.485ZM152.485 18.64H152.165V24.64H152.485V18.64ZM152.165 18.64C151.144 18.64 150.265 18.6668 149.574 18.7342C149.235 18.7672 148.858 18.8177 148.496 18.9061C148.308 18.9522 147.457 19.1456 146.764 19.8387L151.006 24.0813C150.657 24.4311 150.313 24.5886 150.193 24.6402C150.045 24.7041 149.942 24.7295 149.924 24.7339C149.889 24.7423 149.948 24.7261 150.156 24.7058C150.559 24.6666 151.212 24.64 152.165 24.64V18.64ZM146.764 19.8387C146.152 20.4508 145.851 21.1656 145.692 21.698L151.438 23.422C151.434 23.4377 151.411 23.5121 151.352 23.6218C151.293 23.732 151.186 23.9014 151.006 24.0813L146.764 19.8387ZM145.623 21.9717C145.536 22.4069 145.485 22.8584 145.485 23.32H151.485C151.485 23.3016 151.487 23.2464 151.507 23.1483L145.623 21.9717ZM145.485 23.32C145.485 24.2584 145.675 25.8574 147.025 26.9619L150.825 22.3181C151.206 22.6301 151.375 22.9841 151.441 23.1813C151.5 23.3588 151.485 23.4309 151.485 23.32H145.485ZM147.025 26.9619C148.098 27.8397 149.378 28 150.285 28V22C150.163 22 150.166 21.9869 150.253 22.0099C150.345 22.0342 150.571 22.1103 150.825 22.3181L147.025 26.9619Z" fill="#195155"/>
</svg>
