<svg width="576" height="574" viewBox="0 0 576 574" fill="none" xmlns="http://www.w3.org/2000/svg">
<path d="M555.842 240.291C527.036 283.567 472.683 293.477 427.71 278.404C412.995 273.352 398.799 266.409 385.379 257.701C377.584 252.727 369.975 247.272 362.522 241.459C360.688 240.035 358.855 238.589 357.04 237.114C355.803 236.121 354.57 235.115 353.341 234.098C337.95 221.376 323.162 207.421 308.623 193.545C272.327 158.908 235.037 123.204 190.443 106.678C181.256 103.275 169.371 101.682 163.689 110.826C158.76 118.764 161.768 130.003 165.939 138.518C181.411 170.059 209.495 189.974 237.604 205.288C265.713 220.602 295.488 233.01 319.923 255.4C344.359 277.791 363.013 313.378 358.016 349.301C353.708 380.257 332.194 405.408 307.18 416.37C282.167 427.324 254.27 425.798 228.268 418.685C202.266 411.565 177.582 399.142 152.488 388.436C137.358 381.973 117.579 377.504 107.539 392.292C99.0609 404.788 103.934 424.498 114.259 434.897C124.584 445.297 138.558 448.78 151.891 451.906C193.29 461.618 234.689 471.329 276.088 481.037C288.787 484.009 301.785 487.12 312.85 495.036C323.914 502.945 332.84 516.762 332.524 531.974C332.206 546.967 322.864 560.214 311.414 566.853C299.97 573.484 286.755 574.506 274.006 573.79C226.229 571.103 89.2581 481.928 56.4062 470.528C35.2965 463.21 12.2164 452.461 3.31478 428.814C-7.7685 399.376 10.4696 363.76 35.3648 350.316C60.2539 336.864 89.1088 339.843 116.236 344.371C143.363 348.899 171.384 354.661 197.791 346.058C224.196 337.455 248.389 309.412 245.785 277.367C243.516 249.485 222.139 228.475 199.643 219.215C182.033 211.963 163.298 209.991 144.799 206.727C139.664 205.829 134.548 204.821 129.482 203.579C116.508 200.386 103.852 195.613 91.7197 189.339C78.9882 182.768 66.893 174.613 55.6417 165.013C46.6677 157.367 38.2813 148.812 30.5787 139.446C29.4038 138.014 28.2413 136.551 27.0912 135.057C25.9974 133.625 24.9156 132.165 23.8591 130.675C10.1091 111.373 -0.0481619 87.6026 2.99795 63.1089C6.03738 38.6808 22.2429 18.3424 41.5375 8.57113C52.6891 2.92602 64.7172 0.399231 76.8944 0.0340885C85.7983 -0.174977 94.6999 0.577952 103.487 2.28337C144.146 9.92216 181.405 33.1307 216.594 58.2598C251.777 83.3889 286.065 110.972 324.312 128.886C362.56 146.807 406.097 154.395 444.897 138.19C483.698 121.992 515.574 77.7949 513.678 29.4719C539.412 55.5066 561.281 88.2307 570.965 126.468C580.65 164.706 576.759 208.859 555.842 240.291Z" fill="#4EAB3F"/>
<path d="M370.422 190.35C372.92 190.35 374.945 187.971 374.945 185.035C374.945 182.1 372.92 179.72 370.422 179.72C367.923 179.72 365.898 182.1 365.898 185.035C365.898 187.971 367.923 190.35 370.422 190.35Z" fill="black"/>
<path d="M530.174 123.145C534.037 123.145 537.169 119.466 537.169 114.928C537.169 110.39 534.037 106.711 530.174 106.711C526.311 106.711 523.18 110.39 523.18 114.928C523.18 119.466 526.311 123.145 530.174 123.145Z" fill="#6CFF27"/>
<path d="M71.4292 376.485C72.8565 376.485 74.0135 375.126 74.0135 373.449C74.0135 371.772 72.8565 370.413 71.4292 370.413C70.0019 370.413 68.8449 371.772 68.8449 373.449C68.8449 375.126 70.0019 376.485 71.4292 376.485Z" fill="#6CFF27"/>
<path d="M145.607 198.913C145.608 201.546 145.337 204.17 144.799 206.727C139.664 205.828 134.548 204.821 129.482 203.579C116.508 200.386 103.852 195.613 91.7197 189.339C93.6707 181.938 97.8158 175.604 103.402 171.488C108.989 167.371 115.647 165.745 122.167 166.903C128.688 168.062 134.638 171.928 138.939 177.802C143.24 183.675 145.606 191.165 145.607 198.913Z" fill="#6CFF27"/>
<path d="M485.419 171.344C486.878 171.344 488.062 169.954 488.062 168.239C488.062 166.524 486.878 165.134 485.419 165.134C483.959 165.134 482.776 166.524 482.776 168.239C482.776 169.954 483.959 171.344 485.419 171.344Z" fill="#F0F0F0"/>
<path d="M243.614 513.118C245.074 513.118 246.257 511.727 246.257 510.012C246.257 508.298 245.074 506.907 243.614 506.907C242.154 506.907 240.971 508.298 240.971 510.012C240.971 511.727 242.154 513.118 243.614 513.118Z" fill="#F0F0F0"/>
<path d="M281.532 556.204C282.992 556.204 284.175 554.814 284.175 553.099C284.175 551.384 282.992 549.994 281.532 549.994C280.072 549.994 278.889 551.384 278.889 553.099C278.889 554.814 280.072 556.204 281.532 556.204Z" fill="#F0F0F0"/>
<path d="M47.1866 433.516C48.6463 433.516 49.8296 432.126 49.8296 430.411C49.8296 428.696 48.6463 427.306 47.1866 427.306C45.7269 427.306 44.5435 428.696 44.5435 430.411C44.5435 432.126 45.7269 433.516 47.1866 433.516Z" fill="#F0F0F0"/>
<path d="M177.102 375.824C178.562 375.824 179.745 374.434 179.745 372.719C179.745 371.004 178.562 369.614 177.102 369.614C175.642 369.614 174.459 371.004 174.459 372.719C174.459 374.434 175.642 375.824 177.102 375.824Z" fill="#F0F0F0"/>
<path d="M164.048 67.6433C165.508 67.6433 166.691 66.2531 166.691 64.5381C166.691 62.8232 165.508 61.433 164.048 61.433C162.589 61.433 161.405 62.8232 161.405 64.5381C161.405 66.2531 162.589 67.6433 164.048 67.6433Z" fill="#F0F0F0"/>
<path d="M323.801 310.828C325.261 310.828 326.444 309.438 326.444 307.723C326.444 306.008 325.261 304.618 323.801 304.618C322.341 304.618 321.158 306.008 321.158 307.723C321.158 309.438 322.341 310.828 323.801 310.828Z" fill="#F0F0F0"/>
<path d="M343.692 364.87C345.152 364.87 346.336 363.479 346.336 361.764C346.336 360.05 345.152 358.659 343.692 358.659C342.233 358.659 341.049 360.05 341.049 361.764C341.049 363.479 342.233 364.87 343.692 364.87Z" fill="#F0F0F0"/>
<path d="M105.451 74.45C105.47 90.1283 102.317 105.587 96.2513 119.552C95.4494 121.393 94.5998 123.201 93.7026 124.978C84.8198 142.602 71.5296 156.581 55.6417 165.013C46.6677 157.367 38.2813 148.812 30.5787 139.445C29.4037 138.014 28.2413 136.551 27.0912 135.056C25.9974 133.625 24.9156 132.164 23.8591 130.675C10.1091 111.373 -0.0481646 87.6025 2.99795 63.1087C6.03738 38.6807 22.2429 18.3422 41.5375 8.57093C52.6891 2.92582 64.7172 0.399078 76.8944 0.0339355C86.4157 9.91255 93.9218 22.1829 98.8557 35.9348C99.4773 37.6656 100.049 39.4182 100.59 41.1928C103.816 51.8708 105.46 63.1194 105.451 74.45Z" fill="black"/>
<path d="M143.99 79.562C143.99 94.7738 131.347 108.883 108.385 119.304C103.791 121.393 98.8743 123.284 93.7026 124.978C74.3457 131.317 51.309 134.83 27.0912 135.056C25.9974 133.625 24.9156 132.164 23.8591 130.675C24.1201 130.682 24.3811 130.682 24.6422 130.682C50.9423 130.682 75.8937 126.768 96.2513 119.552C100.012 118.216 103.617 116.77 107.042 115.215C128.152 105.64 140.261 92.6414 140.261 79.562C140.261 66.4825 128.152 53.4908 107.042 43.9094C104.954 42.96 102.803 42.0545 100.59 41.1927C100.049 39.4182 99.4774 37.6655 98.8558 35.9347C102.163 37.147 105.339 38.442 108.385 39.8198C131.347 50.241 143.99 64.3574 143.99 79.562Z" fill="#E4E4E4"/>
<path d="M28.5384 25.2867C29.9981 25.2867 31.1815 23.8965 31.1815 22.1816C31.1815 20.4666 29.9981 19.0764 28.5384 19.0764C27.0787 19.0764 25.8954 20.4666 25.8954 22.1816C25.8954 23.8965 27.0787 25.2867 28.5384 25.2867Z" fill="#F0F0F0"/>
<path d="M83.8613 45.0045C85.321 45.0045 86.5044 43.6143 86.5044 41.8993C86.5044 40.1844 85.321 38.7942 83.8613 38.7942C82.4016 38.7942 81.2183 40.1844 81.2183 41.8993C81.2183 43.6143 82.4016 45.0045 83.8613 45.0045Z" fill="#F0F0F0"/>
<path d="M55.2674 103.498C69.4625 103.498 80.9699 89.9785 80.9699 73.3016C80.9699 56.6248 69.4625 43.1055 55.2674 43.1055C41.0724 43.1055 29.565 56.6248 29.565 73.3016C29.565 89.9785 41.0724 103.498 55.2674 103.498Z" fill="#F0F0F0"/>
<path opacity="0.3" d="M529.927 233.119C524.158 235.12 511.44 236.595 497.454 237.501C483.474 238.399 468.139 238.793 452.997 239.173C426.492 239.845 399.989 240.519 373.487 241.196C369.845 241.291 366.189 241.379 362.522 241.459C360.688 240.035 358.855 238.589 357.04 237.114C360.291 237.136 363.542 237.114 366.768 237.041C380.549 236.719 392.216 235.456 405.506 234.857C425.957 233.93 448.036 234.66 469.351 235.032C490.666 235.412 514.952 235.273 529.927 233.119Z" fill="#F0F0F0"/>
<path opacity="0.3" d="M123.13 463.328L38.6407 380.637L120.721 466.64C120.88 466.954 121.1 467.22 121.364 467.414C121.627 467.609 121.927 467.727 122.237 467.758C122.547 467.789 122.859 467.733 123.148 467.594C123.436 467.456 123.691 467.238 123.894 466.96C124.096 466.682 124.239 466.351 124.311 465.995C124.382 465.639 124.381 465.268 124.306 464.913C124.232 464.558 124.086 464.229 123.881 463.953C123.677 463.678 123.419 463.463 123.13 463.328H123.13Z" fill="#F0F0F0"/>
<path d="M58.9971 150.166C60.4568 150.166 61.6401 148.775 61.6401 147.06C61.6401 145.346 60.4568 143.955 58.9971 143.955C57.5374 143.955 56.354 145.346 56.354 147.06C56.354 148.775 57.5374 150.166 58.9971 150.166Z" fill="#F0F0F0"/>
<path d="M280.976 506.858L291.909 506.857L297.11 457.317L280.975 457.317L280.976 506.858Z" fill="#FFB6B6"/>
<path d="M278.188 502.664L281.265 502.664L293.279 496.924L299.717 502.663H299.718C303.357 502.663 306.847 504.362 309.42 507.385C311.993 510.407 313.438 514.507 313.439 518.782V519.306L278.188 519.308L278.188 502.664Z" fill="#2F2E41"/>
<path d="M199.105 506.858L188.173 506.857L182.972 457.317L199.107 457.317L199.105 506.858Z" fill="#FFB6B6"/>
<path d="M201.894 519.308L166.643 519.306V518.782C166.643 514.507 168.089 510.407 170.662 507.385C173.235 504.362 176.725 502.663 180.364 502.663H180.364L186.803 496.924L198.817 502.664L201.894 502.664L201.894 519.308Z" fill="#2F2E41"/>
<path d="M238.277 127.193L227.208 137.095L197.803 146.244C197.803 146.244 208.339 233.119 203.366 238.961C198.393 244.804 202.878 244.961 201.879 252.55C200.88 260.14 196.898 280.177 196.898 280.177H284.661C284.661 280.177 285.368 267.724 281.042 265.027C276.716 262.331 285.03 249.743 281.494 247.639C277.959 245.534 282.932 227.277 282.932 227.277L293.709 167.503L265.044 141.155L260.684 128.815L238.277 127.193Z" fill="black"/>
<path d="M252.089 204.823C254.204 204.823 255.919 202.809 255.919 200.324C255.919 197.839 254.204 195.824 252.089 195.824C249.974 195.824 248.259 197.839 248.259 200.324C248.259 202.809 249.974 204.823 252.089 204.823Z" fill="#F2F2F2"/>
<path d="M196.898 280.177L193.279 389.663C193.279 389.663 177.653 470.527 180.367 472.653C183.081 474.779 184.231 487.455 184.231 487.455L199.612 489.581C199.612 489.581 199.612 481.077 203.231 477.888C206.85 474.7 240.327 324.822 240.327 324.822L272.986 469.732C272.986 469.732 273.804 477.888 276.518 477.888C279.232 477.888 280.137 489.581 280.137 489.581H295.518V477.888C295.518 477.888 302.429 475.314 299.715 466.811C297.001 458.307 284.661 280.177 284.661 280.177H196.898Z" fill="#2F2E41"/>
<path d="M249.772 120.668C260.016 120.668 268.32 110.912 268.32 98.8773C268.32 86.8426 260.016 77.0865 249.772 77.0865C239.528 77.0865 231.224 86.8426 231.224 98.8773C231.224 110.912 239.528 120.668 249.772 120.668Z" fill="#FFB6B6"/>
<path opacity="0.1" d="M281.494 196.735L285.113 199.924L286.923 185.042L281.494 196.735Z" fill="black"/>
<path d="M199.537 146.16C199.537 146.16 195.013 145.097 192.299 154.663C189.585 164.23 179.632 200.371 179.632 206.748C179.632 213.126 241.613 241.267 241.613 241.267L235.164 214.687L206.775 197.182L199.537 146.16Z" fill="black"/>
<path d="M244.488 237.326C250.324 237.326 255.055 231.768 255.055 224.911C255.055 218.055 250.324 212.496 244.488 212.496C238.651 212.496 233.92 218.055 233.92 224.911C233.92 231.768 238.651 237.326 244.488 237.326Z" fill="#FFB6B6"/>
<path opacity="0.1" d="M205.948 184.015L206.775 197.182L233.026 213.369L209.678 194.97L205.948 184.015Z" fill="black"/>
<path d="M269.055 185.892H268.715V174.932C268.715 174.099 268.575 173.274 268.304 172.504C268.032 171.735 267.635 171.035 267.133 170.446C266.632 169.857 266.037 169.39 265.382 169.071C264.727 168.752 264.024 168.588 263.315 168.588H243.55C242.841 168.588 242.139 168.752 241.484 169.071C240.829 169.39 240.233 169.857 239.732 170.446C239.231 171.035 238.833 171.735 238.562 172.504C238.29 173.274 238.151 174.099 238.151 174.932V235.061C238.151 235.894 238.29 236.719 238.562 237.489C238.833 238.258 239.231 238.958 239.732 239.547C240.233 240.136 240.829 240.603 241.484 240.922C242.139 241.241 242.841 241.405 243.55 241.405H263.315C264.024 241.405 264.726 241.241 265.382 240.922C266.037 240.603 266.632 240.136 267.133 239.547C267.635 238.958 268.032 238.258 268.304 237.489C268.575 236.719 268.715 235.894 268.715 235.061V193.694H269.055V185.892Z" fill="#F0F0F0"/>
<path d="M293.709 167.503C293.709 167.503 296.423 169.629 298.233 179.196C300.042 188.763 311.804 224.903 307.28 233.407C302.756 241.911 301.421 250.987 286.04 238.231L264.756 215.337L280.137 198.329L286.47 203.644L293.709 167.503Z" fill="black"/>
<path d="M253.674 195.388C256.173 195.388 258.198 193.009 258.198 190.073C258.198 187.138 256.173 184.758 253.674 184.758C251.176 184.758 249.15 187.138 249.15 190.073C249.15 193.009 251.176 195.388 253.674 195.388Z" fill="black"/>
<path d="M266.77 214.132C272.606 214.132 277.337 208.573 277.337 201.717C277.337 194.86 272.606 189.302 266.77 189.302C260.934 189.302 256.203 194.86 256.203 201.717C256.203 208.573 260.934 214.132 266.77 214.132Z" fill="#FFB6B6"/>
<path opacity="0.1" d="M205.449 223.752L235.785 239.517L204.607 232.358L205.449 223.752Z" fill="black"/>
<path d="M231.059 103.22L228.513 91.8335C227.848 88.8625 227.178 85.8314 227.327 82.7646C227.477 79.6977 228.584 76.533 230.783 74.8715C232.982 73.2101 236.34 73.6026 237.755 76.1856C238.024 72.0611 241.218 68.8886 244.606 67.7647C247.994 66.6408 251.592 67.0853 255.109 67.2749C258.627 67.4645 262.339 67.3322 265.375 65.2365C265.606 66.0519 265.591 66.9361 265.332 67.7399C265.072 68.5437 264.585 69.2177 263.952 69.6483C264.707 69.8902 265.511 69.7863 266.203 69.3576C266.895 68.9289 267.422 68.2074 267.679 67.3392C267.702 69.7278 266.95 72.0373 265.577 73.7988C266.887 73.0353 268.392 72.8716 269.799 73.3397C271.206 73.8077 272.414 74.874 273.189 76.3311C274.738 79.4865 273.87 83.4492 272.964 86.9327L268.312 104.812C267.606 102.094 267.473 99.2245 267.096 96.4178C266.718 93.6111 266.047 90.7449 264.47 88.5905C262.893 86.4361 260.214 85.1884 257.974 86.2581C256.716 86.8583 255.758 88.0759 254.623 88.9497C252.294 90.7427 249.332 90.9999 246.565 90.635C243.798 90.2702 241.101 89.3445 238.335 88.9748C236.603 88.7433 234.67 88.8046 233.363 90.16C232.464 91.2573 231.87 92.6498 231.661 94.1527C231.044 97.1482 230.801 100.233 230.941 103.311" fill="#2F2E41"/>
</svg>
